<?xml version="1.0" encoding="UTF-8" standalone="no"?>
<svg width="218px" height="249px" viewBox="0 0 218 249" version="1.1" xmlns="http://www.w3.org/2000/svg" xmlns:xlink="http://www.w3.org/1999/xlink" xmlns:sketch="http://www.bohemiancoding.com/sketch/ns">
    <title>Pabst_Blue_Ribbon_logo 4</title>
    <description>Created with Sketch (http://www.bohemiancoding.com/sketch)</description>
    <defs></defs>
    <g id="Page-1" stroke="none" stroke-width="1" fill="none" fill-rule="evenodd" sketch:type="MSPage">
        <g id="Pabst_Blue_Ribbon_logo-copy" sketch:type="MSLayerGroup" transform="translate(-1.000000, 0.000000)">
            <rect id="Rectangle" fill="#FFFFFF" sketch:type="MSShapeGroup" x="0" y="0" width="100" height="100"></rect>
            <path d="M0,0 L0,248.1 L220.4,248.1 L220.4,0 L0,0 L0,0 Z M3.9,244.1 L3.8,3.8 L3.9,3.8 L28.075,38.281 L172.3,244.1 L3.9,244.1 L3.9,244.1 Z M216.6,234.5 L52.9,3.8 L216.6,3.8 L216.6,234.5 L216.6,234.5 Z" id="Shape" fill="#C5091F" sketch:type="MSShapeGroup"></path>
            <g id="Group" transform="translate(28.000000, 24.000000)" sketch:type="MSShapeGroup">
                <path d="M149.3,61 C150.7,59.5 151.2,57.8 150.8,55.8 C150.4,53.8 149.3,52.4 147.5,51.5 C148.7,49.9 148.9,48.2 148.3,46.2 C147.6,44.3 146.3,43 144.3,42.4 C145.2,40.6 145.2,38.8 144.3,37 C143.3,35.3 141.8,34.3 139.8,33.9 C140.5,31.9 140.2,30.2 139,28.5 C137.8,26.9 136.2,26.1 134.2,26 C134.5,24.1 133.9,22.3 132.5,20.9 C131.1,19.4 129.3,18.9 127.3,19.2 C127.3,17.2 126.6,15.5 124.9,14.3 C123.3,13 121.6,12.7 119.6,13.3 C119.3,11.3 118.3,9.8 116.5,8.8 C114.7,7.8 112.8,7.7 111,8.5 C110.4,6.6 109.2,5.3 107.3,4.5 C105.4,3.8 103.6,4 101.8,5.1 C100.9,3.3 99.6,2.2 97.6,1.7 C95.6,1.3 93.8,1.7 92.3,3 C91.2,1.3 89.6,0.4 87.6,0.3 C85.5,0.1 83.8,0.8 82.5,2.3 C81.1,0.8 79.4,0.1 77.4,0.3 C75.3,0.4 73.8,1.3 72.7,3 C71.2,1.7 69.3,1.3 67.3,1.7 C65.3,2.2 64,3.3 63.1,5.1 C61.3,4 59.5,3.8 57.7,4.5 C55.8,5.3 54.5,6.6 54,8.5 C52,7.7 50.2,7.8 48.5,8.8 C47.7,9.3 47,9.8 46.5,10.4 C45.9,11.2 45.5,12.2 45.4,13.3 C43.5,12.7 41.7,13 40,14.3 C38.3,15.5 37.5,17.2 37.6,19.2 C35.5,18.9 33.9,19.4 32.4,20.9 C31,22.3 30.5,24 30.8,26 C28.8,26.1 27.1,26.9 25.9,28.5 C24.7,30.2 24.5,32 25.1,33.9 C23,34.3 21.5,35.3 20.6,37 C19.7,38.8 19.6,40.7 20.6,42.4 L20,42.7 C18.4,43.3 17.3,44.5 16.6,46.2 C16,48.2 16.3,49.9 17.4,51.5 C15.5,52.4 14.5,53.9 14.1,55.8 C13.7,57.8 14.2,59.5 15.6,61 C14,62.2 13.1,63.7 13,65.6 L22.3,99.6 C22,101 22.3,102.4 23.1,103.7 C24.1,105.4 25.8,106.4 27.8,106.5 C27.3,108.5 27.7,110.3 29,111.8 C30.4,113.4 32,114.1 34,114 C33.9,116 34.5,117.7 36,119 L23.5,172.8 L50.9,174.8 L73.3,188 L82.6,147.2 L91.6,188.2 L113.8,176.6 L116.8,175.1 L143.8,170.7 L134,133.6 L129.8,117.9 C130.7,116.8 131,115.4 130.8,114 C132.9,114.1 134.6,113.4 135.9,111.8 C137.3,110.3 137.7,108.5 137.2,106.5 C139.2,106.4 140.8,105.4 141.8,103.7 C142.7,102.3 142.9,101 142.7,99.6 L151.9,65.6 C151.8,63.7 150.9,62.1 149.3,61 Z" id="Shape" fill="#C4C4C4"></path>
                <rect id="Rectangle-2" stroke="#979797" fill="#102C73" x="60" y="99" width="46" height="12"></rect>
                <path d="M136.7,35.8 L137.2,35.1 C137.5,33.7 137.2,32.3 136.3,31.2 C135.5,30 134.3,29.3 132.8,29.2 L132.1,29.4 L127.2,33.3 C128.3,33.7 129.3,34.4 130.2,35.5 C130.9,36.5 131.3,37.7 131.3,38.9 L136.7,35.8 L136.7,35.8 Z M141.3,39.1 C141.9,40.4 142.1,41.8 141.5,43.1 L140.9,43.7 L135.2,46.1 C135.3,44.8 135.1,43.6 134.5,42.5 C133.9,41.4 133.1,40.5 131.9,39.9 L137.3,36.8 L138.1,36.6 C139.6,37 140.6,37.8 141.3,39.1 L141.3,39.1 Z M142.2,44.8 C143.6,45.3 144.5,46.3 145,47.7 C145.4,49 145.3,50.3 144.6,51.7 L143.9,52.1 L137.9,53.7 C138.3,52.4 138.2,51.3 137.8,50.1 C137.3,48.9 136.7,47.9 135.6,47.1 L141.4,44.8 C141.7,44.7 141.9,44.7 142.2,44.8 L142.2,44.8 Z M145.7,60.9 L139.5,61.7 C139.9,60.5 140.1,59.3 139.9,58 C139.7,56.8 139.1,55.7 138.2,54.8 L144.3,53.3 L145.1,53.3 C146.3,54.2 147.1,55.3 147.4,56.7 C147.7,58.1 147.3,59.4 146.4,60.5 C146.3,60.8 146,60.9 145.7,60.9 L145.7,60.9 Z M109.6,12.3 L106.9,17.9 C106.1,16.8 105.2,16.2 104,15.7 L100.3,15.4 L102.2,9.6 C102.2,9.3 102.3,9.2 102.6,8.9 L106.7,8.8 C108.1,9.3 109,10.2 109.6,11.5 L109.6,12.3 L109.6,12.3 Z M115.3,12.7 C116.6,13.4 117.4,14.4 117.8,15.9 C117.8,16.2 117.8,16.4 117.6,16.7 L114.2,21.8 C113.5,20.7 112.6,19.8 111.6,19.2 C110.4,18.5 109.2,18.3 107.9,18.4 L110.7,12.8 C110.8,12.6 110.9,12.4 111.2,12.3 C112.7,11.8 114,12 115.3,12.7 L115.3,12.7 Z M101,9.3 L99.2,15.1 C98.3,14.2 97.2,13.6 96,13.3 L92.3,13.6 L93.2,7.5 L93.6,6.8 C94.8,6 96.2,5.8 97.6,6 C99.1,6.3 100.2,7.2 100.9,8.4 L101,9.3 L101,9.3 Z M125.2,21.3 L124.8,22.1 L120.7,26.7 C120.3,25.5 119.6,24.5 118.6,23.8 C117.5,22.9 116.3,22.5 115.1,22.4 L118.6,17.3 C118.7,17.1 118.9,16.9 119.3,16.9 C120.7,16.7 122.1,16.9 123.2,17.8 C124.3,18.7 125,19.9 125.2,21.3 L125.2,21.3 Z M130.3,24 C131.3,25 131.8,26.3 131.7,27.8 L131.3,28.5 L126.5,32.4 C126.3,31.2 125.7,30.2 124.8,29.2 C123.8,28.3 122.8,27.7 121.6,27.4 L125.8,22.9 C126,22.7 126.2,22.5 126.4,22.5 C128,22.5 129.3,23 130.3,24 L130.3,24 Z M66.8,15.4 L63,15.7 C61.8,16.2 60.8,16.8 60,17.9 L57.5,12.3 C57.3,12.1 57.3,11.8 57.4,11.5 C58,10.2 59,9.2 60.3,8.7 C61.8,8.2 63.1,8.3 64.4,8.9 L64.9,9.5 L66.8,15.4 L66.8,15.4 Z M73.8,7.5 L74.8,13.5 L71,13.3 C69.7,13.7 68.7,14.3 67.8,15.1 L66,9.2 C66,8.9 66,8.7 66.1,8.4 C66.8,7.2 68,6.3 69.4,6 C70.8,5.7 72.2,6 73.4,6.8 L73.8,7.5 L73.8,7.5 Z M59,18.3 C57.8,18.3 56.7,18.5 55.5,19.2 C54.3,19.8 53.4,20.7 52.8,21.8 L49.5,16.7 C49.3,16.3 49.2,16.1 49.3,15.8 C49.6,14.4 50.5,13.3 51.7,12.7 C53,11.9 54.3,11.8 55.8,12.3 L56.3,12.8 L59,18.3 L59,18.3 Z M91.2,13.4 C90.2,12.7 89,12.3 87.7,12.2 C86.5,12 85.3,12.3 84.1,12.9 L84.2,6.8 C84.2,6.5 84.3,6.3 84.5,6 C85.5,5 86.8,4.6 88.3,4.7 C89.8,4.8 91,5.4 91.9,6.6 C92.1,6.8 92.1,7 92.1,7.3 L91.2,13.4 L91.2,13.4 Z M82.9,6.8 L83,12.9 C81.9,12.3 80.7,12 79.3,12.2 C78.2,12.2 77,12.6 75.8,13.4 L75,7.3 C75,7.1 75.1,6.8 75.2,6.6 C76.1,5.4 77.3,4.8 78.8,4.7 C80.3,4.6 81.6,5 82.7,6 C82.8,6.3 83,6.5 82.9,6.8 L82.9,6.8 Z M35.6,38.9 L30.3,35.7 L29.9,35 C29.5,33.6 29.8,32.3 30.6,31.1 C31.5,29.9 32.7,29.3 34.2,29.1 C34.5,29 34.7,29.1 35,29.3 L39.8,33.2 C38.5,33.7 37.6,34.4 36.9,35.4 C36.1,36.5 35.7,37.7 35.6,38.9 L35.6,38.9 Z M35,39.8 C33.9,40.5 33,41.4 32.5,42.4 C31.9,43.5 31.6,44.8 31.8,46 L26,43.6 C25.8,43.4 25.5,43.3 25.5,43 C25,41.6 25,40.3 25.7,39 C26.4,37.8 27.4,36.9 28.9,36.5 L29.7,36.7 L35,39.8 L35,39.8 Z M29.2,50 C28.8,51.2 28.7,52.3 29,53.7 L23,52 L22.4,51.6 C21.6,50.3 21.5,48.9 22,47.6 C22.5,46.3 23.4,45.3 24.8,44.7 L25.5,44.7 L31.4,47 C30.3,47.8 29.6,48.8 29.2,50 L29.2,50 Z M21.3,60.8 C20.9,60.8 20.7,60.7 20.5,60.5 C19.6,59.3 19.3,58 19.5,56.6 C19.9,55.2 20.6,54 21.9,53.3 L22.7,53.2 L28.8,54.7 C27.9,55.7 27.3,56.7 27,57.9 C26.8,59.2 26.9,60.4 27.5,61.5 L21.3,60.8 L21.3,60.8 Z M145.8,62.1 L139.6,62.8 C140.3,63.6 140.6,64.5 140.8,65.6 L137.4,65.6 C136.8,52 131.6,40.4 121.7,30.8 C111.1,20.4 98.4,15.3 83.5,15.3 C73.6,15.3 64.7,17.5 56.7,22.1 L52.5,23 L50.9,23.5 L47.5,24.7 C47.8,24.3 48.1,23.9 48.5,23.7 C49.5,22.9 50.7,22.4 51.9,22.3 L48.5,17.3 C48.3,17 48.1,16.9 47.8,16.8 C46.3,16.6 45,16.9 43.8,17.8 C42.7,18.7 42,19.8 41.8,21.3 C41.8,21.6 42,21.8 42.2,22 L45.3,25.5 L44.2,26 L41.3,22.8 C41.1,22.7 40.8,22.5 40.5,22.4 C39,22.4 37.8,22.9 36.7,23.9 C35.7,25 35.3,26.3 35.4,27.8 C35.4,28 35.5,28.3 35.7,28.4 L39.9,31.9 L41,34.8 L41.2,35.2 C33.9,43.9 30,54 29.5,65.6 L26.2,65.6 C26.4,64.5 26.7,63.5 27.3,62.7 L21.1,62 C20.8,62 20.5,62 20.4,62.3 C19.3,63.1 18.6,64.3 18.5,65.6 L14,65.6 L-0.4,65.6 L-0.4,99.6 L23.3,99.6 L27.3,99.6 C27.4,100.2 27.6,100.8 28,101.3 C28.7,102.6 29.9,103.3 31.3,103.6 C31.6,103.6 31.9,103.6 32.1,103.4 L37.2,99.9 L36.6,99.6 L39.8,99.6 C41.5,101.7 43.3,103.8 45.3,105.7 C55.8,116 68.5,121.3 83.5,121.3 C98.4,121.3 111.1,116 121.7,105.7 C123.7,103.8 125.4,101.7 127.1,99.6 L130.3,99.6 L129.7,99.9 L134.8,103.5 L135.6,103.7 C137.1,103.3 138.2,102.6 138.9,101.4 C139.3,100.8 139.6,100.3 139.7,99.6 L143.7,99.6 L166.8,99.6 L166.8,65.6 L152.9,65.6 L148.4,65.6 C148.3,64.3 147.7,63.3 146.6,62.3 L145.8,62.1 Z M104.9,107.9 L104.9,108.6 L102.6,108.6 C102.3,108.6 102,108.4 101.8,108 L101.2,106.8 C100.9,106.2 100.5,105.9 100.1,105.9 L98.4,105.9 L98.4,106.9 L98.5,107.5 L99.2,107.8 L99.4,107.8 L99.4,108.6 L95.4,108.6 L95.4,107.8 L95.5,107.8 L96.3,107.6 L96.5,106.9 L96.5,103.8 L96.3,103.1 C96.3,102.9 96,102.9 95.6,102.8 L95.4,102.8 L95.4,102 L100.4,102 L102.4,102.3 C103.4,102.5 103.9,103 103.9,103.8 C103.9,104.8 103.3,105.3 102.3,105.4 L102.2,105.5 L102.3,105.5 C102.9,105.7 103.4,106.2 103.8,107 L104.1,107.6 C104.2,107.8 104.5,107.9 104.9,107.9 L104.9,107.9 Z M72,103.8 C72,104.3 71.6,104.8 70.8,105.1 C71.8,105.3 72.3,105.8 72.3,106.7 C72.3,107.4 72,107.9 71.4,108.2 L69,108.6 L63.5,108.6 L63.5,107.8 L64.3,107.6 L64.5,106.9 L64.5,103.8 L64.4,103.2 L63.8,102.9 L63.5,102.8 L63.5,102 L69.3,102 C70.2,102 70.9,102.1 71.3,102.4 C71.8,102.7 72,103.1 72,103.8 L72,103.8 Z M93.1,102 L93.1,103.9 L92.5,103.9 L91.8,103.1 C91.6,102.9 91.3,102.8 90.8,102.8 L88.1,102.8 L88.1,105 L88.8,105 L89.7,104.8 L89.8,104.3 L90.6,104.3 L90.6,106.4 L89.8,106.4 L89.6,105.8 L88.2,105.6 L88.1,105.6 L88.1,107.7 L91.2,107.7 C91.5,107.7 91.8,107.6 92,107.3 L92.2,106.8 L93.1,106.8 L93.2,108.6 L85.1,108.6 L85.1,107.8 L85.2,107.8 C85.5,107.8 85.7,107.6 85.8,107.5 L85.8,106.9 L85.8,103.8 L85.8,103.2 L85.3,102.9 L85.1,102.8 L85.1,102 L93.1,102 L93.1,102 Z M82.5,103.9 L81.8,103.9 L81.2,103.1 C81,102.9 80.6,102.8 80.2,102.8 L77.4,102.8 L77.4,105 L78.2,105 L79,104.8 L79.2,104.3 L80,104.3 L80,106.4 L79.2,106.4 C79.2,106.1 79.1,105.9 78.9,105.8 L77.6,105.6 L77.4,105.6 L77.4,107.7 L80.5,107.7 C80.8,107.7 81.2,107.6 81.3,107.3 L81.5,106.8 L82.5,106.8 L82.5,108.6 L74.4,108.6 L74.4,107.8 L74.6,107.8 L75.1,107.5 L75.2,106.9 L75.2,103.8 L75.2,103.2 C75.1,103 74.9,102.9 74.6,102.9 L74.4,102.8 L74.4,102 L82.5,102 L82.5,103.9 L82.5,103.9 Z M101.6,104 C101.6,104.9 101.2,105.3 100.2,105.3 L98.4,105.3 L98.4,102.8 L99.8,102.8 C100.4,102.8 100.8,102.9 101.1,103.1 C101.4,103.4 101.6,103.7 101.6,104 L101.6,104 Z M68.4,102.8 C69.5,102.8 70,103.1 70,103.8 C70,104.6 69.5,104.9 68.6,104.9 L66.5,104.9 L66.5,102.8 L68.4,102.8 L68.4,102.8 Z M70,106.6 C70,107.3 69.5,107.7 68.5,107.7 L66.5,107.7 L66.5,105.5 L68.2,105.5 C69.4,105.5 70,105.9 70,106.6 L70,106.6 Z M37.8,100.8 C38,102 38.5,103.1 39.3,104.1 C40.2,105.1 41.2,105.8 42.4,106.1 L37.8,110.3 C37.6,110.6 37.4,110.7 37.2,110.6 C35.6,110.6 34.4,110 33.5,108.9 C32.5,107.8 32.2,106.5 32.4,105 C32.4,104.8 32.5,104.5 32.8,104.4 L37.8,100.8 L37.8,100.8 Z M44.6,116.4 L44,116.9 C42.5,117 41.2,116.6 40,115.6 C39,114.7 38.4,113.5 38.4,112 C38.4,111.7 38.5,111.4 38.7,111.3 L43.2,106.9 C43.5,108.2 44.2,109.2 45.2,110 C46.1,110.9 47.2,111.4 48.5,111.6 L44.6,116.4 L44.6,116.4 Z M45.1,124.3 C46.8,125.4 48.6,125.6 50.5,124.9 C51,126.9 52.086,128.303 54,129.1 C56,129.933 59.5,128.9 59.5,128.9 C60.2,130.8 61.5,132.1 63.5,132.6 C65.4,133.1 67.2,132.8 68.8,131.7 C69.9,133.4 71.4,134.4 73.3,134.7 C75.3,135 77.1,134.4 78.6,133.1 C79.7,134.3 80.8,135.1 82.2,135.3 L82.2,135.3 L71.8,181.7 L52.7,170.7 L29.3,169.1 L41.2,119.8 L42.4,119.8 C42.5,121.7 43.4,123.3 45.1,124.3 L45.1,124.3 Z M56.3,116.8 C57,117.8 57.9,118.6 59,119.1 C60.2,119.7 61.4,119.8 62.8,119.7 L60.5,125.4 C60.5,125.4 60.102,125.937 59.9,126 C57.729,126.684 55.8,125.9 55.8,125.9 C54.5,125.3 53.6,124.3 53.2,122.8 C53,122.6 53.1,122.3 53.3,122.1 L56.3,116.8 L56.3,116.8 Z M49.3,112.3 C49.9,113.5 50.7,114.4 51.8,115.1 C52.8,115.8 54,116.2 55.3,116.2 L52.2,121.5 C52,121.8 51.8,121.9 51.6,122 C50.1,122.3 48.8,122.1 47.5,121.3 C46.3,120.6 45.6,119.4 45.3,117.9 C45.3,117.7 45.3,117.4 45.6,117.2 L49.3,112.3 L49.3,112.3 Z M105.3,125.8 L105.3,126.6 C104.6,128 103.6,128.8 102.2,129.3 C100.8,129.7 99.5,129.5 98.1,128.8 L97.7,128.1 L96.3,122.1 C97.6,122.5 98.8,122.4 100,122.1 C101.2,121.8 102.3,121 103.1,120.1 L105.3,125.8 L105.3,125.8 Z M115.1,115.1 C116.2,114.4 116.9,113.5 117.5,112.4 L121.3,117.3 L121.5,118 C121.3,119.5 120.5,120.6 119.3,121.4 C118.2,122.1 116.8,122.4 115.3,122 L114.7,121.5 L111.6,116.3 C112.8,116.2 114.1,115.8 115.1,115.1 L115.1,115.1 Z M111.1,125.9 C109.7,126.6 108.3,126.6 106.9,126 L106.4,125.4 L104.1,119.8 C105.3,119.9 106.6,119.7 107.8,119.2 C108.9,118.6 109.8,117.8 110.6,116.8 L113.6,122.1 L113.7,122.9 C113.3,124.3 112.4,125.3 111.1,125.9 L111.1,125.9 Z M134.5,105.1 C134.8,106.5 134.3,107.8 133.4,108.9 C132.4,110 131.3,110.6 129.8,110.8 C129.5,110.8 129.3,110.7 129,110.4 L124.4,106.2 C125.6,105.8 126.7,105.2 127.6,104.2 C128.3,103.3 128.8,102.1 129,100.8 L134.1,104.4 L134.5,105.1 L134.5,105.1 Z M126.8,115.7 C125.8,116.6 124.4,117 122.9,116.9 L122.3,116.5 L118.3,111.7 C119.7,111.5 120.8,110.9 121.8,110.1 C122.7,109.3 123.3,108.3 123.7,107 L128.2,111.3 L128.5,112 C128.4,113.5 127.8,114.8 126.8,115.7 L126.8,115.7 Z M127.2,119.7 L140,167.8 L117.1,170.7 L95.4,182.3 L85.6,138.3 L86.3,135 C87.1,134.6 87.8,133.9 88.4,133.1 C89.8,134.4 91.6,135 93.6,134.7 C95.6,134.4 97.1,133.4 98.1,131.6 C99.7,132.8 101.5,133.1 103.5,132.6 C105.4,132.1 106.8,130.8 107.4,128.9 C108.3,129.4 109.2,129.6 110.2,129.6 L112.9,129.1 C114.8,128.3 115.9,126.9 116.3,124.9 C118.3,125.6 120.2,125.4 121.8,124.3 C123.6,123.3 124.4,121.7 124.6,119.8 L127.2,119.7 L127.2,119.7 Z M69.2,128.1 L68.8,128.8 C67.5,129.5 66.1,129.6 64.7,129.3 C63.3,128.8 62.3,127.9 61.6,126.6 C61.5,126.4 61.5,126.1 61.6,125.8 L63.8,120.1 C64.6,121 65.7,121.7 66.9,122.1 C68.2,122.4 69.4,122.4 70.6,122.1 L69.2,128.1 L69.2,128.1 Z M78.2,129.5 L77.8,130.2 C76.7,131.1 75.4,131.5 74,131.3 C72.5,131.1 71.3,130.3 70.5,129.1 C70.3,128.9 70.3,128.6 70.3,128.3 L71.7,122.3 C72.7,123.2 73.8,123.7 75.1,123.9 C76.4,124 77.6,123.9 78.8,123.4 L78.2,129.5 L78.2,129.5 Z M95.2,122.3 L96.5,128.3 C96.6,128.6 96.5,128.9 96.3,129.1 C95.5,130.4 94.3,131.1 92.9,131.3 C91.5,131.5 90.2,131.1 89,130.2 C88.8,130.1 88.7,129.8 88.7,129.5 L88.2,123.4 C89.3,123.9 90.6,124.1 91.8,123.9 C93.1,123.7 94.2,123.2 95.2,122.3 L95.2,122.3 Z M83.5,131.9 C82,131.9 80.8,131.4 79.8,130.3 L79.5,129.6 L79.9,123.4 C81.1,124.1 82.3,124.5 83.5,124.5 C84.8,124.5 85.9,124.1 87.1,123.4 L87.5,129.6 L87.2,130.3 C86.2,131.4 85,131.9 83.5,131.9 L83.5,131.9 Z" id="Shape" fill="#102C73"></path>
                <path d="M154.6,104 C154.9,104 155.192,103.79 155.1,103.4 C155.061,103.237 154.8,102.8 154.8,102.8 L154.1,102.8 L153.1,102.8 L153.1,102.9 L153.2,102.9 C153.3,102.9 153.3,103 153.3,103 L153.3,105 L153.1,105.1 L153,105.1 L153,105.3 L154.2,105.3 L154.2,105.1 L154,105.1 L153.9,104.9 L153.9,104.3 L154.3,104.4 L154.8,105.3 L155,105.3 L155.4,105.3 L155.4,105.1 L154.6,104.1 L154.6,104 L154.6,104 Z M154,103.8 L153.9,103.8 L153.9,103.3 L154.1,103.2 C154.4,103.2 154.6,103.3 154.6,103.5 C154.6,103.8 154.3,103.8 154,103.8 L154,103.8 Z M155.8,102.4 C155.3,101.9 154.8,101.7 154.2,101.7 C153.5,101.7 152.9,101.9 152.4,102.4 C152,102.8 151.8,103.4 151.8,104.1 C151.8,104.8 152,105.3 152.4,105.8 C152.9,106.3 153.5,106.5 154.2,106.5 C154.8,106.5 155.3,106.3 155.8,105.8 C156.3,105.3 156.5,104.8 156.5,104.1 C156.5,103.4 156.3,102.8 155.8,102.4 L155.8,102.4 Z M155.5,105.5 C155.2,105.8 154.7,106 154.2,106 C153.6,106 153.2,105.8 152.8,105.5 C152.4,105.1 152.2,104.6 152.2,104.1 C152.2,103.5 152.4,103.1 152.8,102.7 C153.2,102.3 153.6,102.1 154.2,102.1 C154.7,102.1 155.2,102.3 155.5,102.7 C155.8,103.1 156.1,103.5 156.1,104.1 C156.1,104.6 155.8,105.1 155.5,105.5 L155.5,105.5 Z" id="Shape" fill="#102C73"></path>
            </g>
            <g id="Group" transform="translate(11.000000, 179.000000)" sketch:type="MSShapeGroup">
                <path d="M-0.1,11.1 L7.3,17.3 C8.4,18.5 10.4,19.8 12.9,21.4 C13.8,22.3 15,23.3 16.4,24.2 L16.2,24.5 C11.1,22.2 6.7,19.8 3.2,17.2 L1.9,16.6 L9.3,21.5 C12.3,23.1 14.9,24.4 17.4,25.3 L16.2,26 L11.1,24.6 C9.2,24 7.6,23.3 6.3,22.7 L6.3,22.8 C8.5,24.1 11.7,25.3 15.9,26.4 C17.1,27.6 18.6,28.5 20.6,29.1 L23.3,29.7 L23.4,30 L23.3,30.1 L18.6,29.7 L16.6,29.4 C18.1,30 20.4,30.4 23.3,30.6 C23.8,30.8 24.4,31.1 25.2,31.6 L27.3,32.6 L29.9,33.2 L29.5,33.6 L28.5,33.7 C26.9,34 25.2,34 23.6,33.7 L22.9,33.6 C23.8,34 24.9,34.1 26.3,34.2 L30,34 C31.5,35.2 33.5,36 36.1,36.2 L39,36.1 L38.5,36.7 L29.5,36.5 L38.9,37.2 C40.5,38.2 42.5,38.7 44.9,38.7 C47.1,38.7 49.1,38.1 51,37.1 L57.1,38.5 L56.8,38.7 L50.5,38.5 C48.4,38.7 46.5,39.6 45.1,41 C43.4,42.7 43,44.7 44,47 C44.7,48.2 45.8,49 47.3,49 C48.8,49.2 49.9,48.8 50.8,48.2 C51.1,47.8 51.3,47.4 51.3,47 C51.2,46.7 51.1,46.4 50.9,46.2 L47.5,46.5 C47,46.5 46.6,46.2 46.4,45.8 C46,45.3 46,44.5 46.3,43.7 C46.8,42.3 47.9,41.5 49.4,41 L53,40.5 L55,40.8 C54.6,41.2 54.3,41.6 54,42 L53.5,43.4 L54.5,43.9 C53.8,44.7 53.2,45.8 52.8,47.1 L54.7,48.2 L56.9,48.8 C56.9,49 57,49.2 57,49.3 C57.6,50 58.6,50.2 60.2,50.3 L61.6,50.3 L62,51 L64.8,50.7 C65.8,50.3 66.7,49.7 67.3,49 C67.3,49.7 67.4,50.3 67.7,50.7 L70,50.1 C71.1,49.7 71.9,49.1 72.5,48.3 L74,50.2 L74.8,49.5 L75.7,48.2 L76.6,47.5 L77.8,45.8 C78.6,44.7 79,43.6 78.8,42.5 L79.4,43 L80,42.9 C80.3,42.7 80.6,42.2 80.8,41.7 C81,40.3 80.8,39.2 79.8,38 L83.5,37.7 C85.1,37.9 86.5,38.4 87.8,39.2 L85.7,40.4 C85.3,40.7 85.2,40.9 85.2,41.2 C85.2,41.4 85.3,41.5 85.7,41.7 C85.3,42 85,42.5 84.8,43 C84.5,43.6 84.4,44.1 84.4,44.5 L84.9,44.6 C84.4,45 84,45.6 83.9,46.2 C83.8,46.9 83.8,47.5 84,48 L85.3,48.2 C84.8,49.5 84.8,50.9 85,52.4 C85.5,52.5 86.2,52.3 87.2,51.7 C88,51.2 88.7,50.6 89,49.8 L89.8,50.3 C90.2,50.5 90.5,50.3 90.6,50.1 L90.8,48.8 C91.1,48.4 91.4,48.1 91.8,48 C92.3,48.2 92.5,48.5 92.2,49 L91.3,50.2 L88.7,52.4 C87.6,53 86.3,53.2 84.7,53.2 C83,53 82,52.3 81.3,51.3 C81,50.6 81,50 81.4,49.7 L82.4,49.1 C83,48.7 83.3,48.2 82.9,47.3 C82.5,46.5 81.8,46.2 80.9,46.5 C80,46.8 79.2,47.3 78.6,48.1 C77.8,49.2 77.7,50.7 78.3,52.3 C78.7,53.3 79.5,54.2 80.8,54.9 C82.1,55.7 83.6,56 85.3,56.1 L88.9,55.6 C89.5,55.4 90.2,55 91.1,54.5 L91.4,54.7 L91.8,54.7 C91.6,55.2 91.1,55.7 90.3,56.1 L90.8,56.9 L89.6,57.8 C89.2,58.2 89,58.7 89,59 C89.3,59.7 90.5,59.9 92.4,59.9 L94.6,59.8 C95.3,59.4 96,58.9 96.5,58.4 C96.7,58.7 96.8,58.8 97.1,58.8 C97.6,58.9 98.3,58.5 99.1,57.7 C100,57 100.5,56.2 100.8,55.4 L101.2,56 L101.8,56.4 L102.3,55.9 L102.8,55.3 L104,52.7 C104.4,52.9 104.8,53 105,53 L105.1,53 C105.4,53.4 106,53.9 106.8,54.5 C107.7,55.1 108.4,55.5 109,55.7 L112.5,56.1 C114.2,56 115.7,55.7 117.1,54.9 C118.3,54.2 119.1,53.3 119.4,52.3 C120.1,50.7 120,49.2 119.2,48.1 C118.6,47.3 117.8,46.8 116.9,46.5 C115.9,46.2 115.3,46.5 114.9,47.3 C114.6,48.2 114.7,48.7 115.3,49.1 L116.4,49.7 C116.8,50 116.8,50.6 116.4,51.3 C115.8,52.3 114.8,53 113.1,53.2 C111.1,53.3 109.3,52.7 108,51.5 C108.7,51.8 109.2,51.9 109.3,51.7 L109.6,50.8 C110.4,51.8 111.5,52.5 112.8,52.5 C113.5,52.5 113.8,52.2 113.5,51.7 C113.2,51.4 113.1,51 113,50.5 L112.8,49.1 L113.8,49.1 C113.8,47.7 113.5,46.5 113,45.6 C113.4,45.6 113.9,45.7 114.5,46 L114.5,45.5 C114.3,44.2 113.5,42.7 112.1,40.9 L112.7,40.5 C112.5,39.8 112,39.3 111.3,39 C112.6,38.2 113.9,37.8 115.5,37.7 L118.9,38 C117.9,39.1 117.6,40.3 117.9,41.7 C118.1,42.2 118.3,42.7 118.7,42.9 L119.3,43 L119.8,42.5 C119.7,43.6 120.1,44.7 120.8,45.8 L122.1,47.5 L122.9,48.2 L123.9,49.5 L124.7,50.2 C124.8,49.9 125.1,49.6 125.4,49.2 L126.2,48.3 C126.8,49.1 127.6,49.7 128.6,50.1 L131,50.7 C131.3,50.3 131.3,49.7 131.3,49 C132,49.7 132.8,50.3 133.8,50.7 L136.7,51 L137.1,50.3 L138.5,50.3 C140.1,50.2 141.1,50 141.6,49.3 L141.8,48.8 L143.9,48.2 L145.9,47.1 C145.4,45.8 144.9,44.7 144.2,43.9 C144.3,43.8 144.7,43.7 145.2,43.4 L144.6,42 C144.3,41.6 144.1,41.2 143.6,40.8 L144.2,40.6 L145.6,40.5 L149.3,41 C150.8,41.5 151.8,42.3 152.4,43.7 C152.7,44.5 152.7,45.3 152.3,45.8 C152.1,46.2 151.7,46.5 151.1,46.5 L148.1,46.2 L147.8,46.2 C147.6,46.4 147.5,46.7 147.4,47 C147.4,47.4 147.6,47.8 147.9,48.2 C148.4,48.6 149.2,48.9 150.1,49 L151.4,49 C152.8,49 153.9,48.2 154.7,47 C155.7,44.7 155.3,42.7 153.5,41 C152.1,39.6 150.3,38.7 148.2,38.5 C146.7,38.2 144.8,38.3 142.8,38.5 L141.9,38.7 L141.6,38.5 L142.6,38.3 L147.7,37.1 C149.5,38.1 151.6,38.7 153.8,38.7 C156.2,38.7 158.2,38.2 159.8,37.2 L169.1,36.5 L160.1,36.7 L159.7,36.1 L162.6,36.2 C165.1,36 167.2,35.2 168.7,34 L172.3,34.2 L175.8,33.6 L175,33.7 C173.4,34 171.8,34 170.1,33.7 L169.1,33.6 L168.8,33.2 L171.3,32.6 L173.4,31.6 C174.3,31.1 174.9,30.8 175.3,30.6 C178.3,30.4 180.6,30 182.1,29.4 L180.1,29.7 L175.4,30.1 L175.3,30 L175.3,29.7 L178,29.1 C180,28.5 181.6,27.6 182.8,26.4 L184.6,26 C187.9,25 190.5,24 192.4,22.8 L192.3,22.7 C191.1,23.3 189.4,24 187.5,24.6 L184.3,25.5 L182.5,26 L181.3,25.3 L183.5,24.5 L189.3,21.5 L196.8,16.6 L195.5,17.2 C192.2,19.6 188.1,22 183.3,24.1 L182.4,24.5 L182.2,24.2 L183,23.7 L185.8,21.4 C188.3,19.8 190.2,18.5 191.4,17.3 L198.7,11.1 L197.5,12 C193.4,15.5 189.7,18.4 186,20.6 C186.5,19.7 186.8,18.8 186.8,18.1 L186.8,17.6 L193.1,12.1 C195.5,9.8 197.3,7.9 198.7,6.1 L197.8,6.8 C196.3,8.6 194.5,10.3 192.4,12.1 L186.2,17.3 C184.2,17.3 182.2,18.1 180,19.5 L177.9,21 L178.3,19.7 L179.6,18.9 C181.2,17.9 183,16.5 185.3,14.7 C188.3,12.2 190.7,10 192.4,7.9 L190.9,9.2 C189.3,10.9 186.8,13.1 183.2,15.8 L182.8,16.1 L190.9,5 L191.6,3.8 L190.7,4.8 C188.2,8.5 186,11.2 184.3,13.1 L184.6,9.7 L190,1.8 L191.1,-0.1 L184.2,9.3 C182.8,9.5 181.6,10.1 180.3,11.1 C181.3,9.9 182.2,8.3 183.1,6.3 L185.9,0.1 L185.3,1 L181.9,7.8 C180.6,10.2 179.1,12.4 177.4,14.2 L177.1,12.3 C179.1,9.5 180.8,5.9 182.3,1.6 C182.3,1.6 182.3,1.5 182.2,1.6 C180.9,4.8 179.2,8.3 176.7,12.1 C176.1,12.2 175.6,12.5 175.2,12.7 L174.6,13.1 C173.9,13.6 173.3,14.1 172.8,14.9 L172.8,14.2 L174.6,11.8 L176.3,9.1 L174.3,11.5 L172.3,14.1 C171.4,14.5 170.7,14.9 170.2,15.4 C169.6,15.8 168.9,16.6 168.2,17.6 L168.1,17.3 L167.9,17.2 L171.4,12.7 L171.8,12.1 L171.1,12.7 L167.3,17.3 C166.3,17.6 165.3,18.1 164.6,19 L162.7,21.4 L162.7,20.9 L167.3,14.5 C165.2,16.6 163.5,18.7 162.1,20.9 C160.9,21.1 160.1,21.5 159.4,22 C159.5,21.7 160.2,20.8 161.4,19.3 L163.8,16.8 L162.4,18.1 L156.5,24.2 C155.7,24.3 154.7,24.8 153.7,25.6 C152.7,26.3 151.9,27.2 151.3,28.2 L149.7,31.3 L148.3,33 C147.8,33.7 147.3,34.5 147.2,35.1 L141.2,36.4 L139.5,36.7 L139.1,36.2 L140.8,35.8 C142.3,35.5 143.6,35.1 144.5,34.6 C146.4,33.6 147.7,32.2 148.2,30.6 C148.4,29.8 148.4,29 148.2,28 C147.9,27.1 147.4,26.3 146.8,25.7 C145.9,24.6 144.6,24.2 142.7,24.3 C141.5,24.5 140.6,25.1 140.1,25.9 C139.4,27.1 139.3,28.1 139.8,29 C140,29.5 140.3,29.7 140.7,30 L141.9,30.1 C142.4,29.8 142.4,29.2 142,28.2 C141.7,27.3 141.9,26.8 142.8,26.6 C143.6,26.5 144.3,26.6 144.8,27.1 C145.6,27.8 145.9,28.6 145.9,29.1 C146.1,30.1 145.7,31.1 144.6,31.8 C144.1,32.2 143.2,32.6 141.8,33.1 L139.5,34 L137.6,34.2 C136.6,33.7 135.9,33.4 135.6,33.3 C135.9,32.7 136.1,31.8 136,30.6 C135.2,31.1 134.1,31.4 132.8,31.4 L128.9,31.1 C127.2,31.1 125.8,31.4 124.9,32 C124.9,31.5 124.8,31.2 124.6,31.2 L123.8,31.5 C122.8,31.9 121.8,32.6 120.9,33.8 C120.7,34.1 120.5,34.5 120.5,34.9 L120.5,36.1 C117.3,34.7 113.8,34.9 109.8,36.6 L108.9,37 C108.6,35.7 106.8,35.3 103.7,35.6 L104.3,34.6 L104,34.5 C102.5,34.2 101.3,34.5 100.2,35.1 C99.4,35.7 98.7,36.6 97.9,37.8 C96.8,36.8 95.4,36.1 93.8,35.8 C92,35.3 90.3,35.6 88.9,36.6 C84.9,34.9 81.3,34.7 78.2,36.1 L78.2,34.9 L77.8,33.8 C76.8,32.6 75.9,31.9 74.9,31.5 C74.1,31.1 73.8,31.2 73.8,32 C72.8,31.4 71.5,31.1 69.8,31.1 L65.9,31.4 C64.5,31.4 63.5,31.1 62.7,30.6 C62.6,31.8 62.8,32.7 63.1,33.3 C62.8,33.4 62.1,33.7 61.1,34.2 L58.8,33.8 L56.8,33.1 C55.5,32.6 54.6,32.2 54,31.8 C53,31.1 52.5,30.1 52.7,29.1 C52.8,28.6 53.1,27.8 53.8,27.1 C54.4,26.6 55.1,26.5 55.9,26.6 C56.8,26.8 57,27.3 56.7,28.2 C56.3,29.2 56.3,29.8 56.7,30.1 L58,30 L58.8,29 C59.3,28.1 59.2,27.1 58.6,25.9 C58,25.1 57.2,24.5 56,24.3 C54.1,24.2 52.7,24.6 51.8,25.7 C51.2,26.3 50.8,27.1 50.5,28 C50.3,29 50.3,29.8 50.5,30.6 C51.3,33.3 54.3,35.2 59.6,36.2 L59.2,36.7 L51.5,35.1 L50.4,33 L49,31.3 L47.4,28.2 C46.8,27.2 46,26.3 45,25.6 C44,24.8 43,24.3 42.1,24.2 C41.5,23.8 40.5,22.8 39.2,21.1 L36.3,18.1 L34.9,17 L37.2,19.3 C38.5,20.8 39.1,21.7 39.2,22 C38.5,21.5 37.7,21.1 36.5,20.9 C35.1,18.7 33.5,16.6 31.4,14.5 L36,20.9 L36,21.4 L34.1,19 C33.4,18.1 32.4,17.6 31.4,17.3 L27.5,12.7 C27.1,12.2 26.9,12 26.9,12.1 L27.2,12.7 L30.7,17.2 L30.6,17.3 L30.5,17.6 C29.8,16.6 29.1,15.8 28.5,15.4 C28,14.9 27.2,14.5 26.3,14.1 L22.4,9.1 L22.3,9.1 L25.9,14.2 L25.9,14.9 C25.3,14.1 24.7,13.6 24.1,13.1 C23.6,12.7 22.9,12.3 22,12.1 C19.5,8.3 17.7,4.8 16.5,1.6 C16.4,1.5 16.4,1.6 16.4,1.6 C17.9,6.1 19.6,9.6 21.6,12.3 L21.2,14.2 C18.6,11.2 15.9,6.8 13.4,1 L12.8,0.1 L15.6,6.3 C16.7,8.6 17.6,10.1 18.3,11.1 C17.1,10.1 15.8,9.5 14.5,9.3 C13.6,8.3 12.5,7 11.4,5.3 L8.4,0.9 L7.6,-0.1 L14.1,9.7 C14.1,10.8 14.1,12 14.4,13.1 C12.6,11.2 10.5,8.5 7.9,4.8 L7.1,3.8 L7.7,5 L15.9,16.1 L15.4,15.8 C11.9,13.1 9.4,10.9 7.8,9.2 L6.2,7.9 C8,10 10.4,12.2 13.4,14.7 C16.3,17.1 18.6,18.7 20.4,19.7 L20.7,21 C17.8,18.6 15.1,17.4 12.5,17.3 L6.2,12.1 C4.2,10.3 2.4,8.6 0.9,6.8 L-2.13162821e-14,6.1 C1.3,7.9 3.2,9.8 5.6,12.1 L11.9,17.6 L11.9,18.1 C11.9,18.8 12.1,19.7 12.6,20.6 C9,18.4 5.2,15.5 1.2,12 L-0.1,11.1 L-0.1,11.1 Z" id="Shape" fill="#102C73"></path>
                <path d="M140.4,38.4 L142.3,40.2 C141.8,40 141.3,40 140.8,40.5 L139.4,39.2 C139.4,39 139.8,38.7 140.4,38.4 L140.4,38.4 Z M142.3,44.2 L142.6,43.8 L143.1,43.8 L140.7,42.8 L141.5,44 C141.9,44.4 142.2,44.5 142.3,44.2 L142.3,44.2 Z M135.3,34.4 L134.8,34.5 C134.7,34.4 134.6,34.5 134.6,34.6 L134.7,34.7 L135.8,35 C136.3,35.1 136.5,35.2 136.6,35.6 L134.7,35 C133.9,34.6 133.4,34.8 133.1,35.5 L134.7,36.4 C135.3,36.8 135.8,37 136.2,37 L137.3,36.2 C137.7,35.8 137.8,35.6 137.6,35.3 C136.9,34.6 136.2,34.2 135.2,34 L135.3,34.4 L135.3,34.4 Z M140.8,40.9 C141,41.3 141.4,41.7 142.1,42 C142.9,42.4 143.4,42.7 143.7,43 L142.2,42.4 L140.6,42.2 L142.7,43.1 L144.3,43.2 C143.2,40.8 142.1,40 140.8,40.9 L140.8,40.9 Z M137.2,37 L138.2,37.3 C138.6,37.5 138.7,37.7 138.6,38 C137.6,37.5 136.9,37.2 136.4,37.3 L137.4,37.7 L138.3,38.2 L136.2,37.7 C136.2,38 136.3,38.2 136.6,38.4 C136.9,38.6 137.1,38.8 136.9,39 C138.1,39 139.2,38.7 140,38 L138.1,36.1 C137.9,36.1 137.7,36.2 137.6,36.5 L137.2,37 L137.2,37 Z M141.7,45 L139.7,42.3 L138.5,42.4 C138,42.5 137.8,42.7 137.9,43 L138.6,44.2 L137.8,44.5 C137.4,44.5 137.2,44.7 137.1,44.8 L137.8,45.7 L139.2,45.9 L141.7,45 L141.7,45 Z M133.2,43.8 C133.7,44.3 134.3,44.5 135.2,44.4 L137.3,43.8 C137.4,43.6 137.3,43.2 137.1,42.8 L135.7,41 L134.8,40.4 L133.8,40.4 C133.4,40.5 133.2,40.5 133.1,40.8 C133.3,41 133.7,41.3 134.3,41.5 C134.9,41.7 135.3,41.8 135.6,42.1 L133.3,41.8 L134.7,42.3 C135.3,42.5 135.8,42.7 136,43 L133.5,42.3 L133.6,43.2 C133.7,43.5 133.5,43.7 133.2,43.8 L133.2,43.8 Z M134.4,37.8 L134.6,37.6 L131.6,36.8 L131.5,36.6 L131.7,36.3 L132.3,35.9 L133.1,36.1 L135.4,37.3 C135.8,37.7 135.8,38 135.6,38.3 L132.1,38 C133.2,38.5 134.5,38.8 136.1,38.7 L135.7,39.3 C135.5,39.5 135.2,39.7 134.8,39.8 L132.9,40 C132.1,38.7 131.4,38 130.9,37.8 L131.6,37.7 L131.8,37.3 L134.4,37.8 L134.4,37.8 Z M134.4,37.3 L133.4,36.7 L132.3,36.6 L134.4,37.3 L134.4,37.3 Z M145.2,32.2 C144.6,32.7 143.6,33.2 142.3,33.7 L142.1,33.8 L138.2,34.9 L138.7,35.7 C143.9,34.6 146.8,32.8 147.5,30.5 C147.8,29.7 147.7,29 147.4,28.1 C147.2,27.3 146.8,26.7 146.3,26.2 C145.6,25.3 144.3,25 142.8,25 C141.8,25.2 141.1,25.6 140.7,26.2 C140.2,27.1 140.1,28 140.4,28.7 L141,29.3 L141.6,29.5 L141.4,28.6 C141.1,27.9 141.1,27.2 141.3,26.8 C141.5,26.3 141.9,26.1 142.6,25.9 L142.7,25.9 C143.7,25.7 144.6,26 145.3,26.5 L145.3,26.6 C146.2,27.4 146.6,28.2 146.7,29 C146.8,30.2 146.3,31.3 145.2,32.2 L145.2,32.2 Z M168.3,19 C168.4,18.5 168.8,17.9 169.2,17.3 L170.5,15.9 C171.1,15.4 171.6,15.1 172.2,14.9 L172.1,15.7 L170.6,18.7 C169.6,20.5 168.5,21.6 167.3,22.1 C167.4,21.1 168,20 168.9,19 L171.2,16.2 L171.1,16 C170.4,16.5 169.5,17.6 168.3,19 L168.3,19 Z M171.3,16.5 L168,21.3 L168.8,20.9 L171.3,16.5 L171.3,16.5 Z M175.4,14.7 L173.3,17.2 C172.5,18.2 172,19.2 171.9,20.1 L175.4,15.5 L175.7,15.4 L175.8,15.5 C174.5,17.6 173.3,19.3 172.1,20.4 L171.9,21.1 C172.7,20.5 173.5,19.6 174.3,18.3 C175.3,17 176,16.1 176.6,15.6 C176.8,14.2 176.7,13.3 176.4,12.8 C175.4,13.1 174.7,13.7 173.9,14.6 C173.3,15.3 172.8,16.2 172.6,17.1 L172.6,17.3 L175.1,14.5 C175.2,14.5 175.3,14.6 175.4,14.7 L175.4,14.7 Z M158.8,26.2 C159.8,25.4 160.6,24.8 161.3,24.5 L161.9,23.1 L162.1,21.6 C160.9,21.9 159.9,22.4 159,23.1 C158.1,23.9 157.3,24.8 156.9,25.7 L157.1,25.8 L159.6,23.3 C159.8,23.3 159.8,23.3 159.9,23.5 C158.2,25.1 157.1,26.3 156.7,27 L156.7,27.3 L159.3,24.3 L159.7,24.5 L156.6,28.1 L158.8,26.2 L158.8,26.2 Z M162.5,24.2 C163.9,22.3 164.8,21.2 165.3,20.8 L165.4,20.9 L163.3,23.9 C164.3,23.2 165.1,22 165.9,20.3 L166.3,20.6 L163.9,24.2 L164.2,24.4 L164.7,24 C165.6,22.3 166.3,21.1 166.8,20.4 L166.9,20.6 L165.3,23.6 C166.1,23.3 166.7,22.7 167,21.6 L167.6,18.8 C167.8,18.1 167.7,17.8 167.3,18 C166.3,18.3 165.3,19.1 164.3,20.3 C163.7,21.2 162.9,22.6 162.1,24.3 L162.5,24.2 L162.5,24.2 Z M168.7,25.6 L168.8,25 L165.8,28 C164.4,29.2 163.2,30 162.2,30.1 L162.2,29.8 C162.7,29.4 163.3,28.4 163.9,26.9 C164.4,25.6 165.2,24.6 166.1,24.1 C167.6,22.9 169.3,21.9 171.3,21.2 L171.3,21.7 L171.1,22.5 C170.7,24 169.9,25.2 168.8,26.4 C167.7,27.6 166.4,28.5 165.1,29 L168.7,25.6 L168.7,25.6 Z M167.9,24.3 L167.7,24.2 L163.3,29 C165.6,27.1 167.2,25.6 167.9,24.3 L167.9,24.3 Z M177,17.8 L176.9,17.5 C177.4,15.9 178.2,14.5 179.2,13.1 C180.4,11.7 181.8,10.8 183.3,10.3 L183.7,10.3 L183.8,10.6 C183.7,12.6 183.3,14.1 182.8,14.8 C181.4,16.8 179.9,18.1 178.2,18.7 C179.8,16.6 181.3,15.1 182.3,14.3 L181.3,14.4 L178.1,17.7 L177.4,17.8 L180.1,15.1 L179.9,15 C178.3,16.2 177.3,17.1 177,17.8 L177,17.8 Z M178.1,15.7 L178.8,15.3 L179.3,14.7 L178.1,15.7 L178.1,15.7 Z M163.4,26.7 L164.3,25.1 C164.4,24.9 164.2,24.8 163.6,24.8 C161.8,25.4 160.3,26.1 159,27 C157.3,28.1 156.4,29.3 156.2,30.8 L160.7,27 L160.7,27.4 L155.9,31.3 C155.8,31.3 155.7,31.5 155.7,31.6 L155.5,32.1 L160.8,27.8 L161.1,28.1 L158.2,30.6 C157.1,31.6 155.9,32.3 155,32.6 L155,32.8 C156.7,32.5 158.3,31.7 159.9,30.6 C161.5,29.5 162.7,28.1 163.4,26.7 L163.4,26.7 Z M171.9,18.2 L172.1,16.7 C171.6,17.8 170.8,19.2 169.8,20.8 L170.7,20.5 L171.4,19.7 L171.9,18.2 L171.9,18.2 Z M174.3,24.5 C173.4,25.1 171.8,25.8 169.5,26.8 L169.8,26.3 C170.1,25.8 170.8,25.1 172.1,24.1 C173.4,23.1 174.3,22.3 174.6,21.8 L173.9,22.2 L171.1,24.6 L171.8,22.8 L173.4,20.8 C174.1,20.1 174.8,19.6 175.7,19.2 L176.6,18.8 C176.8,18.6 177.2,18.5 177.4,18.5 L177.3,20.6 C176.9,22.1 175.8,23.5 174.3,24.5 L174.3,24.5 Z M172.9,24.6 L175.4,22.1 L176,20.8 L173.3,23.8 C172,25.1 170.9,25.9 170,26.4 C170.9,26.1 171.9,25.5 172.9,24.6 L172.9,24.6 Z M157.4,32.8 L156.9,33.2 L156.9,33.5 L160.4,33.1 L163.8,33.6 L157.1,33.8 C156.4,33.6 156,33.7 155.8,34.3 L156.2,34.2 L156.4,34 C158.8,34.2 161.5,34.1 164.4,33.7 L164.6,34 L160.8,34.5 L156.8,34.4 C158.5,35.2 160.4,35.6 162.5,35.5 C164.7,35.3 166.6,34.7 168.1,33.6 L167.7,33.3 C163.9,31.9 160.6,31.7 157.4,32.8 L157.4,32.8 Z M155.4,35 C157,35.2 158.3,35.7 159.1,36.6 C157.6,37.7 155.7,38.1 153.4,38 C151.3,37.8 149.4,37.2 147.8,36.3 L140.8,38 L140.2,37.3 L147.6,35.6 L147.8,35.3 C148.8,32.6 151.6,30.2 156.2,28.3 C156.2,29.1 155.9,30 155.5,31.1 C154.3,33.1 152.8,34.2 151,34.5 L154.8,31.3 L154.7,31.2 L150.7,34.1 L153.6,31.5 L153.4,31.3 L148.7,35 L149.4,35.1 L150.1,34.6 C150.2,34.8 150.3,35 150.6,35 C150.9,35 151.2,35 151.3,35.1 L155.4,35 L155.4,35 Z M155.6,36.6 L154.7,36.3 L149.5,36 C149.5,36.3 149.7,36.6 149.9,36.6 C152.2,37 154.1,37 155.6,36.6 L155.6,36.6 Z M148.7,39.2 C147,38.9 144.8,38.9 142.3,39.3 L143.2,40.2 L145.6,39.7 L149.5,40.2 C151.2,40.8 152.4,41.8 153.1,43.4 L153.1,43.5 C153.4,44.5 153.3,45.5 152.8,46.2 L152.9,46.2 C152.6,46.7 152.1,47.1 151.3,47.2 L148.281,46.81 C148.189,46.823 148.1,46.913 148.1,47.1 L148.4,47.6 L148.3,47.6 C149.1,48.2 150.1,48.4 151.3,48.3 C152.6,48.2 153.5,47.7 154.1,46.7 C154.9,44.7 154.6,43 153,41.5 C151.8,40.3 150.3,39.6 148.7,39.2 L148.7,39.2 Z M175.4,25.3 C174.4,25.4 173.6,25.7 172.9,26.1 L175.3,26.1 C176.3,25.9 177.2,25.9 177.7,26.1 L177.6,26.3 L177.3,26.3 L171.5,26.6 L170.1,27.5 L176.6,27 L176.3,27.2 L169.5,27.8 L169.3,28 L169.6,28.1 L175.6,27.8 L171.8,28.5 L172,28.6 L172.4,28.6 C175.4,29.5 178.6,28.8 181.8,26.4 C181.2,26 179.9,25.6 178.1,25.2 L175.4,25.3 L175.4,25.3 Z M168.2,29 C166.1,29.2 164.1,30 162.3,31.1 L161.4,31.3 L164.3,31.6 L164.3,31.2 L163.1,31 C163.2,30.8 163.3,30.8 163.4,30.8 L166.7,30.6 L169.4,31 L169.3,31.1 C167.9,30.8 166.4,30.8 164.7,31.1 L165.2,31.2 L169.8,31.6 L164.6,31.6 C166.3,32.9 168.7,32.9 172.1,31.6 C173.3,31 174.2,30.4 174.5,30 C172.6,29 170.5,28.7 168.2,29 L168.2,29 Z M183.3,18.6 C181,19.5 178.7,21.1 176.3,23.8 L175.6,24.3 C176.6,24.4 177.6,24.1 178.7,23.6 L181.5,21.8 L182.4,21.1 C182.8,20.8 183.1,20.7 183.3,20.8 L181.6,22.2 L181.8,22.5 C181.2,22.9 180,23.6 178.2,24.6 C179.9,24.6 181.6,24 183.3,22.7 C185,21.3 185.9,19.8 186.1,18.1 C185.2,18.1 184.2,18.2 183.3,18.6 L183.3,18.6 Z M139.9,47 L139.3,46.5 C138.9,46.3 138.7,46.3 138.3,46.5 L138.9,47.7 L140.1,48.4 L138.8,48 L137.7,48 L138.8,48.5 C139.3,48.6 139.6,48.8 139.7,49 L137.1,48.2 L136.3,48.3 L137.1,49.5 L139.1,49.6 C139.9,49.5 140.5,49.3 140.9,48.9 L140.5,48 L139.9,47 L139.9,47 Z M127.4,46.2 C127.3,46.3 127.1,46.6 127,47 L126.7,47.8 C127.1,48.3 127.6,48.8 128.3,49.2 L130.4,50 C130.6,49.5 130.6,48.7 130.4,47.7 C129.5,47.6 128.5,47.1 127.4,46.2 L127.4,46.2 Z M144,44.7 C143.7,44.2 143.3,44.2 143,44.4 L142.8,44.7 L142.2,44.8 L143.1,45.5 C143.6,45.7 144,45.9 144.2,46 L144.3,46.3 L143.3,46 L142.4,45.9 L143.6,46.7 L142.5,46.3 L141.5,45.7 L141,46 L142.6,46.8 L143.2,47.3 L140.4,46.1 L139.8,46.3 L140.9,47.7 C141.3,48.2 141.8,48.2 142.5,47.9 L144.1,47.2 L143.8,47 L145.1,46.7 L144,44.7 L144,44.7 Z M126.5,46.2 L124.6,49 C124.1,48.7 123.8,48.2 123.7,47.5 L123.6,45.7 C123.9,45.8 124.1,46.2 124.1,46.7 L124.3,47.7 C124.6,47.8 124.7,47.7 124.6,47.3 C124.4,46.8 124.4,46.5 124.6,46.3 C123.8,44.8 123.1,43 122.7,41 C122.6,40.9 122.6,40.7 122.7,40.4 C122.8,40.2 122.7,40 122.6,39.8 C121.9,40.2 121.6,40.9 121.3,41.8 L120.8,44.3 C120.6,44.2 120.5,44 120.5,43.5 L120.3,42.5 C120.3,42.5 120.4,42.3 120.6,42.1 C120.7,42 120.6,41.8 120.4,41.7 L119.6,41.8 L118.9,42.2 C118.5,41.2 118.4,40.3 118.7,39.5 L119.3,38.7 L120,38.1 L120,37.7 L119.7,37.5 C118.3,37 116.7,36.8 115.1,37 C113.4,37.2 111.9,37.7 110.6,38.5 C109.8,38.2 109.2,38 108.7,37.9 C110.7,36.8 112.7,36.2 114.8,36 C117.1,35.7 119.2,36.1 121,37 L121.3,36.8 L121.3,36.6 C121.2,36.2 121.2,35.8 121.2,35.2 C121.3,34.7 121.4,34.3 121.7,34 L122.8,32.8 C123.3,32.5 123.7,32.2 124.2,32.1 L124,32.8 C123.9,33.2 123.9,33.5 124,33.6 C125.2,32.3 126.9,31.7 129.3,31.8 C132.5,32.1 134.5,32 135.3,31.7 C135.3,32.1 135.1,32.6 134.7,33.1 C134.4,33.4 134.1,33.5 133.7,33.3 L132.6,33.5 L133.3,33.7 L134.1,33.7 L131.3,34 L132.3,34.3 L133.4,34.4 C133.3,34.6 133.2,34.6 133,34.6 C132.8,34.6 132.6,34.6 132.6,34.7 L132.8,34.9 C132.3,35.3 132,35.6 131.8,35.4 L130.3,35 C129.7,34.8 129.3,34.6 129.3,34.2 C127.4,34.1 125.9,34.8 124.6,36.2 C124.3,36.5 124.2,36.7 124.4,36.9 L124.8,36.8 L125.1,36.5 L128.7,36.4 C128.3,36.1 127.9,36.1 127.3,36.1 L125.8,36 C126.3,35.6 126.9,35.6 127.7,35.6 L129.7,35.9 L130.3,35.9 C129.8,35.6 128.9,35.3 127.6,35.2 L127.3,35.1 L129.4,35.1 L131.4,35.6 L130.3,36.3 L130.7,36.9 L130.8,37.1 L130.3,37.2 C129.9,37.2 129.7,37.3 129.4,37.5 C129.3,37.8 129.4,38 129.8,38.1 L130.5,38.2 C131.3,38.8 131.9,39.5 132.4,40.5 C132.8,41.3 133,42.2 132.9,43 L132.2,42.8 L131.7,42.3 L131.7,42.7 L131.6,43 L130.8,41.5 C130.7,41.7 130.8,42 130.9,42.4 C131.1,42.8 131.2,43.1 131,43.3 C130.7,43.2 130.4,42.9 130.3,42.4 C130.3,41.8 130.1,41.5 129.9,41.5 C129.8,41.7 129.8,42 129.9,42.5 L130.2,43.5 L129.8,43.5 C129.5,43.2 129.3,42.8 129.3,42.2 L128.8,40.8 C128.6,41.2 128.7,41.6 128.8,42.2 C129.1,42.7 129.2,43.2 129.1,43.5 C128.4,43.2 128,42.2 127.9,40.7 C127.6,40.7 127.4,41 127.6,41.6 L127.8,43 C127.5,42.8 127.3,42.5 127.3,42.2 L127.1,41.2 L127.1,40.3 C127.1,40 127,39.7 126.8,39.5 C126.5,39.9 126.5,40.5 126.7,41.2 C126.8,42 126.8,42.5 126.7,43 C127.1,44 127.1,45.1 126.5,46.2 L126.5,46.2 Z M121.8,39 L120.8,39.5 C120.4,39.6 120.2,39.7 120.1,40 L121,39.8 L121.8,39.2 L121.8,39 L121.8,39 Z M121.8,38.2 L121.7,38 L121.1,38.5 C121.1,38.3 121.1,38.2 121.2,37.9 L121.4,37.3 L121.1,37.7 L120.8,38.2 C120.3,38.5 119.9,38.7 119.5,38.8 C120.2,39 120.8,38.8 121.7,38.3 L121.8,38.2 L121.8,38.2 Z M122.7,34.5 C121.9,35 121.8,36 122,37.2 L122.3,37.3 C122,36.3 122.1,35.4 122.7,34.5 L122.7,34.5 Z M123.3,34.8 C123.1,35.1 122.9,35.6 122.8,36.1 C122.8,36.6 122.8,37.2 122.9,37.5 L123.1,36.8 L123.1,36.1 L123.3,35.5 L123.3,34.8 L123.3,34.8 Z M124.3,35.1 C124,35.3 123.8,35.6 123.7,36.1 C123.5,36.5 123.5,36.9 123.7,37.3 L123.8,37 C123.7,36.7 123.8,36.4 123.9,36.1 L124.3,35.1 L124.3,35.1 Z M125.6,39.9 C125.4,40 125.4,40.3 125.4,40.9 L125.6,41 L125.6,39.9 L125.6,39.9 Z M126.4,42 L126.2,40 L126.1,41 C126.1,41.5 126.2,41.8 126.4,42 L126.4,42 Z M133.6,46.9 C133.9,46.7 133.9,46.5 133.8,46.1 C133.6,45.3 133.1,44.5 132.2,43.7 L131,43.8 C130.6,43.8 130.2,44 130,44.2 L132.3,45.3 C133.1,46 133.1,46.1 132.3,45.7 L128.5,43.8 L128.2,44.1 C129.4,44.5 130.4,45.1 131.4,45.7 L131.9,46 L132.1,46.3 L127.8,44.2 C127.5,44.5 127.5,44.9 127.7,45.5 C129.1,46.8 130.8,47.3 132.8,47 L133.6,46.9 L133.6,46.9 Z M135.3,48.4 L134.2,48.2 L133.1,47.8 L131.4,47.7 L131.4,48.1 L133.6,49.7 C134.4,50.3 135.3,50.5 136.2,50.3 C136.3,50.2 136.4,49.9 136.4,49.7 L136.1,49 C135.9,48.7 135.7,48.5 135.3,48.4 L135.3,48.4 Z M54.3,43.2 L56,43.1 L58,42.2 L56.5,42.4 L55,43 C55.2,42.7 55.7,42.4 56.5,42 C57.3,41.7 57.7,41.3 57.8,40.9 C56.6,40 55.5,40.8 54.3,43.2 L54.3,43.2 Z M60.8,45.7 L61.6,44.8 C61.5,44.7 61.2,44.5 60.8,44.5 L60.1,44.2 L60.7,43 C60.8,42.7 60.7,42.5 60.2,42.4 L59,42.3 L57,45 L59.5,45.9 L60.8,45.7 L60.8,45.7 Z M60,35.7 L60.5,34.9 C59.5,34.7 58.5,34.5 57.4,34.1 L56.6,33.8 L56.5,33.8 L56.4,33.7 C55,33.2 54.1,32.7 53.5,32.2 C52.3,31.3 51.9,30.2 52,29 C52,28.2 52.5,27.4 53.3,26.6 L53.4,26.5 C54.1,26 55,25.7 56,25.9 L56.1,25.9 C56.8,26.1 57.2,26.3 57.3,26.8 C57.6,27.2 57.5,27.9 57.2,28.6 C57,29.1 57,29.5 57,29.5 L57.7,29.3 L58.2,28.7 C58.5,28 58.5,27.1 58,26.2 C57.6,25.6 56.9,25.2 55.9,25 C54.3,25 53.1,25.3 52.3,26.2 C51.8,26.7 51.5,27.3 51.2,28.1 C51,29 50.9,29.7 51.1,30.5 C51.8,32.8 54.8,34.6 60,35.7 L60,35.7 Z M56.3,44.2 C56.5,44.5 56.8,44.4 57.2,44 L58,42.8 L55.6,43.8 L56,43.8 L56.3,44.2 L56.3,44.2 Z M61.7,39 C61.6,38.8 61.7,38.6 62,38.4 C62.4,38.2 62.5,38 62.5,37.7 L60.4,38.2 C60.5,38 60.8,37.8 61.3,37.7 L62.2,37.3 L61.2,37.5 L60.1,38 C60,37.7 60,37.5 60.5,37.3 L61.5,37 C61.2,36.3 60.9,36.1 60.6,36.1 L58.7,38 C59.5,38.7 60.5,39 61.7,39 L61.7,39 Z M64.8,47.4 C64.2,47 64,46.5 64.2,46.1 L64.6,45.1 L63.3,45.2 L62.3,45 C62.2,45.3 61.9,45.7 61.3,46 C60.8,46.4 60.5,46.7 60.6,47.2 L64.8,47.4 L64.8,47.4 Z M67.1,36.8 L64,37.6 L64.2,37.8 L66.8,37.3 C66.8,37.5 66.8,37.7 67.2,37.7 L67.8,37.8 C67.2,38 66.5,38.7 65.7,40 L63.9,39.8 L63,39.3 L62.6,38.7 C64.2,38.8 65.5,38.5 66.5,38 L63,38.3 C62.8,38 62.9,37.7 63.3,37.3 L65.5,36.1 L66.3,35.9 L67,36.3 C67.1,36.4 67.2,36.5 67.2,36.6 L67.1,36.8 L67.1,36.8 Z M66.3,36.6 L65.3,36.7 C64.8,36.9 64.4,37.1 64.3,37.3 L66.3,36.6 L66.3,36.6 Z M62.8,39.8 L62.9,39.7 L62.3,39.3 L59.7,39.2 L58.6,40.5 C58.2,40.9 58,41.3 58.2,41.7 L59.8,41.8 L61.3,42.2 L61.8,41.3 L63,40.1 C61.8,40.5 60.8,40.7 60.1,41 L59.5,41.1 C59.8,40.8 60.3,40.6 61,40.4 L62.8,39.8 L62.8,39.8 Z M58.3,38.4 L56.4,40.2 C56.8,40 57.3,40 57.9,40.5 L59.2,39.2 C59.2,39 58.9,38.7 58.3,38.4 L58.3,38.4 Z M61.5,36.2 L62.5,37 C62.8,37 63.3,36.8 64,36.4 L65.5,35.5 C65.2,34.8 64.7,34.6 64,35 L62.1,35.6 C62.2,35.2 62.4,35.1 62.8,35 L64,34.7 L64.1,34.6 C64,34.5 64,34.4 63.8,34.5 L63.3,34.4 L63.5,34 C62.5,34.2 61.7,34.6 61.1,35.3 C60.8,35.6 61,35.8 61.5,36.2 L61.5,36.2 Z M65.6,40.8 C65.5,40.5 65.3,40.5 64.9,40.4 L63.8,40.4 L63,41 L61.6,42.8 C61.3,43.2 61.3,43.6 61.3,43.8 L63.5,44.4 C64.3,44.5 65,44.3 65.5,43.8 C65.2,43.7 65,43.5 65.1,43.2 L65.2,42.3 L62.7,43 C62.9,42.7 63.3,42.5 64,42.3 L65.3,41.8 L63.2,42.1 L64.3,41.5 C65,41.3 65.4,41 65.6,40.8 L65.6,40.8 Z M37.3,24.5 C38,24.8 38.9,25.4 39.9,26.2 L42.1,28.1 L39,24.5 L39.4,24.3 L42,27.3 L42,27 L40.5,25.1 L38.8,23.5 C38.8,23.3 38.9,23.3 39.1,23.3 L41.6,25.8 L41.7,25.7 C41.3,24.8 40.6,23.9 39.6,23.1 C38.7,22.4 37.7,21.9 36.5,21.6 L36.8,23.1 C36.9,23.7 37,24.1 37.3,24.5 L37.3,24.5 Z M28,20.5 L28.9,20.8 C27.8,19.2 27,17.8 26.6,16.7 L26.8,18.2 L27.3,19.7 L28,20.5 L28,20.5 Z M31.7,21.6 C32,22.7 32.5,23.3 33.4,23.6 L31.7,20.6 L31.9,20.4 L34,24 L34.5,24.4 L34.7,24.2 L32.3,20.6 L32.7,20.3 C33.5,22 34.4,23.2 35.4,23.9 L33.3,20.9 L33.4,20.8 L36.1,24.2 L36.6,24.3 C35.8,22.6 35,21.2 34.3,20.3 C33.4,19.1 32.4,18.3 31.4,18 C31,17.8 30.9,18.1 31,18.8 L31.7,21.6 L31.7,21.6 Z M26.6,15.7 L26.5,14.9 C27,15.1 27.6,15.4 28.1,15.9 L29.5,17.3 C29.9,17.9 30.2,18.5 30.3,19 L27.6,16 L27.5,16.2 L29.7,19 C30.6,20 31.2,21.1 31.3,22.1 C30.2,21.6 29.1,20.5 28,18.7 C27.2,17.4 26.8,16.4 26.6,15.7 L26.6,15.7 Z M27.4,16.5 L29.9,20.9 C30.1,21.2 30.4,21.4 30.6,21.3 L27.4,16.5 L27.4,16.5 Z M24.3,18.3 C25.1,19.6 26,20.5 26.7,21.1 L26.6,20.4 C25.4,19.3 24.1,17.6 22.9,15.5 L23,15.4 L23.2,15.5 L26.7,20.1 C26.6,19.2 26.1,18.2 25.3,17.2 L23.3,14.7 L23.5,14.5 L26,17.3 L26,17.1 C25.8,16.2 25.4,15.3 24.7,14.6 C24,13.7 23.2,13.1 22.3,12.8 C22,13.2 22,13.6 22,14.1 L22,15.6 C22.6,16.1 23.4,17 24.3,18.3 L24.3,18.3 Z M42.5,30.8 C42.2,29.3 41.3,28.1 39.6,27 C38.4,26.1 36.9,25.4 35,24.8 C34.5,24.8 34.3,24.9 34.3,25.1 L35.2,26.7 C36,28.1 37.1,29.5 38.7,30.6 C40.3,31.7 42,32.5 43.6,32.8 L43.6,32.6 C42.7,32.3 41.6,31.6 40.5,30.6 L37.5,28.1 L37.9,27.8 L40.4,30.1 C41.4,31 42.3,31.6 43.1,32.1 L43,31.6 L42.7,31.3 C42,30.9 41.1,30.3 40.3,29.5 L38,27.4 C37.9,27.2 38,27.1 38,27 L42.5,30.8 L42.5,30.8 Z M43.7,28.2 C44.1,28.5 44.5,28.6 44.9,28.6 L42.9,26.1 C43.1,26 43.4,26.1 43.6,26.3 C43.9,26.7 44,26.8 44.2,26.7 C44.8,27.1 45.5,27.7 46.1,28.6 C46.8,29.6 47.4,30.2 47.8,30.5 C46.4,27.6 44.6,25.7 42.4,24.9 C42.4,25.5 42.5,26.3 42.9,27.3 C43,27.7 43.3,28 43.7,28.2 L43.7,28.2 Z M43,33.6 C43.1,34.1 43.5,34.2 44,34.2 L45.4,34.1 C45,33.7 44.5,33.5 43.9,33.3 L42.3,32.9 L43,33.6 L43,33.6 Z M25.2,20.8 L26.9,22.8 L27.6,24.6 L24.8,22.2 L24.1,21.8 C24.4,22.3 25.2,23.1 26.5,24.1 C27.8,25.1 28.6,25.8 28.9,26.3 L29.1,26.8 C26.8,25.8 25.3,25.1 24.4,24.5 C22.8,23.5 21.8,22.1 21.3,20.6 L21.2,18.5 L22.1,18.8 L23,19.2 C23.9,19.6 24.5,20.1 25.2,20.8 L25.2,20.8 Z M22.6,20.8 L23.3,22.1 L25.7,24.6 C26.7,25.5 27.7,26.1 28.6,26.4 L25.5,23.8 L22.6,20.8 L22.6,20.8 Z M29.8,25 C29.7,25 29.8,25.2 30,25.6 L30.5,26.1 L33.6,29 C32.2,28.5 31,27.6 29.9,26.4 C28.8,25.2 28,24 27.5,22.5 L27.3,21.7 C27.3,21.6 27.3,21.4 27.4,21.2 C29.3,21.9 31,22.9 32.6,24.1 C33.5,24.6 34.2,25.6 34.8,26.9 C35.4,28.4 36,29.4 36.5,29.8 L36.5,30.1 C35.5,30 34.3,29.2 32.9,28 L29.8,25 L29.8,25 Z M30.7,24.3 C31.5,25.6 33,27.1 35.4,29 L31,24.2 L30.7,24.3 L30.7,24.3 Z M24.6,19.5 L22,16 C22.4,18 23.3,19.1 24.6,19.5 L24.6,19.5 Z M58.8,46.3 L58.2,46.1 L55.5,47.3 L56,46.8 L57.7,46 L57.2,45.7 L56.2,46.3 L55,46.7 L56.2,45.9 L55.3,46 L54.3,46.3 L54.5,46 L55.6,45.5 L56.5,44.8 L55.9,44.7 L55.7,44.4 C55.3,44.2 55,44.2 54.7,44.7 L53.5,46.7 L54.8,47 L54.6,47.2 L56.2,47.9 C56.8,48.2 57.3,48.2 57.8,47.7 C58.2,47 58.5,46.5 58.8,46.3 L58.8,46.3 Z M70.9,44.2 C69.5,45 68,45.7 66.6,46.3 L66.8,46 L67.3,45.7 C68.2,45.1 69.3,44.5 70.5,44.1 L70.2,43.8 L66.3,45.7 C65.5,46.1 65.5,46 66.3,45.3 L68.7,44.2 C68.5,44 68.1,43.8 67.7,43.8 L66.5,43.7 C65.6,44.5 65,45.3 64.9,46.1 C64.7,46.5 64.8,46.7 65.1,46.9 L65.9,47 C67.9,47.3 69.6,46.8 71,45.5 C71.2,44.9 71.2,44.5 70.9,44.2 L70.9,44.2 Z M65.5,47.8 L64.5,48.2 L63.3,48.4 C63,48.5 62.7,48.7 62.5,49 L62.3,49.7 C62.2,49.9 62.3,50.2 62.5,50.3 C63.3,50.5 64.3,50.3 65.1,49.7 L67.3,48.1 L67.2,47.7 L65.5,47.8 L65.5,47.8 Z M61.6,48.2 C61.3,48.2 61,48.3 60.3,48.7 L59,49 L59.8,48.5 L61,48 L59.8,48 L58.6,48.4 C58.9,48 59.3,47.8 59.7,47.7 L60.3,46.5 C60,46.3 59.7,46.3 59.4,46.5 C59.2,46.6 58.9,46.8 58.8,47 L58.2,48 C57.9,48.3 57.8,48.6 57.8,48.9 C58.2,49.3 58.8,49.5 59.5,49.6 L61.6,49.5 L62.3,48.3 L61.6,48.2 L61.6,48.2 Z M45.6,43.4 C46.3,41.8 47.5,40.8 49.2,40.2 L53,39.7 L55.5,40.2 L56.4,39.3 C53.8,38.9 51.6,38.9 50,39.2 C48.3,39.6 46.9,40.3 45.6,41.5 C44.1,43 43.8,44.7 44.6,46.7 C45.1,47.7 46,48.2 47.4,48.3 C48.6,48.4 49.5,48.2 50.3,47.6 L50.5,47.1 L50.5,46.8 L47.3,47.2 C46.5,47.1 46,46.7 45.8,46.2 C45.3,45.5 45.2,44.5 45.5,43.5 L45.6,43.4 L45.6,43.4 Z M71.2,46.2 C70.2,47.1 69.2,47.6 68.2,47.7 C68,48.7 68.1,49.5 68.3,50 L70.3,49.2 C71.1,48.8 71.6,48.3 72,47.8 L71.7,47 L71.2,46.2 L71.2,46.2 Z M77,45.4 L76.9,45.6 L76.7,45.7 L76.3,42.7 L76.1,42.7 C76,43.4 76,44.2 76.2,45.3 L76.2,46 L75.8,46.5 L75.7,44.2 C75.5,44.6 75.3,45.2 75.4,45.8 L75.4,47.5 C75.8,47.2 76.3,46.9 76.6,46.4 L77.5,45 C77.4,43.7 77,42.5 76.5,41.2 L77,45.4 L77,45.4 Z M78.2,41.7 L79,41.8 L79.8,42.2 C80.2,41.2 80.2,40.3 80,39.5 L79.4,38.7 C79.2,38.3 78.9,38.2 78.7,38.1 L78.7,37.7 L79,37.5 L84,37.1 C85.8,37.3 87.3,38 88.7,39 C89,38.7 89.7,38.5 90.6,38.3 C88.7,37.1 86.6,36.3 84.3,36 C81.8,35.7 79.6,36.1 77.7,37 L77.4,36.8 L77.3,36.6 C77.5,36.2 77.5,35.8 77.5,35.2 L77,34 L75.8,32.8 C75.4,32.5 75,32.2 74.5,32.1 L74.7,32.8 L74.7,33.6 C73.5,32.3 71.8,31.7 69.3,31.8 C66.2,32.1 64.2,32 63.3,31.7 C63.3,32.1 63.5,32.6 64,33.1 C64.2,33.4 64.5,33.5 65,33.3 L66.1,33.5 L65.3,33.7 L64.5,33.7 C64.8,34 65.3,34.1 66,34 L67.4,34 L66.3,34.3 L65.3,34.4 C65.3,34.6 65.5,34.6 65.7,34.6 L66.1,34.7 L65.9,34.9 L66.4,35.3 L66.8,35.4 L68.3,35 C69,34.8 69.3,34.6 69.3,34.2 C71.2,34.1 72.8,34.8 74.1,36.2 C74.4,36.5 74.5,36.7 74.3,36.9 L73.8,36.8 L73.6,36.5 L70,36.4 C70.3,36.1 70.8,36.1 71.3,36.1 L72.9,36 C72.4,35.6 71.8,35.6 71,35.6 L69,35.9 L68.3,35.9 C68.8,35.6 69.8,35.3 71,35.2 L71.3,35.1 L69.3,35.1 L67.2,35.6 L67.8,36 C68,36.1 68.3,36.2 68.3,36.3 L68,36.9 L67.9,37.1 L68.4,37.2 C68.8,37.2 69,37.3 69.2,37.5 C69.3,37.8 69.2,38 68.9,38.1 L68.2,38.2 C67.3,38.8 66.7,39.5 66.3,40.5 C65.8,41.3 65.7,42.2 65.8,43 L66.5,42.8 L67,42.3 L67,42.7 L67,43 L67.4,42.3 C67.5,42 67.7,41.7 67.8,41.5 L67.8,42.4 C67.5,42.8 67.5,43.1 67.7,43.3 C68,43.2 68.3,42.9 68.3,42.4 C68.4,41.8 68.5,41.5 68.8,41.5 L68.7,42.5 L68.5,43.5 L68.9,43.5 C69.2,43.2 69.3,42.8 69.4,42.2 C69.5,41.5 69.7,41.1 69.9,40.8 C70,41.2 70,41.6 69.8,42.2 C69.5,42.7 69.5,43.2 69.6,43.5 C70.3,43.2 70.7,42.2 70.8,40.7 C71.1,40.7 71.3,41 71.1,41.6 L70.9,43 L71.3,42.2 L71.6,41.2 L71.6,40.3 C71.5,40 71.7,39.7 71.9,39.5 C72.2,39.9 72.2,40.5 72,41.2 C71.8,42 71.8,42.5 72,43 C71.5,44 71.6,45.1 72.2,46.2 C72.5,47 73.1,47.9 74.1,49 C74.6,48.7 74.9,48.2 75,47.5 L75,45.7 C74.8,45.8 74.6,46.2 74.5,46.7 C74.5,47.2 74.5,47.6 74.3,47.7 C74.1,47.8 74,47.7 74.1,47.3 C74.2,46.8 74.2,46.5 74,46.3 C74.9,44.9 75.5,43.2 76,41 L76,40.4 C75.9,40.2 76,40 76.1,39.8 C76.7,40.2 77.1,40.9 77.3,41.8 L77.8,44.3 C78,44.2 78.2,44 78.2,43.5 L78.3,42.5 L78.1,42.1 C78,42 78,41.8 78.2,41.7 L78.2,41.7 Z M26.9,28.5 L23.1,27.8 L29.4,28.1 L29.1,27.8 L22.5,27.2 L22.1,27 L28.6,27.5 C28.5,27.3 28.3,27.1 28,27 L27.1,26.6 L21.4,26.3 L21,26.3 L20.9,26.1 C21.5,25.9 22.3,25.9 23.4,26.1 L25.8,26.1 C25.1,25.7 24.3,25.4 23.3,25.3 L20.6,25.2 C18.7,25.6 17.4,26 16.9,26.4 C20.1,28.8 23.2,29.5 26.3,28.6 L26.9,28.5 L26.9,28.5 Z M16.9,22.5 L17.1,22.2 L15.4,20.8 C15.7,20.6 16.3,21 17.1,21.8 L20,23.6 C21,24.1 22.1,24.4 23,24.3 L22.4,23.8 C19.9,21.1 17.6,19.5 15.4,18.6 C14.4,18.2 13.5,18.1 12.6,18.1 C12.7,19.8 13.6,21.3 15.4,22.7 C17.1,24 18.8,24.6 20.5,24.6 L16.9,22.5 L16.9,22.5 Z M15.9,14.8 C15.4,14.1 14.9,12.6 14.8,10.6 L14.9,10.3 L15.3,10.3 C16.9,10.8 18.3,11.7 19.4,13.1 C20.5,14.5 21.3,15.9 21.7,17.5 L21.6,17.8 C21.4,17.1 20.4,16.2 18.8,15 L18.6,15.1 L21.3,17.8 L20.6,17.7 L17.4,14.4 L16.3,14.3 C17.4,15.1 18.8,16.6 20.4,18.7 C18.7,18.1 17.2,16.8 15.9,14.8 L15.9,14.8 Z M19.4,14.7 L19.9,15.3 L20.6,15.7 L19.4,14.7 L19.4,14.7 Z M37.9,34.5 L34,34 L34.2,33.7 C37.1,34.1 39.8,34.2 42.3,34 L42.5,34.2 L43,34.3 L42.4,33.8 L34.9,33.6 L38.3,33.1 L41.8,33.5 L41.7,33.2 L41.2,32.8 C38.1,31.7 34.7,31.9 31,33.3 L30.5,33.6 C32.1,34.7 34,35.3 36.1,35.5 C38.3,35.6 40.1,35.2 41.8,34.4 L37.9,34.5 L37.9,34.5 Z M34,31.6 L28.9,31.6 L33.5,31.2 L34,31.1 C32.3,30.8 30.8,30.8 29.4,31.1 L29.3,31 L32,30.6 L35.2,30.8 C35.4,30.8 35.5,30.8 35.5,31 L34.4,31.2 L34.4,31.6 L37.2,31.3 L36.4,31.1 C34.5,30 32.6,29.2 30.5,29 C28.2,28.7 26.1,29 24.1,30 C24.5,30.4 25.4,31 26.6,31.6 C29.9,32.9 32.4,33 34,31.6 L34,31.6 Z M39.5,36.6 C40.4,35.7 41.6,35.2 43.3,35 L47.4,35.1 L48,35 L48.5,34.6 L49.3,35.1 L50,35 L45.3,31.3 L45.1,31.5 L48,34.1 C46.2,32.7 44.9,31.8 44,31.2 L43.9,31.3 L47.6,34.5 C45.8,34.2 44.3,33.1 43.1,31.1 C42.7,30 42.5,29.1 42.5,28.3 C47,30.2 49.9,32.6 50.8,35.3 L51,35.6 L58.5,37.3 L57.8,38 L50.9,36.3 C49.2,37.3 47.3,37.8 45.2,38 C43,38.1 41,37.7 39.5,36.6 L39.5,36.6 Z M43,36.6 C44.5,37 46.5,37 48.8,36.6 C49,36.6 49.1,36.3 49.1,36 L44,36.3 L43,36.6 L43,36.6 Z M116.8,47.2 L116.7,47.2 C116.1,47.1 115.7,47.2 115.6,47.7 C115.3,48 115.4,48.3 115.7,48.5 L115.9,48.6 C116.6,48.8 117.1,49.2 117.3,49.7 C117.5,50.3 117.4,51 117.1,51.7 C116.3,52.9 115.1,53.7 113.2,53.9 L113.1,53.9 C111.4,53.9 109.9,53.6 108.6,52.8 C107.7,52.2 106.6,51.3 105.5,50 C105.7,51 105.7,51.8 105.5,52.3 L107,53.8 L109,55 L112.3,55.4 C113.9,55.4 115.3,55.1 116.7,54.4 C117.8,53.7 118.6,53 118.8,52.1 L118.8,52 C119.3,50.8 119.3,49.7 118.8,48.8 C118.4,48.1 117.7,47.5 116.8,47.2 L116.8,47.2 Z M104.3,49.2 C104.8,50.5 105,51.5 104.7,52.2 L104.2,51.5 C104,51.2 103.7,51.2 103.5,51.2 C103.3,52.6 102.7,54 101.8,55.4 C101.5,55.3 101.3,55 101.2,54.5 C101.2,54.2 100.9,53.9 100.6,53.9 L99.8,55.8 L99.6,55.9 C99.6,54.4 99.5,53.2 99.2,52.2 L99,52.7 L99.2,56.7 L98.3,57.4 L98.5,55.3 C98.5,54.5 98.4,53.8 98.2,53.2 L99.7,50 C100.1,50.7 100.1,51.6 99.8,52.7 L99.8,53.5 C100.2,53 100.4,52.3 100.4,51.4 C100.3,50.6 100.2,49.8 100,49 C100.4,47.5 100.7,46.2 100.6,45.3 C100.8,45.3 101,45.7 101.1,46.2 L100.6,47.7 L101.3,46.5 C101.5,46.7 101.5,47.2 101.2,47.7 L100.8,48.7 L101.3,48 L101.7,47.2 C102,47.8 101.7,48.7 100.8,49.7 L100.7,50.1 C101.3,49.5 101.7,49 102.1,48.2 C102.1,48.5 102,49 101.7,49.5 L101,50.7 L100.8,51 L102.3,49.2 L102.3,50.6 C102.3,51.2 102.5,51.5 102.7,51.5 C102.8,50.2 102.8,49 102.4,47.7 C102.1,46.5 101.5,45.5 100.7,44.7 L100.1,42.3 L99.1,40.2 C96.8,40.1 94.5,41 92.3,43 L89.3,43 C88.3,43.3 87.5,43.8 86.6,44.4 L86.1,46.5 C85.9,47.3 85.3,47.7 84.5,47.5 C84.6,46 85.2,45 86.2,44.7 C85.8,44.1 85.5,43.9 85.2,44 C85.4,43 86,42.3 86.8,41.7 C86.8,41.4 86.8,41.3 86.4,41.3 C86.2,41.2 86.1,41.2 86.3,41 C87.9,39.9 89.8,39.2 91.8,38.8 L92,38.5 C91.1,37.8 90.3,37.3 89.7,37 C90.4,36.6 91.1,36.3 91.7,36.3 L92.7,38 C93.1,38.7 93.7,38.8 94.5,38.6 L97.5,39.7 L98,39.7 C98.1,39.5 98.1,39.4 98,39.2 L98,39 L98.7,37.8 C99.4,36.8 100.1,36.1 100.8,35.7 C101.5,35.2 102.4,35.1 103.3,35.1 L102.8,35.6 C102.6,35.9 102.6,36.1 102.8,36.3 L106.8,36.3 C107.6,36.5 108,36.7 108.2,37.3 L107,38 L109.6,38.7 C110.8,39.4 111.6,39.8 111.7,40.2 L110.8,40.3 C110.5,40.2 110.3,40.4 110.3,40.7 C111,40.8 111.6,41.2 112,41.8 L113.1,43.6 L113.6,45 C113,44.8 112.3,44.9 111.8,45.2 C112.3,45.8 112.8,46.8 113.1,48.4 L112.2,48 C111.9,47.9 111.7,48 111.5,48.3 C112,48.6 112.3,49.2 112.3,50 C112.3,50.9 112.5,51.5 112.8,51.8 C111.8,51.7 110.8,51 109.5,49.7 L109.6,48.2 L110.5,48.2 C109.8,46.7 108.8,45.1 107.6,43.7 C106.1,42 104.7,41 103.2,40.5 L104.8,39.5 C105.5,39 106.3,38.8 107,38.9 C107,38.7 106.8,38.6 106.5,38.5 L105.7,38.6 L106,37.8 L106.6,37.1 L106.3,37 C105.6,37.7 105,38.5 104.5,39.2 L105.7,36.8 L105.4,36.7 L103.6,39.8 C103.5,39.2 103.8,38.2 104.7,36.7 L104.6,36.7 C104.2,37.1 103.8,37.7 103.4,38.5 L102.5,40.5 L102.3,40.5 L103.5,36.7 C102.9,37.2 102.4,38.5 101.9,40.3 L100.8,40.2 C100.4,40.2 100.1,40.2 99.9,40.5 L103.2,41 C103.7,41.3 103.9,41.7 103.7,42.3 L103.7,43.2 C103.8,43.4 103.8,43.5 104,43.2 L104.2,41.7 C104.6,41.8 104.7,42.2 104.6,42.7 L104.2,44.4 C104.2,45 104.2,45.2 104.3,45.2 L105,42.2 L105.4,42.5 C105.2,43.7 105.2,44.7 105.4,45.5 L105.6,45.7 L105.8,42.6 C106.3,42.8 106.5,43.4 106.2,44.2 C105.8,45.2 105.8,46 106.2,46.3 L105.3,46.2 L104.5,46.3 C103.8,47 103.8,48 104.3,49.2 L104.3,49.2 Z M111,48.7 L110.7,48.7 L110.8,50.1 L110.9,50.5 L111,48.7 L111,48.7 Z M111.3,49.5 L111.5,50.9 L111.6,49.8 L111.3,49.5 L111.3,49.5 Z M106.1,41.7 L109.3,41.3 L111.3,41.8 C110.8,41.2 110,41 108.8,41.1 L106.1,41.7 L106.1,41.7 Z M101.1,39.7 L101.3,39.8 C101.2,39.4 101.3,38.8 101.6,38.2 L102.1,36.7 C101.5,37.5 101.1,38.5 101.1,39.7 L101.1,39.7 Z M100.2,39.9 L100.7,38.2 L100.7,37.8 C100.1,38.7 100,39.5 100.2,39.9 L100.2,39.9 Z M91.9,38 C91.7,37.4 91.3,37.1 90.8,37 C91.1,37.3 91.4,37.7 91.9,38 L91.9,38 Z M99.7,38.6 C99.6,38.6 99.4,38.7 99.3,39 L99.2,39.6 L99.4,39.8 L99.7,38.6 L99.7,38.6 Z M87.3,44.5 L86.5,49.8 C86.8,49.5 87.2,47.7 87.7,44.5 L88.2,44 C88.5,43.8 89,43.7 89.6,43.6 L88.7,47 C88.7,47.3 88.5,47.6 88.1,47.7 C88.7,46 88.9,44.8 89,44 L88.8,44 L87.5,48.3 C87.4,48.8 87.4,49.1 87.5,49 L87.9,48.4 L88.1,47.9 L88.3,48 L91,44.8 C92.1,43.6 93.1,42.7 94.2,42.2 L94.3,43.5 C92.6,44.7 91.5,45.7 90.8,46.7 L90.6,47.1 C92,45.7 93.2,44.7 94.2,44.1 L94.2,44.7 L90.8,47.8 C90.5,48 90.3,48.3 90.2,48.7 L90,49.7 L88.8,48.8 C88,50.3 87,51.3 85.5,51.7 C85.6,50.6 85.8,49.5 86,48.2 L86.9,44.7 L87.3,44.5 L87.3,44.5 Z M91.1,45.6 L93.8,43 L93.7,42.8 C92.2,44 91.3,44.8 91.1,45.6 L91.1,45.6 Z M91.1,52.8 C91.5,52.5 91.8,52.2 92.3,51.8 C92.7,51.7 92.8,51.5 92.8,51.3 L92.4,51 C92.1,51 92,50.7 92,50.5 L89.1,53 C87.8,53.7 86.3,53.9 84.7,53.9 L84.6,53.9 C82.8,53.7 81.5,52.9 80.8,51.7 C80.4,51 80.3,50.3 80.5,49.7 C80.7,49.2 81.1,48.8 81.8,48.6 L82.1,48.5 C82.4,48.3 82.5,48 82.3,47.7 C82.1,47.2 81.7,47 81.1,47.2 L81,47.2 C80.1,47.5 79.4,48.1 79,48.8 C78.5,49.7 78.5,50.8 79,52 L79,52.1 C79.3,53 80,53.7 81.1,54.3 C82.3,55 83.8,55.3 85.3,55.4 L88.8,55 L90.8,53.8 C90.6,53.6 90.7,53.2 91.1,52.8 L91.1,52.8 Z M95.9,48 L96.3,47 L96.4,45.8 C96.1,46 95.9,46.4 95.9,46.9 L95.9,48 L95.9,48 Z M96.9,46.5 L97.6,45.5 L97.1,45.5 C96.8,45.8 96.8,46.2 96.9,46.5 L96.9,46.5 Z M95.7,56.8 L95.2,58 L95.3,58.5 L94,59.2 L92.7,59.1 C91.4,59.3 90.4,59.2 89.8,58.7 L91.8,56.8 L91.2,56.3 C92.4,55.6 93.1,54.7 93.2,53.7 L92.5,53.9 L91.7,53.9 C91.5,53.7 91.6,53.3 91.8,53.1 L92.6,52.6 L93.3,51.7 L93.6,50.5 L93.1,50.5 L92.7,50.2 L93,48.9 C93.1,48.3 93.1,48 92.8,47.7 L92.1,47.3 L93.8,45.5 L93.7,46.1 C93.6,46.3 93.6,46.4 93.8,46.2 C94.5,45.3 94.8,44 94.6,42 C95.8,41.1 97.2,40.7 98.8,40.7 L99.7,42.7 L99.8,43.6 L98.1,44.8 L97.5,45 L96.8,44.9 L93.6,47.6 L94.1,47.5 L94.6,47.2 C94.7,48.2 94.5,49.5 93.9,50.7 L94.1,50.8 C94.6,50.4 94.8,49.7 94.9,48.9 L95.1,46.7 L95.5,46.5 L95.3,48.2 L94.9,50 L95.1,50.2 L95.5,49.7 L95.7,49 L95.9,49.3 L96.2,49.2 C96.3,48.2 96.8,47.2 97.5,46.2 C98.2,45.2 99.1,44.5 100,44 C100.3,45.7 100.1,47.5 99.3,49.2 C98.1,49.5 96.5,50.5 94.5,52.1 C94.1,52.5 93.9,52.7 94,53 C94,53.2 94.2,53 94.6,52.7 L95.3,52.1 C96.4,51.2 97.6,50.3 99,49.7 L99.3,49.8 C98.7,51.1 97.8,52.7 96.5,54.4 L95.1,55.8 L94.6,57.8 L95.3,56.7 C95.5,56.2 95.8,55.7 96,55.5 L95.7,56.8 L95.7,56.8 Z M93.6,50 C93.9,49.5 94.2,48.7 94.2,47.7 L94.1,47.7 L93.6,50 L93.6,50 Z M92.6,57.2 L91.1,58.7 L91.1,58.9 C91.8,58.7 92.2,58.2 92.6,57.2 L92.6,57.2 Z M93.2,57.8 L93.7,56.5 C93.5,56.7 93.2,57 93,57.5 L92.3,58.6 L92.3,58.8 L93.2,57.8 L93.2,57.8 Z M94.3,57.7 L94.7,56.1 L93.5,58.4 L93.2,58.7 C93.1,58.8 93.1,58.9 93.1,59 C93.7,58.7 94,58.3 94.3,57.7 L94.3,57.7 Z M91.7,43.2 C90.7,43 90.1,43.2 89.8,44 L89.3,46.1 L91.8,43.3 L91.7,43.2 L91.7,43.2 Z M44.3,27.2 L45.1,28.5 C45.5,29 45.9,29.3 46.3,29.5 C46,29 45.4,28.2 44.3,27.2 L44.3,27.2 Z M93.8,38.1 L93.3,37 C93.1,36.5 92.7,36.2 92.3,36.3 C92.6,37.2 93.1,37.7 93.8,38.1 L93.8,38.1 Z M97.7,39.5 C97.3,38.3 96.9,37.7 96.3,37.6 L96.8,38.7 C97,39.1 97.3,39.3 97.7,39.5 L97.7,39.5 Z M96.3,38.7 L95.8,37.5 C95.6,37.1 95.3,36.8 94.8,36.8 C95.2,38 95.7,38.7 96.3,38.7 L96.3,38.7 Z M95.1,38.3 L94.5,37.2 C94.3,36.6 94,36.4 93.5,36.5 L94,37.5 C94.3,38 94.6,38.3 95.1,38.3 L95.1,38.3 Z M106.3,48.8 L106.7,50 C106.9,50.4 107.2,50.7 107.7,50.7 C107.1,50.2 106.8,49.5 106.8,48.8 L106.2,47.5 C105.8,47 105.4,46.8 104.8,47 C104.6,47.5 104.7,48.1 105,48.7 L106.3,49.9 L106.3,48.8 L106.3,48.8 Z M96.3,57.3 C96.3,57 96.5,56.8 96.8,56.8 L96.8,54.8 C96.3,55.8 96,56.9 95.8,58 C96.1,57.9 96.3,57.7 96.3,57.3 L96.3,57.3 Z M97.1,57.5 L97.2,58 C97.3,58.2 97.3,58.2 97.5,58.1 L97.9,55.7 L98,53.3 L97.3,54 L97.1,57.5 L97.1,57.5 Z M108.8,50.9 L109,50 L109.2,48.3 C109.2,47.7 109.1,47.2 108.8,46.8 C108.7,47.2 108.6,47.7 108.6,48.4 L108.5,50.1 C108.3,49.5 108.2,48.8 108.3,48 L108.6,45.9 L108.3,45.4 L108,47.5 L107.6,48.7 L108,44.8 L107.7,44.5 L107.1,48 L107.7,49.5 C107.9,50.2 108.3,50.6 108.8,50.9 L108.8,50.9 Z M106.8,43.5 L106.5,44.1 C106.3,45.7 106.3,46.8 106.9,47.2 L106.9,46.3 L107.2,44.7 C107.3,44.1 107.2,43.7 106.8,43.5 L106.8,43.5 Z M133.9,47.4 L138.1,47.2 C138.2,46.7 137.9,46.4 137.3,46 C136.8,45.7 136.4,45.3 136.4,45 L135.4,45.2 L134.1,45.1 L134.5,46.1 C134.7,46.5 134.5,47 133.9,47.4 L133.9,47.4 Z M135.6,40.1 L136.8,41.3 L137.4,42.2 L138.8,41.8 L140.4,41.7 C140.6,41.3 140.5,40.9 140.1,40.5 L138.9,39.2 L136.3,39.3 L135.8,39.7 L135.8,39.8 L137.6,40.4 C138.3,40.6 138.9,40.8 139.2,41.1 L138.6,41 L135.6,40.1 L135.6,40.1 Z M122.8,46.5 L122.4,46 L122.5,45.3 C122.7,44.2 122.7,43.4 122.6,42.7 L122.3,42.7 L121.9,45.7 L121.8,45.6 L121.7,45.4 L122.1,41.2 C121.6,42.5 121.3,43.7 121.1,45 L122.1,46.4 L123.3,47.5 L123.3,45.8 L123,44.2 L122.8,46.5 L122.8,46.5 Z M154.4,26.7 C154.6,26.8 154.8,26.7 155.1,26.3 C155.3,26.1 155.5,26 155.8,26.1 L153.8,28.6 L154.9,28.2 L155.8,27.3 L156.3,24.9 C154.1,25.7 152.3,27.6 150.8,30.5 L152.6,28.6 C153.2,27.7 153.8,27.1 154.4,26.7 L154.4,26.7 Z M176.7,16 L174.1,19.5 C175.4,19.1 176.3,18 176.7,16 L176.7,16 Z M153.3,34.1 L154.6,34.2 C155.2,34.2 155.5,34.1 155.6,33.6 L156.4,32.9 L154.8,33.3 C154.2,33.5 153.7,33.7 153.3,34.1 L153.3,34.1 Z M153.5,28.5 L154.4,27.2 L152.4,29.5 L153.5,28.5 L153.5,28.5 Z" id="Shape" fill="#C4C4C4"></path>
            </g>
            <text id="Making" sketch:type="MSTextLayer" font-family="MachineScript" font-size="19" font-weight="normal" sketch:alignment="middle" line-spacing="19" letter-spacing="-0.164203435" fill="#FFFFFF">
                <tspan x="68.5" y="75">Making</tspan>
                <tspan x="68.5" y="96">sense of</tspan>
            </text>
            <text id="Unstructured" sketch:type="MSTextLayer" font-family="Gloucester MT Extra Condensed" font-size="33" font-style="condensed" font-weight="633" sketch:alignment="middle" letter-spacing="3.71" fill="#FFFFFF">
                <tspan x="29.5" y="118">Unstructured</tspan>
            </text>
            <g id="Making-Sense-of-+-" transform="translate(66.000000, 4.000000)" font-weight="normal" letter-spacing="-0.143678159" sketch:type="MSTextLayer">
                <text id="Data-Science-since-b" font-family="Contribute_FREE-version" font-size="11.0769231" sketch:alignment="right" fill="#C5091F">
                    <tspan x="17.8508993" y="11">Data Science since before it was hip</tspan>
                </text>
                <text id="" font-family="Curlz MT" font-size="10.8" sketch:alignment="middle" fill="#B60018">
                    <tspan x="143.326038" y="11"></tspan>
                </text>
            </g>
            <path d="M87.568688,125.993093 L87.568688,125.631896 C87.568688,125.562434 87.6647055,125.527704 87.8567435,125.527704 L91.1130222,125.527704 C92.9499066,125.527704 94.4987109,125.943308 95.7594815,126.774529 C97.0202522,127.60575 97.650628,128.954438 97.650628,130.820634 C97.650628,131.783832 97.4606803,132.704181 97.0807793,133.58171 C96.7008782,134.459238 96.0913757,135.136476 95.2522535,135.613444 C94.4131313,136.090412 93.0000039,136.328893 91.012829,136.328893 L87.7941227,136.328893 C87.6438322,136.328893 87.568688,136.289532 87.568688,136.210809 L87.568688,135.856558 C87.568688,135.754681 87.6730549,135.662068 87.8817918,135.578714 C88.1907223,135.449053 88.3451853,135.268456 88.3451853,135.036918 L88.3451853,126.812733 C88.3451853,126.576564 88.207421,126.405229 87.9318883,126.298721 C87.6897536,126.201476 87.568688,126.0996 87.568688,125.993093 Z M91.2382637,126.35429 L91.2382637,135.523145 C92.0732112,135.523145 92.7202857,135.412009 93.1795068,135.189732 C93.6387279,134.967456 93.9727019,134.481233 94.1814387,133.731051 C94.3901756,132.980868 94.4945425,132.11956 94.4945425,131.147101 C94.4945425,130.095919 94.4152237,129.262395 94.2565836,128.646504 C94.0979436,128.030613 93.8996466,127.566387 93.6616866,127.25381 C93.4237265,126.941234 93.129412,126.720119 92.778734,126.590458 C92.4280561,126.460796 91.9145711,126.382075 91.2382637,126.35429 Z M104.745212,126.896086 L104.61997,126.423751 C104.578223,126.270936 104.55735,126.185269 104.55735,126.166745 C104.55735,126.120438 104.61997,126.081077 104.745212,126.048662 L106.861793,125.49992 C106.895191,125.490658 106.932763,125.486027 106.974511,125.486027 C107.091403,125.486027 107.166547,125.527704 107.199945,125.611057 L110.606514,135.029972 C110.66496,135.20131 110.738017,135.324023 110.825686,135.398115 C110.913356,135.472207 111.08243,135.550929 111.332914,135.634283 C111.524952,135.699113 111.62097,135.773204 111.62097,135.856558 L111.62097,136.162186 C111.62097,136.273325 111.541651,136.328893 111.383011,136.328893 L107.199945,136.328893 C106.974509,136.328893 106.861793,136.273325 106.861793,136.162186 L106.861793,135.856558 C106.861793,135.750051 106.995383,135.659752 107.262566,135.58566 C107.588195,135.488414 107.751008,135.356439 107.751008,135.189732 C107.751008,135.143425 107.742658,135.090172 107.725959,135.029972 L107.199945,133.578236 L103.931142,133.578236 L103.405128,134.974403 C103.38008,135.034603 103.367556,135.078594 103.367556,135.106379 C103.367556,135.245302 103.555416,135.398114 103.931142,135.564822 C104.173277,135.67596 104.294343,135.773204 104.294343,135.856558 L104.294343,136.162186 C104.294343,136.273325 104.173277,136.328893 103.931142,136.328893 L101.313595,136.328893 C101.021364,136.328893 100.87525,136.273325 100.87525,136.162186 L100.87525,135.800989 C100.87525,135.703743 100.967093,135.625022 101.150781,135.564822 C101.49311,135.449053 101.718542,135.252248 101.827085,134.974403 L104.745212,126.896086 Z M105.596854,129.125785 L104.294343,132.689135 L106.861793,132.689135 L105.596854,129.125785 Z M119.203996,126.333452 L119.203996,135.036918 C119.203996,135.277717 119.362633,135.458314 119.679913,135.578714 C119.897,135.657437 120.005541,135.750051 120.005541,135.856558 L120.005541,136.169133 C120.005541,136.27564 119.897,136.328893 119.679913,136.328893 L115.772379,136.328893 C115.58869,136.328893 115.496847,136.280271 115.496847,136.183025 L115.496847,135.856558 C115.496847,135.754681 115.605389,135.662068 115.822475,135.578714 C116.139755,135.453683 116.298393,135.273087 116.298393,135.036918 L116.298393,126.333452 L115.74733,126.333452 C115.338206,126.333452 115.035542,126.41912 114.83933,126.590458 C114.643117,126.761796 114.465693,127.139197 114.307053,127.722672 C114.290354,127.801395 114.202686,127.840756 114.044046,127.840756 L113.555604,127.840756 C113.271722,127.840756 113.129783,127.773611 113.129783,127.639319 L113.129783,125.618003 C113.129783,125.460558 113.263373,125.381836 113.530556,125.381836 C113.697546,125.381836 113.993947,125.400359 114.419771,125.437405 C115.104428,125.497605 115.622087,125.527704 115.972765,125.527704 L120.406314,125.527704 C120.63175,125.509181 120.907278,125.483712 121.232908,125.451297 C121.733876,125.40962 122.009405,125.388782 122.059502,125.388782 C122.284937,125.388782 122.397654,125.446666 122.397654,125.562435 L122.397654,127.639319 C122.397654,127.773611 122.289112,127.840756 122.072026,127.840756 L121.596108,127.840756 C121.40407,127.840756 121.289267,127.810657 121.251694,127.750457 C121.214121,127.690257 121.153589,127.53976 121.070094,127.29896 C120.919803,126.900715 120.76534,126.640239 120.6067,126.517524 C120.44806,126.394809 120.168357,126.333452 119.767582,126.333452 L119.203996,126.333452 Z M127.801477,126.896086 L127.676236,126.423751 C127.634489,126.270936 127.613615,126.185269 127.613615,126.166745 C127.613615,126.120438 127.676235,126.081077 127.801477,126.048662 L129.918059,125.49992 C129.951456,125.490658 129.989029,125.486027 130.030776,125.486027 C130.147669,125.486027 130.222813,125.527704 130.256211,125.611057 L133.662779,135.029972 C133.721225,135.20131 133.794282,135.324023 133.881952,135.398115 C133.969621,135.472207 134.138696,135.550929 134.38918,135.634283 C134.581218,135.699113 134.677235,135.773204 134.677235,135.856558 L134.677235,136.162186 C134.677235,136.273325 134.597916,136.328893 134.439276,136.328893 L130.256211,136.328893 C130.030775,136.328893 129.918059,136.273325 129.918059,136.162186 L129.918059,135.856558 C129.918059,135.750051 130.051648,135.659752 130.318831,135.58566 C130.644461,135.488414 130.807273,135.356439 130.807273,135.189732 C130.807273,135.143425 130.798924,135.090172 130.782225,135.029972 L130.256211,133.578236 L126.987408,133.578236 L126.461393,134.974403 C126.436345,135.034603 126.423821,135.078594 126.423821,135.106379 C126.423821,135.245302 126.611681,135.398114 126.987408,135.564822 C127.229542,135.67596 127.350608,135.773204 127.350608,135.856558 L127.350608,136.162186 C127.350608,136.273325 127.229542,136.328893 126.987408,136.328893 L124.369861,136.328893 C124.077629,136.328893 123.931515,136.273325 123.931515,136.162186 L123.931515,135.800989 C123.931515,135.703743 124.023358,135.625022 124.207047,135.564822 C124.549375,135.449053 124.774807,135.252248 124.883351,134.974403 L127.801477,126.896086 Z M128.65312,129.125785 L127.350608,132.689135 L129.918059,132.689135 L128.65312,129.125785 Z" id="DATA" fill="#C4C4C4" sketch:type="MSShapeGroup"></path>
        </g>
    </g>
</svg>