<?xml version="1.0" encoding="utf-8"?>
<!-- Generator: Adobe Illustrator 14.0.0, SVG Export Plug-In . SVG Version: 6.00 Build 43363)  -->
<!DOCTYPE svg PUBLIC "-//W3C//DTD SVG 1.1//EN" "http://www.w3.org/Graphics/SVG/1.1/DTD/svg11.dtd">
<svg version="1.1" xmlns="http://www.w3.org/2000/svg" width="250px" height="281.42px" viewBox="0 0 220.4 248.1">
<rect fill="#FFF" width="100%" height="100%"/>
<path fill="#C5091F" d="M0,0v248.1h220.4V0H0z M3.9,244.1L3.8,3.8h0.1l24.175,34.481l0,0L172.3,244.1H3.9z M216.6,234.5L52.9,3.8
	h163.7V234.5z"/>
<path fill="#C5091F" d="M201.7,17.1v1.3l0.6,0.6H200l0.6-0.6v-1.2h-3.1l1-1.6c0.8-1.3,1.1-2.5,1.1-3.7c0-0.1,0.2-0.2,0.8-0.2
	c0.4,0,0.4,0.2,0.3,0.7l-1.9,4h1.7l0.1-3.1l0.5-0.1c0.3,0.1,0.5,0.2,0.5,0.4c-0.2,0.9-0.2,1.8,0,2.8h0.9V17L201.7,17.1z M196.3,13.6
	l-0.5-0.4l-0.5,0.1v3.1h-1.8c0.9-1.6,1.6-2.9,1.9-4c0.2-0.5,0.1-0.7-0.2-0.7c-0.6,0-0.9,0.1-0.9,0.2c0,1.2-0.3,2.4-1,3.7l-1,1.6h3
	v1.2l-0.5,0.6h2.3l-0.7-0.6v-1.3l0.8-0.1l0.1-0.6h-1C196.2,15.4,196.2,14.5,196.3,13.6z M186.3,18.5v-6.7c0-0.2-0.1-0.3-0.2-0.1
	l-1.8,0.8c-0.1,0,0,0.1,0.1,0.2l0.9,0.2l-0.2,5.6l-0.6,0.3c-0.2,0.1-0.2,0.2,0.2,0.2h2.2l-0.1-0.2L186.3,18.5z M191.7,16.8
	c0.2,0.5,0.2,0.9-0.1,1.3l-1.4,0.9c-0.8,0.3-1.5,0.2-2.4-0.4c-0.6-0.4-0.8-1.1-0.6-1.8c0.1-0.4,0.6-1,1.4-1.8l-0.8-0.8
	c-0.2-0.3-0.4-0.6-0.3-0.9c-0.1-0.3,0.1-0.6,0.4-1c0.4-0.3,0.7-0.5,1.2-0.6c0.7-0.2,1.2-0.1,1.8,0.3c0.4,0.5,0.6,1,0.4,1.5l-0.6,0.8
	l-0.8,0.6C190.8,15.7,191.3,16.3,191.7,16.8z M188.6,13.7l0.7,0.8l1.1-1c0.2-0.3,0.2-0.7-0.1-1c-0.2-0.3-0.5-0.5-1-0.4
	c-0.4,0.1-0.6,0.3-0.9,0.7C188.3,13,188.3,13.3,188.6,13.7z M190.7,16.9l-1.5-1.4c-1.1,1-1.4,1.8-0.9,2.5c0.5,0.5,1,0.8,1.5,0.7
	s0.8-0.3,1-0.7C190.9,17.6,190.9,17.3,190.7,16.9z M182.7,17.8c0.1,0.2,0,0.5-0.4,0.8c-0.6,0.4-1.2,0.7-1.6,0.8
	c-0.4,0-0.8-0.1-1.1-0.4l-0.7-0.7c0,0-0.646,0.506-0.9,0.6c-0.493,0.182-1.582,0.187-2.1,0.1c-0.133-0.022-0.5-0.2-0.5-0.2
	c-1.1,0.5-1.8,0.6-2.3,0.2c-0.6-0.4-1-1.2-1.2-2.2l-0.7,2.2l-0.6,0.2c-0.3,0-0.5-0.1-0.5-0.3l-0.9,0.1c-0.4-0.1-0.6-0.2-0.6-0.6
	l-0.5,0.1l-0.5,0.4h-1.3l-0.3-0.4l-0.2-0.1c0,0-0.429,0.405-0.6,0.5c-0.207,0.116-0.666,0.262-0.9,0.3c-0.395,0.064-0.6-0.3-0.9-0.7
	c-0.3,0.6-0.7,0.8-1.3,0.8c-0.5-0.1-0.8-0.4-1-0.7l-0.4-1.5l-0.1-0.1l-0.3,0.2c-0.5,1.4-1.2,2.1-2.2,2.1c-0.6-0.2-0.9-0.5-1.1-0.8
	c-0.5,0.5-0.9,0.7-1.4,0.7c-0.3-0.1-0.5-0.3-0.7-0.6l-0.3-0.7l-1.1,1.1l-1.1,0.2c-0.4-0.1-0.6-0.4-0.7-0.8c-0.6,0.6-1.3,0.9-1.9,0.8
	c-0.5-0.1-0.7-0.5-0.7-1.3l0.3-1.7l0.4-1l0.5-0.7c0.4,0,0.6,0,0.8,0.2l-0.2,0.8l-0.5,0.8l-0.3,1.1c-0.2,0.4-0.2,0.8-0.1,1.1l0.3,0.2
	l0.4-0.2l0.9-1c0.6-2.2,1.1-3.7,1.5-4.3c0.2-0.5,0.6-0.9,1-1.1l0.7-0.1l0.5,0.3c0.1,0.5,0,1.1-0.2,1.7l-2.5,3.4v1l0.4,0.1l0.6-0.5
	l1.1-1.7l0.8-1.6l0.6-0.2c0.2,0.1,0.4,0.2,0.3,0.3l-0.9,2.5v1c0.1,0.2,0.3,0.3,0.6,0.1c0.4-0.2,0.7-0.8,1-1.6l0.6-2l0.6-0.1
	c0.3,0.1,0.4,0.1,0.4,0.2l-0.6,2.1c-0.3,0.8-0.3,1.4-0.2,1.5l0.4,0.2l0.4-0.2c0.6-1.2,0.9-2.2,0.7-3.3c0-0.3,0.3-0.4,0.8-0.4
	c0.4,0.1,0.5,0.5,0.2,1.4v0.2c0.4,0.1,0.7,0,0.9-0.3l0.5-0.8c0.6-0.5,1-0.6,1.5-0.6h0.8l0.5-0.2h0.4l0.1,0.5l-0.7,2.2
	c-0.1,0.8-0.2,1.2-0.1,1.4c0.3,0.2,0.6,0.1,0.9-0.3l1.6-3.5c0-0.1,0.1-0.2,0.4-0.2l0.4,0.1l0.1,0.4l-0.7,2.1
	c-0.2,0.8-0.3,1.2-0.2,1.3c0.5,0.1,1-0.2,1.3-0.8l1.1-2.9l0.3-0.1l0.5,0.1c0.2,0,0.2,0.1,0.2,0.4l-0.7,1.7c-0.2,0.6-0.3,1.1-0.2,1.5
	c0.1,0.3,0.5,0.1,1-0.2l0.5-1l0.8-3.3c0.4-1.2,1-1.9,1.7-2c0.6,0,0.9,0.3,0.9,0.9c0,0.5-0.5,1.2-1.4,2.1c0,0,1.587-0.183,2,0.1
	c0.45,0.309,0.4,0.9,0,1.3c-0.4,0.5-1,0.7-1.6,0.7c-0.1,0.1-0.1,0.3,0.1,0.8c0.1,0.4,0.3,0.7,0.4,0.7c0.2,0,0.503,0.131,0.8,0
	c0.153-0.068,0.6-0.3,0.6-0.3c0-1.5,0.4-2.5,1.2-2.9c0.9-0.5,1.6-0.6,2.3-0.5c0.5,0.3,0.5,0.7,0.1,1.4c-0.5,0.6-1.3,0.8-2.4,1
	c-0.1,0.1-0.1,0.4-0.1,0.8c0.1,0.4,0.5,0.6,1.1,0.6l0.8-0.3l0.7-0.7l0.6-1.6c0.4-0.7,1-1.1,1.8-1.2c0.5,0,0.9,0.1,1.2,0.4
	c0.3,0.3,0.2,0.7-0.1,1.2c-0.6,0.6-1.4,1-2.3,1c-0.2,0.4-0.3,0.6-0.1,1c0.3,0.4,0.7,0.5,1,0.4l1-0.6
	C182.3,17.8,182.5,17.8,182.7,17.8z M180.1,16.9c0.5,0,0.9-0.1,1.3-0.6c0.4-0.2,0.4-0.5,0.4-0.8l-0.9-0.1
	C180.4,15.8,180.2,16.3,180.1,16.9z M176.4,16.6l0.7-0.1l0.7-0.2c0.3-0.3,0.5-0.5,0.5-0.8c-0.1-0.3-0.4-0.3-0.8-0.2
	C176.9,15.6,176.6,16,176.4,16.6z M153,15.9l1.3-1.6c0.4-0.9,0.5-1.4,0.4-1.5c-0.3-0.3-0.6,0-1,0.9C153.3,14.4,153.2,15.2,153,15.9z
	 M163.7,15.3c-0.2-0.2-0.4-0.3-0.7-0.1c-0.7,0.4-1.2,1-1.3,1.8c-0.1,0.8,0,1.3,0.4,1.6c0.3,0.2,0.7-0.1,1-0.8l0.6-1.2
	C163.8,16.2,163.8,15.7,163.7,15.3z M172.4,14.6l0.9-1.1c0.3-0.5,0.4-0.7,0.1-0.8c-0.2-0.1-0.5,0.1-0.7,0.6L172.4,14.6z M173.6,16.3
	c0.3-0.5,0.5-0.8,0.2-1c-0.4-0.4-1,0-1.6,1.1L173.6,16.3z M150.7,20.3c-0.2,0.3-0.9,0.4-2.1,0.2c-0.8-0.1-1.2-0.4-1.4-0.8
	c-0.2-0.3-0.3-0.8-0.3-1.4c0.2-1.5,0.8-3.5,2-5.6c0-0.2-0.3,0-1.1,0.5c-0.6,0.5-1.3,1.4-2,2.6c0.1,1.3,0,2.2-0.4,2.5l-0.9,0.4
	L144,18c-0.1-0.4,0-0.8,0.2-1.3l0.6-1.3c-0.2-0.6-0.3-1.5-0.3-2.7l-2.2,4.3c-0.9,1.8-2,3-3.6,3.7c-0.9,0.3-1.5,0.2-2-0.4
	c-0.3-0.1-0.2-0.3,0.1-0.3h1.3l1.3-0.2c1.2-0.8,2.1-2.1,2.8-3.9c0.9-2.1,1.6-3.6,2.1-4.1c0.5-0.7,1-1,1.3-0.8l0.1,0.3l-0.1,0.4
	l-0.2,1.6l0.3,1.3c0.7-0.9,1.6-1.7,2.5-2.3c1.1-0.9,2-1.1,2.7-1c0.2,0,0.2,0.2-0.1,0.4l-0.8,0.8l-1.6,3.4c-0.5,1.3-0.6,2.5-0.4,3.6
	c0.2,0.5,0.7,0.8,1.5,0.8l0.8-0.2C150.6,20,150.7,20.1,150.7,20.3z M145.2,16.4l-0.4,0.8c-0.1,0.3-0.1,0.5,0,0.6
	C145.2,18,145.3,17.5,145.2,16.4z M150.8,12.9c0,0.4,0.3,0.5,0.7,0.5c0.4-0.1,0.6-0.3,0.6-0.6c-0.1-0.4-0.3-0.5-0.8-0.5
	S150.7,12.5,150.8,12.9z M127.1,17.2c-0.4,0.8-0.9,1.5-1.6,2h-0.8c-0.4-0.2-0.5-0.4-0.5-0.7l-0.9,0.5l-1.1,0.1
	c-0.4-0.2-0.6-0.4-0.6-0.8c-0.7,0.5-1.4,0.7-2,0.8c-0.8,0.1-1.3-0.2-1.5-0.8c-0.6,0.6-1.1,1-1.6,0.9c-0.5-0.2-0.9-0.4-1-0.9
	c0-0.4,0.3-1,0.7-2c0.4-0.8,0.4-1.1,0.1-1c-0.8,0.2-1.4,0.7-1.8,1.5l-0.9,2.4h-0.8l0.1-1l0.3-0.9c0.5-2.5,1-4.1,1.4-4.9
	c0.2-0.3,0.5-0.6,0.9-0.7l0.8,0.1c0.3,0.1,0.4,0.4,0.3,0.6c-0.3,1.4-1,2.3-2,2.8v0.3l1.6-0.9h0.6l0.5,0.5l-0.9,3.1
	c0,0.3,0.1,0.4,0.4,0.3c0.3-0.1,0.7-0.5,1.1-1.2c0.4-1.5,1.2-2.5,2.3-2.9l1.4,0.2c0.4,0.3,0.4,0.8,0,1.4l-1.2,0.8l-1.1,0.4
	c-0.3,0.3-0.3,0.7-0.1,1.1c0.2,0.2,0.5,0.4,0.9,0.2c0.5-0.2,0.9-0.5,1.3-1l1.2-2c0.6-0.7,1.5-0.8,2.6-0.6l1-2.9h0.4l0.4,0.2
	c-0.3,1.3-1,3.3-2.1,6l0.1,0.4h0.3l1.3-1.6C127,16.9,127.1,17,127.1,17.2z M119.3,16.4c0.5,0,1-0.1,1.4-0.5l0.5-0.4l-0.1-0.5
	c-0.3-0.1-0.5-0.1-0.8,0C119.9,15.4,119.6,15.8,119.3,16.4z M114.7,14.6c0.4-0.2,0.7-0.6,1-1.3c0.3-0.6,0.3-0.9,0.1-0.9
	c-0.3,0-0.5,0.3-0.8,0.9L114.7,14.6z M124.7,15.8c-0.1-0.3-0.4-0.5-0.6-0.5c-0.4,0.1-0.8,0.5-1.2,1.2c-0.2,0.4-0.4,0.8-0.4,1.3
	c-0.2,0.5,0,0.7,0.3,0.7c0.5,0,0.9-0.3,1.3-1C124.5,16.9,124.7,16.3,124.7,15.8z M137.3,19.1l1-0.9l0.4-0.9l-0.1-0.1h-0.3
	c-0.1,0.1-0.2,0.2-0.4,0.6l-0.5,0.6l-0.4,0.2c-0.2-0.1-0.1-0.5,0.3-1.4l0.7-1.5c0.1-0.6-0.2-0.9-0.8-1.2c-0.8-0.1-1.5,0.3-2.2,1.2
	c-0.2,0.1-0.2,0-0.2-0.4c0-0.4-0.2-0.5-0.5-0.7c-0.4-0.2-0.6-0.2-1,0c-0.5,0.3-1,1.1-1.4,2.2c-0.3,1.1-0.6,1.6-0.8,1.6
	c-0.3,0-0.3-0.5-0.1-1.3l0.5-2.3c0.1,0-0.1-0.1-0.3-0.1h-0.5l-1,3.1l-0.9,1c-0.1,0.2,0,0.4,0.5,0.4l0.6-0.6l0.4,0.6h0.8
	c0.6-0.3,1-0.9,1.3-1.9c0.4-1,0.7-1.7,1-2l0.4-0.1c0.1,0.6-0.1,1.7-0.7,3.1c-0.2,0.4-0.1,0.6,0.1,0.7l0.4,0.2l0.3-0.2l1.4-2.6
	l0.6-0.9c0.4-0.3,0.7-0.4,1.1-0.2l-0.4,1.2c-0.5,1-0.7,1.7-0.5,2.3c0.1,0.1,0.2,0.3,0.5,0.4L137.3,19.1z M131.3,13.7
	c0.4,0,0.5-0.2,0.5-0.5c0-0.4-0.1-0.5-0.5-0.5c-0.4,0-0.6,0.1-0.6,0.5C130.7,13.5,130.9,13.7,131.3,13.7z M102.6,14.3l-0.5,0.5
	l0.8,0.7l0.4,1c-0.5,1.5-1,2.3-1.7,2.6c-0.6,0.2-1.1,0.2-1.5-0.3c-0.3-0.1-0.4-0.4-0.6-0.8l-0.3,0.6l-0.9,0.6
	c-0.3,0-0.7-0.2-1.1-0.5c-0.2-0.1-0.4,0-0.6,0.1c-0.3,0.3-0.6,0.5-1,0.5c-0.6-0.1-1-0.4-1.1-0.8l-0.7,0.7l-1.5-0.3
	c-0.3-0.1-0.5-0.6-0.4-1.2l-1.5,1.1l-1.8,0.5l-0.8-0.5c-0.2-0.1-0.4-0.1-0.5,0.1l-0.5,0.7l-0.5-0.3c0.8-1.3,2-3.3,3.9-5.7
	c0.3,0.1,0.5,0.2,0.3,0.4c-0.2,0.3-0.2,0.6-0.2,0.8c0.5,0.8,0.7,1.6,0.7,2.5l1.2-0.8l0.8-2.3l-1.2-0.1v-0.6l1.5-0.1l0.2-0.6h1
	l-0.2,0.6l1.7,0.1v0.7h-1.8c-0.4,0.7-0.7,1.6-1,2.7c-0.2,1.1-0.3,1.7,0,1.8c0.2,0.1,0.5,0.1,0.8-0.3l0.5-0.7
	c0.3-0.9,0.5-1.4,0.8-1.8c0.4-0.6,1-0.9,1.6-1h0.9l0.7-0.1c0.3,0.1,0.4,0.2,0.3,0.4c-0.3,0.6-0.5,1.3-0.8,2.1
	c-0.2,0.7-0.2,1.2,0,1.3c0.5,0.1,1-0.6,1.5-1.9l0.9-2.5c0.4-0.9,0.9-1.7,1.6-2.2c0.5-0.3,1-0.3,1.3,0.2
	C103.6,12.8,103.3,13.5,102.6,14.3z M89.7,15.5l-1.4,2.3c-0.1,0.1-0.1,0.4,0,0.6c0.2,0.3,0.5,0.4,0.8,0.3
	C90,18.3,90.2,17.3,89.7,15.5z M97.1,15.4c-0.6,0.2-1.1,0.6-1.4,1.3c-0.3,0.6-0.4,1.2-0.2,1.7l0.7,0.1l0.6-0.7l0.6-1.6
	C97.6,15.5,97.5,15.3,97.1,15.4z M101.5,15.4c-0.4,0-0.6,0.2-0.7,0.8l-0.4,1.3c0,0.4,0.3,0.8,0.8,1c0.4,0.2,0.8-0.5,1-1.7
	C102.3,16,102.1,15.5,101.5,15.4z M102.5,13.5c0.3-0.5,0.4-0.8,0.1-0.9c-0.3-0.1-0.6,0.2-0.9,0.7c-0.2,0.5-0.4,0.9-0.4,1.2
	L102.5,13.5z M112.6,13.8c-0.4,0.4-0.4,1.2-0.3,2.5c0.2,1.1,0,2-0.7,2.5l-1.1,0.5l-1-0.3l-0.4-0.3l-0.9,0.5c-0.5,0.1-0.8,0.1-1-0.3
	c-0.2-0.4-0.5-0.6-0.8-0.5l-0.7,0.6c-0.2,0.2-0.5,0.3-0.9,0.3c-0.2,0-0.5-0.1-0.6-0.4c-1.1-1.6-0.6-3.8,1.3-6.6
	c0.3-0.3,0.7-0.5,1-0.5c0.6,0.1,0.8,0.5,0.8,1c0,0.7-0.3,1.5-1,2.3l-1.5,1.8c-0.1,0.7-0.1,1.3,0.1,1.8c0.2,0.2,0.6,0,1.2-0.8l1-1.6
	l0.7-1.6l0.9,0.1l-0.8,2.3c-0.2,0.9-0.2,1.4,0.2,1.4l1.5-2.1c0.9-1.5,1.7-2.5,2.5-2.9C112.5,13.6,112.6,13.7,112.6,13.8z M105,15.8
	l1.3-1.7c0.5-0.8,0.5-1.4,0.2-1.6c-0.3-0.1-0.7,0.5-1.3,1.8C104.7,15.5,104.7,16,105,15.8z M111.3,15.2c-0.4,0.2-0.7,0.7-1.1,1.6
	c0.1,0.2,0,0.6-0.4,1.4c0,0.5,0.3,0.6,0.8,0.5c0.5-0.4,0.7-1,0.7-1.8V15.2z M108.6,13.7c0.4,0.1,0.7,0,0.7-0.4
	c0.2-0.3,0-0.5-0.4-0.6s-0.7,0-0.8,0.3l0.1,0.4L108.6,13.7z M86.3,17.1c-0.4-0.7-1.2-1.1-2.4-1.1c-0.9,0.2-1.6,0.7-1.9,1.4
	c-0.1,0.5,0,0.8,0.5,0.7l0.5-0.6c0.2-0.5,0.3-0.7,0.5-0.8l1.6,0.1c0.5,0.3,0.7,0.8,0.6,1.5c-0.1,0.5-0.5,1.1-1.4,1.7
	c-0.7,0.5-1.5,0.6-2.3,0.3c-0.8-0.2-1.3-0.9-1.3-1.9c0-0.6,0.2-1.1,0.6-1.6c0.4-0.6,0.9-1,1.5-1.3l1.3-0.3l0.7-0.4
	c0-0.1-0.1-0.1-0.4-0.1l-0.7-0.1c-1-0.3-1.5-0.8-1.4-1.3c0.2-0.7,0.6-1.3,1.3-1.6c1.2-0.4,2.2-0.4,2.9,0.2c0.3,0.4,0.3,0.8,0.1,1
	c-0.1,0.2-0.2,0.4-0.1,0.5l0.5,0.4c0.3,0,0.5-0.3,0.7-0.6c0-0.6-0.2-1-0.4-1.3c-0.5-0.5-1.1-0.8-2-0.9c-1.8-0.2-3.1,0.5-3.9,2.1
	c-0.1,0.3-0.1,0.7,0.1,0.9l0.5,0.6l0.3,0.3l-0.8,0.5c-0.7,0.4-1.2,0.9-1.6,1.5c-0.4,0.6-0.6,1.4-0.4,2C80,20,81,20.8,82.3,21
	c0.8,0,1.7-0.2,2.7-0.8C86.2,19.3,86.7,18.3,86.3,17.1z"/>
<g>
	<path fill="#C4C4C4" d="M179.9,89.6c-0.1-1.9-1-3.5-2.6-4.6c1.4-1.5,1.9-3.2,1.5-5.2c-0.4-2-1.5-3.4-3.3-4.3
		c1.2-1.6,1.4-3.3,0.8-5.3c-0.7-1.9-2-3.2-4-3.8c0.9-1.8,0.9-3.6,0-5.4c-1-1.7-2.5-2.7-4.5-3.1c0.7-2,0.4-3.7-0.8-5.4
		c-1.2-1.6-2.8-2.4-4.8-2.5c0.3-1.9-0.3-3.7-1.7-5.1c-1.4-1.5-3.2-2-5.2-1.7c0-2-0.7-3.7-2.4-4.9c-1.6-1.3-3.3-1.6-5.3-1
		c-0.3-2-1.3-3.5-3.1-4.5s-3.7-1.1-5.5-0.3c-0.6-1.9-1.8-3.2-3.7-4c-1.9-0.7-3.7-0.5-5.5,0.6c-0.9-1.8-2.2-2.9-4.2-3.4
		c-2-0.4-3.8,0-5.3,1.3c-1.1-1.7-2.7-2.6-4.7-2.7c-2.1-0.2-3.8,0.5-5.1,2c-1.4-1.5-3.1-2.2-5.1-2c-2.1,0.1-3.6,1-4.7,2.7
		c-1.5-1.3-3.4-1.7-5.4-1.3c-2,0.5-3.3,1.6-4.2,3.4c-1.8-1.1-3.6-1.3-5.4-0.6c-1.9,0.8-3.2,2.1-3.7,4c-2-0.8-3.8-0.7-5.5,0.3
		c-0.8,0.5-1.5,1-2,1.6c-0.6,0.8-1,1.8-1.1,2.9c-1.9-0.6-3.7-0.3-5.4,1c-1.7,1.2-2.5,2.9-2.4,4.9c-2.1-0.3-3.7,0.2-5.2,1.7
		C59,46.3,58.5,48,58.8,50c-2,0.1-3.7,0.9-4.9,2.5c-1.2,1.7-1.4,3.5-0.8,5.4c-2.1,0.4-3.6,1.4-4.5,3.1c-0.9,1.8-1,3.7,0,5.4L48,66.7
		c-1.6,0.6-2.7,1.8-3.4,3.5c-0.6,2-0.3,3.7,0.8,5.3c-1.9,0.9-2.9,2.4-3.3,4.3c-0.4,2,0.1,3.7,1.5,5.2c-1.6,1.2-2.5,2.7-2.6,4.6
		l9.3,34c-0.3,1.4,0,2.8,0.8,4.1c1,1.7,2.7,2.7,4.7,2.8c-0.5,2-0.1,3.8,1.2,5.3c1.4,1.6,3,2.3,5,2.2c-0.1,2,0.5,3.7,2,5l-12.5,53.8
		l27.4,2l22.4,13.2l9.3-40.8l9,41l22.2-11.6c1-0.5,2-1,3-1.5l27-4.4l-9.8-37.1l-4.2-15.7c0.9-1.1,1.2-2.5,1-3.9
		c2.1,0.1,3.8-0.6,5.1-2.2c1.4-1.5,1.8-3.3,1.3-5.3c2-0.1,3.6-1.1,4.6-2.8c0.9-1.4,1.1-2.7,0.9-4.1L179.9,89.6"/>
	<path fill="#102C73" d="M163.7,59.8l0.5-0.7c0.3-1.4,0-2.8-0.9-3.9c-0.8-1.2-2-1.9-3.5-2l-0.7,0.2l-4.9,3.9c1.1,0.4,2.1,1.1,3,2.2
		c0.7,1,1.1,2.2,1.1,3.4L163.7,59.8z M168.3,63.1c0.6,1.3,0.8,2.7,0.2,4l-0.6,0.6l-5.7,2.4c0.1-1.3-0.1-2.5-0.7-3.6s-1.4-2-2.6-2.6
		l5.4-3.1l0.8-0.2C166.6,61,167.6,61.8,168.3,63.1z M169.2,68.8c1.4,0.5,2.3,1.5,2.8,2.9c0.4,1.3,0.3,2.6-0.4,4l-0.7,0.4l-6,1.6
		c0.4-1.3,0.3-2.4-0.1-3.6c-0.5-1.2-1.1-2.2-2.2-3l5.8-2.3C168.7,68.7,168.9,68.7,169.2,68.8z M172.7,84.9l-6.2,0.8
		c0.4-1.2,0.6-2.4,0.4-3.7c-0.2-1.2-0.8-2.3-1.7-3.2l6.1-1.5h0.8c1.2,0.9,2,2,2.3,3.4c0.3,1.4-0.1,2.7-1,3.8
		C173.3,84.8,173,84.9,172.7,84.9z M136.6,36.3l-2.7,5.6c-0.8-1.1-1.7-1.7-2.9-2.2l-3.7-0.3l1.9-5.8c0-0.3,0.1-0.4,0.4-0.7l4.1-0.1
		c1.4,0.5,2.3,1.4,2.9,2.7V36.3z M142.3,36.7c1.3,0.7,2.1,1.7,2.5,3.2c0,0.3,0,0.5-0.2,0.8l-3.4,5.1c-0.7-1.1-1.6-2-2.6-2.6
		c-1.2-0.7-2.4-0.9-3.7-0.8l2.8-5.6c0.1-0.2,0.2-0.4,0.5-0.5C139.7,35.8,141,36,142.3,36.7z M128,33.3l-1.8,5.8
		c-0.9-0.9-2-1.5-3.2-1.8l-3.7,0.3l0.9-6.1l0.4-0.7c1.2-0.8,2.6-1,4-0.8c1.5,0.3,2.6,1.2,3.3,2.4L128,33.3z M152.2,45.3l-0.4,0.8
		l-4.1,4.6c-0.4-1.2-1.1-2.2-2.1-2.9c-1.1-0.9-2.3-1.3-3.5-1.4l3.5-5.1c0.1-0.2,0.3-0.4,0.7-0.4c1.4-0.2,2.8,0,3.9,0.9
		C151.3,42.7,152,43.9,152.2,45.3z M157.3,48c1,1,1.5,2.3,1.4,3.8l-0.4,0.7l-4.8,3.9c-0.2-1.2-0.8-2.2-1.7-3.2c-1-0.9-2-1.5-3.2-1.8
		l4.2-4.5c0.2-0.2,0.4-0.4,0.6-0.4C155,46.5,156.3,47,157.3,48z M93.8,39.4L90,39.7c-1.2,0.5-2.2,1.1-3,2.2l-2.5-5.6
		c-0.2-0.2-0.2-0.5-0.1-0.8c0.6-1.3,1.6-2.3,2.9-2.8c1.5-0.5,2.8-0.4,4.1,0.2l0.5,0.6L93.8,39.4z M100.8,31.5l1,6L98,37.3
		c-1.3,0.4-2.3,1-3.2,1.8L93,33.2c0-0.3,0-0.5,0.1-0.8c0.7-1.2,1.9-2.1,3.3-2.4c1.4-0.3,2.8,0,4,0.8L100.8,31.5z M86,42.3
		c-1.2,0-2.3,0.2-3.5,0.9c-1.2,0.6-2.1,1.5-2.7,2.6l-3.3-5.1c-0.2-0.4-0.3-0.6-0.2-0.9c0.3-1.4,1.2-2.5,2.4-3.1
		c1.3-0.8,2.6-0.9,4.1-0.4l0.5,0.5L86,42.3z M118.2,37.4c-1-0.7-2.2-1.1-3.5-1.2c-1.2-0.2-2.4,0.1-3.6,0.7l0.1-6.1
		c0-0.3,0.1-0.5,0.3-0.8c1-1,2.3-1.4,3.8-1.3s2.7,0.7,3.6,1.9c0.2,0.2,0.2,0.4,0.2,0.7L118.2,37.4z M109.9,30.8l0.1,6.1
		c-1.1-0.6-2.3-0.9-3.7-0.7c-1.1,0-2.3,0.4-3.5,1.2l-0.8-6.1c0-0.2,0.1-0.5,0.2-0.7c0.9-1.2,2.1-1.8,3.6-1.9s2.8,0.3,3.9,1.3
		C109.8,30.3,110,30.5,109.9,30.8z M62.6,62.9l-5.3-3.2L56.9,59c-0.4-1.4-0.1-2.7,0.7-3.9c0.9-1.2,2.1-1.8,3.6-2
		c0.3-0.1,0.5,0,0.8,0.2l4.8,3.9c-1.3,0.5-2.2,1.2-2.9,2.2C63.1,60.5,62.7,61.7,62.6,62.9z M62,63.8c-1.1,0.7-2,1.6-2.5,2.6
		c-0.6,1.1-0.9,2.4-0.7,3.6L53,67.6c-0.2-0.2-0.5-0.3-0.5-0.6c-0.5-1.4-0.5-2.7,0.2-4c0.7-1.2,1.7-2.1,3.2-2.5l0.8,0.2L62,63.8z
		 M56.2,74c-0.4,1.2-0.5,2.3-0.2,3.7L50,76l-0.6-0.4c-0.8-1.3-0.9-2.7-0.4-4s1.4-2.3,2.8-2.9h0.7l5.9,2.3
		C57.3,71.8,56.6,72.8,56.2,74z M48.3,84.8c-0.4,0-0.6-0.1-0.8-0.3c-0.9-1.2-1.2-2.5-1-3.9c0.4-1.4,1.1-2.6,2.4-3.3l0.8-0.1l6.1,1.5
		c-0.9,1-1.5,2-1.8,3.2c-0.2,1.3-0.1,2.5,0.5,3.6L48.3,84.8z M173.6,86.3l-0.8-0.2l-6.2,0.7c0.7,0.8,1,1.7,1.2,2.8h-3.4
		c-0.6-13.6-5.8-25.2-15.7-34.8c-10.6-10.4-23.3-15.5-38.2-15.5c-9.9,0-18.8,2.2-26.8,6.8L79.5,47v0.1l-1.6,0.4H78l-3.5,1.2
		c0.3-0.4,0.6-0.8,1-1c1-0.8,2.2-1.3,3.4-1.4l-3.4-5c-0.2-0.3-0.4-0.4-0.7-0.5c-1.5-0.2-2.8,0.1-4,1c-1.1,0.9-1.8,2-2,3.5
		c0,0.3,0.2,0.5,0.4,0.7l3.1,3.5L71.2,50l-2.9-3.2c-0.2-0.1-0.5-0.3-0.8-0.4c-1.5,0-2.7,0.5-3.8,1.5c-1,1.1-1.4,2.4-1.3,3.9
		c0,0.2,0.1,0.5,0.3,0.6l4.2,3.5l1.1,2.9l0.2,0.4C60.9,67.9,57,78,56.5,89.6h-3.3c0.2-1.1,0.5-2.1,1.1-2.9L48.1,86
		c-0.3,0-0.6,0-0.7,0.3c-1.1,0.8-1.8,2-1.9,3.3H41H26.6v34h23.7h4c0.1,0.6,0.3,1.2,0.7,1.7c0.7,1.3,1.9,2,3.3,2.3
		c0.3,0,0.6,0,0.8-0.2l5.1-3.5l-0.6-0.3h3.2c1.7,2.1,3.5,4.2,5.5,6.1c10.5,10.3,23.2,15.6,38.2,15.6c14.9,0,27.6-5.3,38.2-15.6
		c2-1.9,3.7-4,5.4-6.1h3.2l-0.6,0.3l5.1,3.6l0.8,0.2c1.5-0.4,2.6-1.1,3.3-2.3c0.4-0.6,0.7-1.1,0.8-1.8h4h23.1v-34h-13.9h-4.5
		C175.3,88.3,174.7,87.3,173.6,86.3z M131.9,131.9v0.7h-2.3c-0.3,0-0.6-0.2-0.8-0.6l-0.6-1.2c-0.3-0.6-0.7-0.9-1.1-0.9h-1.7v1
		l0.1,0.6l0.7,0.3h0.2v0.8h-4v-0.8h0.1l0.8-0.2l0.2-0.7v-3.1l-0.2-0.7c0-0.2-0.3-0.2-0.7-0.3h-0.2V126h5l2,0.3
		c1,0.2,1.5,0.7,1.5,1.5c0,1-0.6,1.5-1.6,1.6l-0.1,0.1h0.1c0.6,0.2,1.1,0.7,1.5,1.5l0.3,0.6C131.2,131.8,131.5,131.9,131.9,131.9z
		 M99,127.8c0,0.5-0.4,1-1.2,1.3c1,0.2,1.5,0.7,1.5,1.6c0,0.7-0.3,1.2-0.9,1.5l-2.4,0.4h-5.5v-0.8l0.8-0.2l0.2-0.7v-3.1l-0.1-0.6
		l-0.6-0.3l-0.3-0.1V126h5.8c0.9,0,1.6,0.1,2,0.4C98.8,126.7,99,127.1,99,127.8z M120.1,126v1.9h-0.6l-0.7-0.8
		c-0.2-0.2-0.5-0.3-1-0.3h-2.7v2.2h0.7l0.9-0.2l0.1-0.5h0.8v2.1h-0.8l-0.2-0.6l-1.4-0.2h-0.1v2.1h3.1c0.3,0,0.6-0.1,0.8-0.4l0.2-0.5
		h0.9l0.1,1.8h-8.1v-0.8h0.1c0.3,0,0.5-0.2,0.6-0.3v-0.6v-3.1v-0.6l-0.5-0.3l-0.2-0.1V126H120.1z M109.5,127.9h-0.7l-0.6-0.8
		c-0.2-0.2-0.6-0.3-1-0.3h-2.8v2.2h0.8l0.8-0.2l0.2-0.5h0.8v2.1h-0.8c0-0.3-0.1-0.5-0.3-0.6l-1.3-0.2h-0.2v2.1h3.1
		c0.3,0,0.7-0.1,0.8-0.4l0.2-0.5h1v1.8h-8.1v-0.8h0.2l0.5-0.3l0.1-0.6v-3.1v-0.6c-0.1-0.2-0.3-0.3-0.6-0.3l-0.2-0.1V126h8.1V127.9z
		 M128.6,128c0,0.9-0.4,1.3-1.4,1.3h-1.8v-2.5h1.4c0.6,0,1,0.1,1.3,0.3C128.4,127.4,128.6,127.7,128.6,128z M95.4,126.8
		c1.1,0,1.6,0.3,1.6,1c0,0.8-0.5,1.1-1.4,1.1h-2.1v-2.1H95.4z M97,130.6c0,0.7-0.5,1.1-1.5,1.1h-2v-2.2h1.7
		C96.4,129.5,97,129.9,97,130.6z M64.8,124.8c0.2,1.2,0.7,2.3,1.5,3.3c0.9,1,1.9,1.7,3.1,2l-4.6,4.2c-0.2,0.3-0.4,0.4-0.6,0.3
		c-1.6,0-2.8-0.6-3.7-1.7c-1-1.1-1.3-2.4-1.1-3.9c0-0.2,0.1-0.5,0.4-0.6L64.8,124.8z M71.6,140.4l-0.6,0.5c-1.5,0.1-2.8-0.3-4-1.3
		c-1-0.9-1.6-2.1-1.6-3.6c0-0.3,0.1-0.6,0.3-0.7l4.5-4.4c0.3,1.3,1,2.3,2,3.1c0.9,0.9,2,1.4,3.3,1.6L71.6,140.4z M72.1,148.3
		c1.7,1.1,3.5,1.3,5.4,0.6c0.5,2,1.586,3.403,3.5,4.2c2,0.833,5.5-0.2,5.5-0.2c0.7,1.9,2,3.2,4,3.7c1.9,0.5,3.7,0.2,5.3-0.9
		c1.1,1.7,2.6,2.7,4.5,3c2,0.3,3.8-0.3,5.3-1.6c1.1,1.2,2.2,2,3.6,2.2l0,0l-10.4,46.4l-19.1-11l-23.4-1.6l11.9-49.3h1.2
		C69.5,145.7,70.4,147.3,72.1,148.3z M83.3,140.8c0.7,1,1.6,1.8,2.7,2.3c1.2,0.6,2.4,0.7,3.8,0.6l-2.3,5.7c0,0-0.398,0.537-0.6,0.6
		c-2.171,0.684-4.1-0.1-4.1-0.1c-1.3-0.6-2.2-1.6-2.6-3.1c-0.2-0.2-0.1-0.5,0.1-0.7L83.3,140.8z M76.3,136.3
		c0.6,1.2,1.4,2.1,2.5,2.8c1,0.7,2.2,1.1,3.5,1.1l-3.1,5.3c-0.2,0.3-0.4,0.4-0.6,0.5c-1.5,0.3-2.8,0.1-4.1-0.7
		c-1.2-0.7-1.9-1.9-2.2-3.4c0-0.2,0-0.5,0.3-0.7L76.3,136.3z M132.3,149.8v0.8c-0.7,1.4-1.7,2.2-3.1,2.7c-1.4,0.4-2.7,0.2-4.1-0.5
		l-0.4-0.7l-1.4-6c1.3,0.4,2.5,0.3,3.7,0s2.3-1.1,3.1-2L132.3,149.8z M142.1,139.1c1.1-0.7,1.8-1.6,2.4-2.7l3.8,4.9l0.2,0.7
		c-0.2,1.5-1,2.6-2.2,3.4c-1.1,0.7-2.5,1-4,0.6l-0.6-0.5l-3.1-5.2C139.8,140.2,141.1,139.8,142.1,139.1z M138.1,149.9
		c-1.4,0.7-2.8,0.7-4.2,0.1l-0.5-0.6l-2.3-5.6c1.2,0.1,2.5-0.1,3.7-0.6c1.1-0.6,2-1.4,2.8-2.4l3,5.3l0.1,0.8
		C140.3,148.3,139.4,149.3,138.1,149.9z M161.5,129.1c0.3,1.4-0.2,2.7-1.1,3.8c-1,1.1-2.1,1.7-3.6,1.9c-0.3,0-0.5-0.1-0.8-0.4
		l-4.6-4.2c1.2-0.4,2.3-1,3.2-2c0.7-0.9,1.2-2.1,1.4-3.4l5.1,3.6L161.5,129.1z M153.8,139.7c-1,0.9-2.4,1.3-3.9,1.2l-0.6-0.4l-4-4.8
		c1.4-0.2,2.5-0.8,3.5-1.6c0.9-0.8,1.5-1.8,1.9-3.1l4.5,4.3l0.3,0.7C155.4,137.5,154.8,138.8,153.8,139.7z M154.2,143.7l12.8,48.1
		l-22.9,2.9l-21.7,11.6l-9.8-44l0.7-3.3c0.8-0.4,1.5-1.1,2.1-1.9c1.4,1.3,3.2,1.9,5.2,1.6c2-0.3,3.5-1.3,4.5-3.1
		c1.6,1.2,3.4,1.5,5.4,1c1.9-0.5,3.3-1.8,3.9-3.7c0.9,0.5,1.8,0.7,2.8,0.7l2.7-0.5c1.9-0.8,3-2.2,3.4-4.2c2,0.7,3.9,0.5,5.5-0.6
		c1.8-1,2.6-2.6,2.8-4.5L154.2,143.7z M96.2,152.1l-0.4,0.7c-1.3,0.7-2.7,0.8-4.1,0.5c-1.4-0.5-2.4-1.4-3.1-2.7
		c-0.1-0.2-0.1-0.5,0-0.8l2.2-5.7c0.8,0.9,1.9,1.6,3.1,2c1.3,0.3,2.5,0.3,3.7,0L96.2,152.1z M105.2,153.5l-0.4,0.7
		c-1.1,0.9-2.4,1.3-3.8,1.1c-1.5-0.2-2.7-1-3.5-2.2c-0.2-0.2-0.2-0.5-0.2-0.8l1.4-6c1,0.9,2.1,1.4,3.4,1.6c1.3,0.1,2.5,0,3.7-0.5
		L105.2,153.5z M122.2,146.3l1.3,6c0.1,0.3,0,0.6-0.2,0.8c-0.8,1.3-2,2-3.4,2.2c-1.4,0.2-2.7-0.2-3.9-1.1c-0.2-0.1-0.3-0.4-0.3-0.7
		l-0.5-6.1c1.1,0.5,2.4,0.7,3.6,0.5C120.1,147.7,121.2,147.2,122.2,146.3z M110.5,155.9c-1.5,0-2.7-0.5-3.7-1.6l-0.3-0.7l0.4-6.2
		c1.2,0.7,2.4,1.1,3.6,1.1c1.3,0,2.4-0.4,3.6-1.1l0.4,6.2l-0.3,0.7C113.2,155.4,112,155.9,110.5,155.9z"/>
	<path fill="#FFF" d="M148.9,102.5c-1.3,0-2.5,0.5-3.6,1.3V92.5h-6.8v2.6h1.1c0.3,0,0.6,0.2,0.8,0.4c0.3,0.4,0.4,0.8,0.4,1.2
		v18.1c0,1.5-0.2,2.2-0.7,2.2h-0.5v2.8h5.6l0.5-1c1,0.9,2.1,1.3,3.7,1.3c1.7,0,2.9-0.4,3.5-1.3c0.8-1,1.1-2.7,1.1-5.3v-6.6
		C154,104,152.3,102.5,148.9,102.5z M149.3,114.8c0,1.4-0.7,2-2,2c-1.4-0.1-2-0.6-2-1.5v-7.7c0-1.1,0.6-1.7,2-1.8
		c1.3-0.1,2,0.7,2,2.4V114.8z M170.8,105.8h-0.4V103h6.1l0.3,0.8l0.2,0.3l0.3-0.1c0.9-0.8,2-1.2,3.5-1.2c2,0,3.5,0.6,4.3,1.7
		c0.6,0.8,0.8,1.8,0.8,2.9v9c0,0.6,0.7,0.9,1.9,0.9h0.5v2.7h-4.1c-1,0-1.8-0.3-2.4-1.1c-0.6-0.6-1-1.4-1-2.1v-8.6l-0.2-1.5
		c-0.3-0.4-0.9-0.5-1.9-0.5c-0.5,0-1,0.1-1.4,0.6c-0.2,0.3-0.4,0.7-0.4,1.1v8.1c0,0.3,0.2,0.6,0.5,0.8c0.3,0.4,0.6,0.5,0.9,0.5h0.5
		v2.5h-8.1v-2.5h0.6l0.5-0.4l0.3-0.9v-8.6c0-0.5-0.2-0.9-0.4-1.1C171.4,106,171.1,105.8,170.8,105.8z M169.6,114.7v-7.2
		c0-1.5-0.5-2.6-1.5-3.5c-1.2-1-3-1.5-5.5-1.5c-4.5,0-6.7,1.7-6.7,5v7.2c0,3.7,2.3,5.6,6.9,5.6C167.3,120.3,169.6,118.4,169.6,114.7
		z M164.8,114c0,1-0.1,1.8-0.4,2.3c-0.3,0.5-0.8,0.7-1.6,0.7c-0.9,0-1.5-0.2-1.7-0.7c-0.3-0.5-0.5-1.3-0.5-2.3v-5.8
		c0-0.9,0.1-1.5,0.3-1.9c0.4-0.5,0.9-0.8,1.8-0.8h0.1c0.8,0,1.4,0.3,1.7,0.8c0.3,0.4,0.3,1,0.3,1.9V114z M133.3,102.5
		c-1.2,0-2.5,0.5-3.6,1.3V92.5H123v2.6h1.1l0.8,0.4c0.3,0.4,0.4,0.8,0.4,1.2v18.1c0,1.5-0.2,2.2-0.8,2.2H124v2.8h5.7l0.5-1
		c0.9,0.9,2.1,1.3,3.7,1.3c1.7,0,2.8-0.4,3.4-1.3c0.8-1,1.1-2.8,1.1-5.3v-6.6C138.4,104,136.8,102.5,133.3,102.5z M133.7,114.8
		c0,1.4-0.6,2-1.9,2c-1.4-0.1-2-0.6-2-1.5v-7.7c0-1.1,0.6-1.7,2-1.8c1.3-0.1,2,0.7,2,2.4L133.7,114.8z M83.5,102.5
		c-2.3,0-4,0.5-5,1.4c-1.2,1.1-1.7,2.9-1.7,5.4v2.2c0,3.1,0.4,5.2,1,6.3c0.9,1.6,2.7,2.3,5.5,2.3c2.5,0,4.3-0.3,5.4-1.2
		c0.8-0.6,1.3-1.7,1.3-3.1v-2h-4.3v1c0,1.5-0.7,2.3-2.2,2.3c-0.9,0-1.5-0.4-1.7-1.4c-0.2-0.5-0.3-1.7-0.3-3.7H90v-3.1
		c0-2.3-0.7-4-1.8-5.1C87.1,103,85.5,102.5,83.5,102.5z M85.3,109.7h-3.8v-1.2c0-1.3,0.2-2.1,0.4-2.5c0.3-0.3,0.8-0.5,1.6-0.5
		c0.7,0,1.2,0.3,1.4,0.6c0.3,0.4,0.4,1.2,0.4,2.6V109.7z M138.3,65.5l-11.9,0.1l1.7-4.2h11.8l2.1-4.8h5l-1.6,4.5h4.3l-1.5,4.2h-4.4
		c-3.8,9.4-5.7,14.5-5.7,15.5c0,0.7,0.2,1.1,0.7,1.1s1.3-0.4,2.1-1.4l2-2.5l3.4,1.5c-1.1,2.1-2.5,3.8-4.1,5
		c-1.7,1.3-3.3,1.8-4.9,1.8c-1.2,0-2.3-0.4-3.1-1.1c-0.9-0.9-1.4-2-1.4-3.7c0-1.5,0.5-2.8,1.2-4.2l-2.1,1.2l-0.6-3.3
		c1.5-0.9,3.1-2.4,4.7-4.7C137.6,68.4,138.3,66.8,138.3,65.5z M69.3,58.2l-1.7-4.5c2.9-1.9,6.4-3.5,10.7-4.8c4-1.2,7.3-1.8,9.9-1.8
		c3.6,0,6.5,0.8,8.6,2.4c2,1.7,3.1,3.8,3.1,6.5c0,3.6-1.5,6.7-4.4,9.3c-3.2,2.7-7,4.1-11.7,4.1l-3.4-0.2l-6.6,16.6h-5.3l11.8-30
		c0.2-0.6,0.5-0.9,1.1-0.9H86l-3.7,9.3l1.5,0.1c2.4,0,4.7-0.7,6.8-2c2.4-1.6,3.7-3.5,3.7-5.7c0-1.3-0.5-2.3-1.5-3.2
		c-1.1-1-2.5-1.4-4.3-1.4c-2.7,0-6,0.6-9.7,1.8C75.4,55,72.2,56.4,69.3,58.2z M44.7,105.4l-0.2-0.1l0.2-0.2c2.4-0.9,3.7-2.8,3.7-5.7
		c0-2-0.7-3.6-2-4.9c-1.3-1.2-3-1.8-5.1-1.8h-10v2.6h1.1c0.3,0,0.6,0.1,1,0.5c0.3,0.3,0.5,0.6,0.5,1.1v18.6c0,0.4-0.2,0.8-0.5,1.2
		c-0.4,0.3-0.8,0.5-1.3,0.5h-0.8v2.7h10.2c2.3,0,4-0.6,5.3-1.7c1.3-1.3,2-3.2,2-5.7c0-2.1-0.3-3.6-0.8-4.7
		C47.3,106.6,46.3,105.8,44.7,105.4z M39,95.7l3,0.1c0.7,0.3,1,1.1,1,2.6v2c0,1.5-0.1,2.5-0.4,2.9c-0.3,0.5-1.2,0.7-2.6,0.7h-1V95.7
		z M43.4,113.6c0,1.2-0.2,2.2-0.5,2.7c-0.4,0.5-1.1,0.7-2.1,0.7H39v-10.4l2,0.1v-0.1c0.8,0.1,1.5,0.4,1.8,0.9
		c0.4,0.5,0.6,1.3,0.6,2.3V113.6z M58.9,117h0.7v2.8h-8.7V117h0.7c0.8,0,1.2-0.7,1.2-1.9V96.9l-0.4-1l-0.9-0.7l-1-0.4v-2.3h7.4v22.8
		C57.9,116.4,58.2,117,58.9,117z M121.9,117h0.7v2.8h-7.7V117h0.4c0.6,0,0.9-0.5,0.9-1.5v-8.8l-0.2-0.8c-0.2-0.2-0.3-0.4-0.6-0.4
		h-0.9V103h6.1v12.3c0,0.4,0.2,0.7,0.4,1.1C121.3,116.8,121.6,117,121.9,117z M75.7,117.3h0.8v2.8h-6.4v-1.3l-1.8,1.1l-2.5,0.2
		c-2.1,0-3.4-0.8-4-2.3c-0.5-1.3-0.8-3-0.8-5.1V107c0-0.4-0.1-0.8-0.5-1.1c-0.2-0.2-0.5-0.4-0.9-0.4h-0.4V103h6.6v8.2
		c0,2.2,0,3.6,0.2,4.3c0.3,1,0.8,1.5,1.8,1.5l1.4-0.3l0.6-0.8V107c0-0.4-0.1-0.7-0.5-1.1c-0.2-0.2-0.5-0.4-0.8-0.4h-0.7V103h6.7
		v12.7c0,0.5,0.1,0.9,0.3,1.2C75.1,117.2,75.3,117.3,75.7,117.3z M101,84.8c1.3-0.8,2.3-1.8,3-2.8c0,1.3,0.6,2.4,1.7,3.2
		c1,0.7,2.1,1.1,3.5,1.1c1.8,0,3.5-0.6,5.3-2c1.8-1.4,3.3-3.2,4.2-5.4c1.5-0.1,2.9-0.6,4.4-1.4c1.3-0.7,2.3-1.5,3-2.2
		c0,1.3-0.3,2.7-0.9,4.3c-0.7,1.6-1.5,2.3-2.3,2.3c-0.4,0-0.8-0.2-1.3-0.6c-0.4-0.5-0.6-0.9-0.6-1.1l-2.6,2.8
		c0.4,1.1,1.1,1.9,2.1,2.5c0.8,0.6,1.8,0.8,2.8,0.8c1.6,0,3-0.5,4.2-1.6c1.1-1.1,1.8-2.5,2.3-4.2l1.1-6.1c0.4-2.3,0.7-3.9,1.1-4.6
		h-4.9l-3.1,3.1c-1.7,1.3-3,1.9-4.1,1.9c0.2-1.6-0.1-3-1-4s-2.1-1.6-3.7-1.6c-1.4,0-2.6,0.3-3.6,0.8l5.8-14.9h-5.1l-6.1,16
		c-1,2.8-2.2,5.2-3.5,7.1c-1.4,2-2.5,3-3.4,3c-0.5,0-0.8-0.3-0.8-0.6s0-0.7,0.3-1.3l3.7-9.6h-5.2l-0.2,0.6l-0.3,0.5
		c-0.1,0-0.3,0-0.5-0.3c-0.6-0.8-1.8-1.3-3.3-1.3c-2.5,0-4.9,1.3-7.4,4c-2.6,2.6-3.8,5.4-3.8,8.1c0,2,0.5,3.4,1.6,4.2
		c0.8,0.6,1.6,0.9,2.8,0.9c1.2,0,2.5-0.4,3.9-1.1c1.2-0.6,2.2-1.4,2.8-2.1l0.3-0.4l0.2,0.5c0.2,0.8,0.4,1.4,0.8,1.7
		c0.6,0.8,1.6,1.2,3,1.2C98.3,86.2,99.5,85.8,101,84.8z M110,75.5c1.3-1.7,2.4-2.7,3.5-2.7c0.8,0,1.3,0.5,1.3,1.6
		c0,1.4-0.6,3-1.7,4.7c-1.3,1.7-2.5,2.6-3.7,2.6c-0.8,0-1.2-0.6-1.2-1.7C108.2,78.8,108.8,77.3,110,75.5z M92.6,79
		c-1.6,1.8-3,2.6-4.2,2.6c-0.9,0-1.4-0.3-1.4-1.1c0-1.2,1-2.6,2.7-4.5c1.7-1.7,3-2.6,3.9-2.6l0.9,0.1c0.3,0.3,0.4,0.7,0.4,1.2
		C94.9,75.8,94.2,77.3,92.6,79z M115.3,99.4c-0.7-0.6-1-1.4-1-2.4s0.3-1.7,0.9-2.4c0.6-0.7,1.5-0.9,2.4-0.9c1,0,1.7,0.2,2.4,0.9
		c0.6,0.6,0.8,1.3,0.8,2.2c0,1.1-0.3,2-1,2.6c-0.5,0.6-1.3,0.9-2.2,0.9S115.9,100,115.3,99.4z M112.1,116.3l-0.3-6
		c0-1.6-0.3-2.9-1-3.6c-0.5-0.6-1.5-1.2-2.8-1.7c1.4-0.6,2.4-1.3,3-2.1c0.6-0.9,0.8-2.1,0.8-3.8c0-2.1-0.6-3.7-2-4.9
		c-1.3-1.2-2.9-1.7-4.7-1.7h-9.7v2.6H96c0.4,0,0.7,0.2,1,0.4c0.3,0.4,0.4,0.8,0.4,1.2v19l-0.4,0.8l-1,0.5h-0.6v2.8h9.4V117H104
		l-1-0.3c-0.3-0.3-0.5-0.7-0.5-1v-8.9h1.6c0.9,0,1.6,0.1,1.9,0.6c0.5,0.5,0.8,1.6,0.8,3.3v6.6c0,0.5,0.2,1.1,0.5,1.6
		c0.5,0.5,1,0.9,1.7,0.9h4.2V117C112.7,117,112.3,116.8,112.1,116.3z M106.5,99.9c0,1.5-0.2,2.5-0.5,2.9c-0.4,0.5-1.2,0.7-2.5,0.7
		h-1V95h0.6c2.2,0,3.4,1.2,3.4,3.5V99.9z"/>
	<path fill="#102C73" d="M182.6,128c0.3,0,0.592-0.21,0.5-0.6c-0.039-0.163-0.3-0.6-0.3-0.6h-0.7h-1v0.1h0.1c0.1,0,0.1,0.1,0.1,0.1
		v2l-0.2,0.1H181v0.2h1.2v-0.2H182l-0.1-0.2v-0.6l0.4,0.1l0.5,0.9h0.2h0.4v-0.2l-0.8-1V128z M182,127.8h-0.1v-0.5l0.2-0.1
		c0.3,0,0.5,0.1,0.5,0.3C182.6,127.8,182.3,127.8,182,127.8z M183.8,126.4c-0.5-0.5-1-0.7-1.6-0.7c-0.7,0-1.3,0.2-1.8,0.7
		c-0.4,0.4-0.6,1-0.6,1.7s0.2,1.2,0.6,1.7c0.5,0.5,1.1,0.7,1.8,0.7c0.6,0,1.1-0.2,1.6-0.7s0.7-1,0.7-1.7S184.3,126.8,183.8,126.4z
		 M183.5,129.5c-0.3,0.3-0.8,0.5-1.3,0.5c-0.6,0-1-0.2-1.4-0.5c-0.4-0.4-0.6-0.9-0.6-1.4c0-0.6,0.2-1,0.6-1.4
		c0.4-0.4,0.8-0.6,1.4-0.6c0.5,0,1,0.2,1.3,0.6s0.6,0.8,0.6,1.4C184.1,128.6,183.8,129.1,183.5,129.5z"/>
</g>
<g>
	<path fill="#102C73" d="M10.9,190.1l7.4,6.2c1.1,1.2,3.1,2.5,5.6,4.1c0.9,0.9,2.1,1.9,3.5,2.8l-0.2,0.3c-5.1-2.3-9.5-4.7-13-7.3
		l-1.3-0.6l7.4,4.9c3,1.6,5.6,2.9,8.1,3.8l-1.2,0.7l-5.1-1.4c-1.9-0.6-3.5-1.3-4.8-1.9v0.1c2.2,1.3,5.4,2.5,9.6,3.6
		c1.2,1.2,2.7,2.1,4.7,2.7l2.7,0.6l0.1,0.3l-0.1,0.1l-4.7-0.4l-2-0.3c1.5,0.6,3.8,1,6.7,1.2c0.5,0.2,1.1,0.5,1.9,1l2.1,1l2.6,0.6
		l-0.4,0.4l-1,0.1c-1.6,0.3-3.3,0.3-4.9,0l-0.7-0.1c0.9,0.4,2,0.5,3.4,0.6L41,213c1.5,1.2,3.5,2,6.1,2.2l2.9-0.1l-0.5,0.6l-9-0.2
		l9.4,0.7c1.6,1,3.6,1.5,6,1.5c2.2,0,4.2-0.6,6.1-1.6l6.1,1.4l-0.3,0.2l-6.3-0.2c-2.1,0.2-4,1.1-5.4,2.5c-1.7,1.7-2.1,3.7-1.1,6
		c0.7,1.2,1.8,2,3.3,2c1.5,0.2,2.6-0.2,3.5-0.8c0.3-0.4,0.5-0.8,0.5-1.2c-0.1-0.3-0.2-0.6-0.4-0.8l-3.4,0.3c-0.5,0-0.9-0.3-1.1-0.7
		c-0.4-0.5-0.4-1.3-0.1-2.1c0.5-1.4,1.6-2.2,3.1-2.7l3.6-0.5l2,0.3c-0.4,0.4-0.7,0.8-1,1.2l-0.5,1.4l1,0.5c-0.7,0.8-1.3,1.9-1.7,3.2
		l1.9,1.1l2.2,0.6c0,0.2,0.1,0.4,0.1,0.5c0.6,0.7,1.6,0.9,3.2,1h1.4L73,230l2.8-0.3c1-0.4,1.9-1,2.5-1.7c0,0.7,0.1,1.3,0.4,1.7
		l2.3-0.6c1.1-0.4,1.9-1,2.5-1.8l1.5,1.9l0.8-0.7l0.9-1.3l0.9-0.7l1.2-1.7c0.8-1.1,1.2-2.2,1-3.3l0.6,0.5l0.6-0.1
		c0.3-0.2,0.6-0.7,0.8-1.2c0.2-1.4,0-2.5-1-3.7l3.7-0.3c1.6,0.2,3,0.7,4.3,1.5l-2.1,1.2c-0.4,0.3-0.5,0.5-0.5,0.8
		c0,0.2,0.1,0.3,0.5,0.5c-0.4,0.3-0.7,0.8-0.9,1.3c-0.3,0.6-0.4,1.1-0.4,1.5l0.5,0.1c-0.5,0.4-0.9,1-1,1.6c-0.1,0.7-0.1,1.3,0.1,1.8
		l1.3,0.2c-0.5,1.3-0.5,2.7-0.3,4.2c0.5,0.1,1.2-0.1,2.2-0.7c0.8-0.5,1.5-1.1,1.8-1.9l0.8,0.5c0.4,0.2,0.7,0,0.8-0.2l0.2-1.3
		c0.3-0.4,0.6-0.7,1-0.8c0.5,0.2,0.7,0.5,0.4,1l-0.9,1.2l-2.6,2.2c-1.1,0.6-2.4,0.8-4,0.8c-1.7-0.2-2.7-0.9-3.4-1.9
		c-0.3-0.7-0.3-1.3,0.1-1.6l1-0.6c0.6-0.4,0.9-0.9,0.5-1.8c-0.4-0.8-1.1-1.1-2-0.8c-0.9,0.3-1.7,0.8-2.3,1.6
		c-0.8,1.1-0.9,2.6-0.3,4.2c0.4,1,1.2,1.9,2.5,2.6c1.3,0.8,2.8,1.1,4.5,1.2l3.6-0.5c0.6-0.2,1.3-0.6,2.2-1.1l0.3,0.2h0.4
		c-0.2,0.5-0.7,1-1.5,1.4l0.5,0.8l-1.2,0.9c-0.4,0.4-0.6,0.9-0.6,1.2c0.3,0.7,1.5,0.9,3.4,0.9l2.2-0.1c0.7-0.4,1.4-0.9,1.9-1.4
		c0.2,0.3,0.3,0.4,0.6,0.4c0.5,0.1,1.2-0.3,2-1.1c0.9-0.7,1.4-1.5,1.7-2.3l0.4,0.6l0.6,0.4l0.5-0.5l0.5-0.6l1.2-2.6
		c0.4,0.2,0.8,0.3,1,0.3h0.1c0.3,0.4,0.9,0.9,1.7,1.5c0.9,0.6,1.6,1,2.2,1.2l3.5,0.4c1.7-0.1,3.2-0.4,4.6-1.2c1.2-0.7,2-1.6,2.3-2.6
		c0.7-1.6,0.6-3.1-0.2-4.2c-0.6-0.8-1.4-1.3-2.3-1.6c-1-0.3-1.6,0-2,0.8c-0.3,0.9-0.2,1.4,0.4,1.8l1.1,0.6c0.4,0.3,0.4,0.9,0,1.6
		c-0.6,1-1.6,1.7-3.3,1.9c-2,0.1-3.8-0.5-5.1-1.7c0.7,0.3,1.2,0.4,1.3,0.2l0.3-0.9c0.8,1,1.9,1.7,3.2,1.7c0.7,0,1-0.3,0.7-0.8
		c-0.3-0.3-0.4-0.7-0.5-1.2l-0.2-1.4h1c0-1.4-0.3-2.6-0.8-3.5c0.4,0,0.9,0.1,1.5,0.4v-0.5c-0.2-1.3-1-2.8-2.4-4.6l0.6-0.4
		c-0.2-0.7-0.7-1.2-1.4-1.5c1.3-0.8,2.6-1.2,4.2-1.3l3.4,0.3c-1,1.1-1.3,2.3-1,3.7c0.2,0.5,0.4,1,0.8,1.2l0.6,0.1l0.5-0.5
		c-0.1,1.1,0.3,2.2,1,3.3l1.3,1.7l0.8,0.7l1,1.3l0.8,0.7c0.1-0.3,0.4-0.6,0.7-1l0.8-0.9c0.6,0.8,1.4,1.4,2.4,1.8l2.4,0.6
		c0.3-0.4,0.3-1,0.3-1.7c0.7,0.7,1.5,1.3,2.5,1.7l2.9,0.3l0.4-0.7h1.4c1.6-0.1,2.6-0.3,3.1-1l0.2-0.5l2.1-0.6l2-1.1
		c-0.5-1.3-1-2.4-1.7-3.2c0.1-0.1,0.5-0.2,1-0.5l-0.6-1.4c-0.3-0.4-0.5-0.8-1-1.2l0.6-0.2l1.4-0.1l3.7,0.5c1.5,0.5,2.5,1.3,3.1,2.7
		c0.3,0.8,0.3,1.6-0.1,2.1c-0.2,0.4-0.6,0.7-1.2,0.7l-3-0.3h-0.3c-0.2,0.2-0.3,0.5-0.4,0.8c0,0.4,0.2,0.8,0.5,1.2
		c0.5,0.4,1.3,0.7,2.2,0.8h1.3c1.4,0,2.5-0.8,3.3-2c1-2.3,0.6-4.3-1.2-6c-1.4-1.4-3.2-2.3-5.3-2.5c-1.5-0.3-3.4-0.2-5.4,0l-0.9,0.2
		l-0.3-0.2l1-0.2l5.1-1.2c1.8,1,3.9,1.6,6.1,1.6c2.4,0,4.4-0.5,6-1.5l9.3-0.7l-9,0.2l-0.4-0.6l2.9,0.1c2.5-0.2,4.6-1,6.1-2.2
		l3.6,0.2l3.5-0.6l-0.8,0.1c-1.6,0.3-3.2,0.3-4.9,0l-1-0.1l-0.3-0.4l2.5-0.6l2.1-1c0.9-0.5,1.5-0.8,1.9-1c3-0.2,5.3-0.6,6.8-1.2
		l-2,0.3l-4.7,0.4l-0.1-0.1v-0.3l2.7-0.6c2-0.6,3.6-1.5,4.8-2.7l1.8-0.4c3.3-1,5.9-2,7.8-3.2l-0.1-0.1c-1.2,0.6-2.9,1.3-4.8,1.9
		l-3.2,0.9l-1.8,0.5l-1.2-0.7l2.2-0.8l5.8-3l7.5-4.9l-1.3,0.6c-3.3,2.4-7.4,4.8-12.2,6.9l-0.9,0.4l-0.2-0.3l0.8-0.5l2.8-2.3
		c2.5-1.6,4.4-2.9,5.6-4.1l7.3-6.2l-1.2,0.9c-4.1,3.5-7.8,6.4-11.5,8.6c0.5-0.9,0.8-1.8,0.8-2.5v-0.5l6.3-5.5c2.4-2.3,4.2-4.2,5.6-6
		l-0.9,0.7c-1.5,1.8-3.3,3.5-5.4,5.3l-6.2,5.2c-2,0-4,0.8-6.2,2.2l-2.1,1.5l0.4-1.3l1.3-0.8c1.6-1,3.4-2.4,5.7-4.2
		c3-2.5,5.4-4.7,7.1-6.8l-1.5,1.3c-1.6,1.7-4.1,3.9-7.7,6.6l-0.4,0.3l8.1-11.1l0.7-1.2l-0.9,1c-2.5,3.7-4.7,6.4-6.4,8.3l0.3-3.4
		l5.4-7.9l1.1-1.9l-6.9,9.4c-1.4,0.2-2.6,0.8-3.9,1.8c1-1.2,1.9-2.8,2.8-4.8l2.8-6.2l-0.6,0.9l-3.4,6.8c-1.3,2.4-2.8,4.6-4.5,6.4
		l-0.3-1.9c2-2.8,3.7-6.4,5.2-10.7c0,0,0-0.1-0.1,0c-1.3,3.2-3,6.7-5.5,10.5c-0.6,0.1-1.1,0.4-1.5,0.6l-0.6,0.4
		c-0.7,0.5-1.3,1-1.8,1.8v-0.7l1.8-2.4l1.7-2.7l-2,2.4l-2,2.6c-0.9,0.4-1.6,0.8-2.1,1.3c-0.6,0.4-1.3,1.2-2,2.2l-0.1-0.3l-0.2-0.1
		l3.5-4.5l0.4-0.6l-0.7,0.6l-3.8,4.6c-1,0.3-2,0.8-2.7,1.7l-1.9,2.4v-0.5l4.6-6.4c-2.1,2.1-3.8,4.2-5.2,6.4c-1.2,0.2-2,0.6-2.7,1.1
		c0.1-0.3,0.8-1.2,2-2.7l2.4-2.5l-1.4,1.3l-5.9,6.1c-0.8,0.1-1.8,0.6-2.8,1.4c-1,0.7-1.8,1.6-2.4,2.6l-1.6,3.1l-1.4,1.7
		c-0.5,0.7-1,1.5-1.1,2.1l-6,1.3l-1.7,0.3l-0.4-0.5l1.7-0.4c1.5-0.3,2.8-0.7,3.7-1.2c1.9-1,3.2-2.4,3.7-4c0.2-0.8,0.2-1.6,0-2.6
		c-0.3-0.9-0.8-1.7-1.4-2.3c-0.9-1.1-2.2-1.5-4.1-1.4c-1.2,0.2-2.1,0.8-2.6,1.6c-0.7,1.2-0.8,2.2-0.3,3.1c0.2,0.5,0.5,0.7,0.9,1
		l1.2,0.1c0.5-0.3,0.5-0.9,0.1-1.9c-0.3-0.9-0.1-1.4,0.8-1.6c0.8-0.1,1.5,0,2,0.5c0.8,0.7,1.1,1.5,1.1,2c0.2,1-0.2,2-1.3,2.7
		c-0.5,0.4-1.4,0.8-2.8,1.3l-2.3,0.9l-1.9,0.2c-1-0.5-1.7-0.8-2-0.9c0.3-0.6,0.5-1.5,0.4-2.7c-0.8,0.5-1.9,0.8-3.2,0.8l-3.9-0.3
		c-1.7,0-3.1,0.3-4,0.9c0-0.5-0.1-0.8-0.3-0.8l-0.8,0.3c-1,0.4-2,1.1-2.9,2.3c-0.2,0.3-0.4,0.7-0.4,1.1v1.2
		c-3.2-1.4-6.7-1.2-10.7,0.5l-0.9,0.4c-0.3-1.3-2.1-1.7-5.2-1.4l0.6-1l-0.3-0.1c-1.5-0.3-2.7,0-3.8,0.6c-0.8,0.6-1.5,1.5-2.3,2.7
		c-1.1-1-2.5-1.7-4.1-2c-1.8-0.5-3.5-0.2-4.9,0.8c-4-1.7-7.6-1.9-10.7-0.5v-1.2l-0.4-1.1c-1-1.2-1.9-1.9-2.9-2.3
		c-0.8-0.4-1.1-0.3-1.1,0.5c-1-0.6-2.3-0.9-4-0.9l-3.9,0.3c-1.4,0-2.4-0.3-3.2-0.8c-0.1,1.2,0.1,2.1,0.4,2.7c-0.3,0.1-1,0.4-2,0.9
		l-2.3-0.4l-2-0.7c-1.3-0.5-2.2-0.9-2.8-1.3c-1-0.7-1.5-1.7-1.3-2.7c0.1-0.5,0.4-1.3,1.1-2c0.6-0.5,1.3-0.6,2.1-0.5
		c0.9,0.2,1.1,0.7,0.8,1.6c-0.4,1-0.4,1.6,0,1.9L69,209l0.8-1c0.5-0.9,0.4-1.9-0.2-3.1c-0.6-0.8-1.4-1.4-2.6-1.6
		c-1.9-0.1-3.3,0.3-4.2,1.4c-0.6,0.6-1,1.4-1.3,2.3c-0.2,1-0.2,1.8,0,2.6c0.8,2.7,3.8,4.6,9.1,5.6l-0.4,0.5l-7.7-1.6l-1.1-2.1
		l-1.4-1.7l-1.6-3.1c-0.6-1-1.4-1.9-2.4-2.6c-1-0.8-2-1.3-2.9-1.4c-0.6-0.4-1.6-1.4-2.9-3.1l-2.9-3l-1.4-1.1l2.3,2.3
		c1.3,1.5,1.9,2.4,2,2.7c-0.7-0.5-1.5-0.9-2.7-1.1c-1.4-2.2-3-4.3-5.1-6.4l4.6,6.4v0.5l-1.9-2.4c-0.7-0.9-1.7-1.4-2.7-1.7l-3.9-4.6
		c-0.4-0.5-0.6-0.7-0.6-0.6l0.3,0.6l3.5,4.5l-0.1,0.1l-0.1,0.3c-0.7-1-1.4-1.8-2-2.2c-0.5-0.5-1.3-0.9-2.2-1.3l-3.9-5h-0.1l3.6,5.1
		v0.7c-0.6-0.8-1.2-1.3-1.8-1.8c-0.5-0.4-1.2-0.8-2.1-1c-2.5-3.8-4.3-7.3-5.5-10.5c-0.1-0.1-0.1,0-0.1,0c1.5,4.5,3.2,8,5.2,10.7
		l-0.4,1.9c-2.6-3-5.3-7.4-7.8-13.2l-0.6-0.9l2.8,6.2c1.1,2.3,2,3.8,2.7,4.8c-1.2-1-2.5-1.6-3.8-1.8c-0.9-1-2-2.3-3.1-4l-3-4.4
		l-0.8-1l6.5,9.8c0,1.1,0,2.3,0.3,3.4c-1.8-1.9-3.9-4.6-6.5-8.3l-0.8-1l0.6,1.2l8.2,11.1l-0.5-0.3c-3.5-2.7-6-4.9-7.6-6.6l-1.6-1.3
		c1.8,2.1,4.2,4.3,7.2,6.8c2.9,2.4,5.2,4,7,5l0.3,1.3c-2.9-2.4-5.6-3.6-8.2-3.7l-6.3-5.2c-2-1.8-3.8-3.5-5.3-5.3l-0.9-0.7
		c1.3,1.8,3.2,3.7,5.6,6l6.3,5.5v0.5c0,0.7,0.2,1.6,0.7,2.5c-3.6-2.2-7.4-5.1-11.4-8.6L10.9,190.1z"/>
	<path fill="#C4C4C4" d="M151.4,217.4l1.9,1.8c-0.5-0.2-1-0.2-1.5,0.3l-1.4-1.3C150.4,218,150.8,217.7,151.4,217.4z M153.3,223.2
		l0.3-0.4h0.5l-2.4-1l0.8,1.2C152.9,223.4,153.2,223.5,153.3,223.2z M146.3,213.4l-0.5,0.1c-0.1-0.1-0.2,0-0.2,0.1l0.1,0.1l1.1,0.3
		c0.5,0.1,0.7,0.2,0.8,0.6l-1.9-0.6c-0.8-0.4-1.3-0.2-1.6,0.5l1.6,0.9c0.6,0.4,1.1,0.6,1.5,0.6l1.1-0.8c0.4-0.4,0.5-0.6,0.3-0.9
		c-0.7-0.7-1.4-1.1-2.4-1.3L146.3,213.4z M151.8,219.9c0.2,0.4,0.6,0.8,1.3,1.1c0.8,0.4,1.3,0.7,1.6,1l-1.5-0.6l-1.6-0.2l2.1,0.9
		l1.6,0.1C154.2,219.8,153.1,219,151.8,219.9z M148.2,216l1,0.3c0.4,0.2,0.5,0.4,0.4,0.7c-1-0.5-1.7-0.8-2.2-0.7l1,0.4l0.9,0.5
		l-2.1-0.5c0,0.3,0.1,0.5,0.4,0.7c0.3,0.2,0.5,0.4,0.3,0.6c1.2,0,2.3-0.3,3.1-1l-1.9-1.9c-0.2,0-0.4,0.1-0.5,0.4L148.2,216z
		 M152.7,224l-2-2.7l-1.2,0.1c-0.5,0.1-0.7,0.3-0.6,0.6l0.7,1.2l-0.8,0.3c-0.4,0-0.6,0.2-0.7,0.3l0.7,0.9l1.4,0.2L152.7,224z
		 M144.2,222.8c0.5,0.5,1.1,0.7,2,0.6l2.1-0.6c0.1-0.2,0-0.6-0.2-1l-1.4-1.8l-0.9-0.6h-1c-0.4,0.1-0.6,0.1-0.7,0.4
		c0.2,0.2,0.6,0.5,1.2,0.7c0.6,0.2,1,0.3,1.3,0.6l-2.3-0.3l1.4,0.5c0.6,0.2,1.1,0.4,1.3,0.7l-2.5-0.7l0.1,0.9
		C144.7,222.5,144.5,222.7,144.2,222.8z M145.4,216.8l0.2-0.2l-3-0.8l-0.1-0.2l0.2-0.3l0.6-0.4l0.8,0.2l2.3,1.2
		c0.4,0.4,0.4,0.7,0.2,1l-3.5-0.3c1.1,0.5,2.4,0.8,4,0.7l-0.4,0.6c-0.2,0.2-0.5,0.4-0.9,0.5l-1.9,0.2c-0.8-1.3-1.5-2-2-2.2l0.7-0.1
		l0.2-0.4L145.4,216.8z M145.4,216.3l-1-0.6l-1.1-0.1L145.4,216.3z M156.2,211.2c-0.6,0.5-1.6,1-2.9,1.5l-0.2,0.1l-3.9,1.1l0.5,0.8
		c5.2-1.1,8.1-2.9,8.8-5.2c0.3-0.8,0.2-1.5-0.1-2.4c-0.2-0.8-0.6-1.4-1.1-1.9c-0.7-0.9-2-1.2-3.5-1.2c-1,0.2-1.7,0.6-2.1,1.2
		c-0.5,0.9-0.6,1.8-0.3,2.5l0.6,0.6l0.6,0.2l-0.2-0.9c-0.3-0.7-0.3-1.4-0.1-1.8c0.2-0.5,0.6-0.7,1.3-0.9h0.1c1-0.2,1.9,0.1,2.6,0.6
		v0.1c0.9,0.8,1.3,1.6,1.4,2.4C157.8,209.2,157.3,210.3,156.2,211.2z M179.3,198c0.1-0.5,0.5-1.1,0.9-1.7l1.3-1.4
		c0.6-0.5,1.1-0.8,1.7-1l-0.1,0.8l-1.5,3c-1,1.8-2.1,2.9-3.3,3.4c0.1-1,0.7-2.1,1.6-3.1l2.3-2.8l-0.1-0.2
		C181.4,195.5,180.5,196.6,179.3,198z M182.3,195.5l-3.3,4.8l0.8-0.4L182.3,195.5z M186.4,193.7l-2.1,2.5c-0.8,1-1.3,2-1.4,2.9
		l3.5-4.6l0.3-0.1l0.1,0.1c-1.3,2.1-2.5,3.8-3.7,4.9l-0.2,0.7c0.8-0.6,1.6-1.5,2.4-2.8c1-1.3,1.7-2.2,2.3-2.7
		c0.2-1.4,0.1-2.3-0.2-2.8c-1,0.3-1.7,0.9-2.5,1.8c-0.6,0.7-1.1,1.6-1.3,2.5v0.2l2.5-2.8C186.2,193.5,186.3,193.6,186.4,193.7z
		 M169.8,205.2c1-0.8,1.8-1.4,2.5-1.7l0.6-1.4l0.2-1.5c-1.2,0.3-2.2,0.8-3.1,1.5c-0.9,0.8-1.7,1.7-2.1,2.6l0.2,0.1l2.5-2.5
		c0.2,0,0.2,0,0.3,0.2c-1.7,1.6-2.8,2.8-3.2,3.5v0.3l2.6-3l0.4,0.2l-3.1,3.6L169.8,205.2z M173.5,203.2c1.4-1.9,2.3-3,2.8-3.4
		l0.1,0.1l-2.1,3c1-0.7,1.8-1.9,2.6-3.6l0.4,0.3l-2.4,3.6l0.3,0.2l0.5-0.4c0.9-1.7,1.6-2.9,2.1-3.6l0.1,0.2l-1.6,3
		c0.8-0.3,1.4-0.9,1.7-2l0.6-2.8c0.2-0.7,0.1-1-0.3-0.8c-1,0.3-2,1.1-3,2.3c-0.6,0.9-1.4,2.3-2.2,4L173.5,203.2z M179.7,204.6
		l0.1-0.6l-3,3c-1.4,1.2-2.6,2-3.6,2.1v-0.3c0.5-0.4,1.1-1.4,1.7-2.9c0.5-1.3,1.3-2.3,2.2-2.8c1.5-1.2,3.2-2.2,5.2-2.9v0.5l-0.2,0.8
		c-0.4,1.5-1.2,2.7-2.3,3.9c-1.1,1.2-2.4,2.1-3.7,2.6L179.7,204.6z M178.9,203.3l-0.2-0.1l-4.4,4.8
		C176.6,206.1,178.2,204.6,178.9,203.3z M188,196.8l-0.1-0.3c0.5-1.6,1.3-3,2.3-4.4c1.2-1.4,2.6-2.3,4.1-2.8h0.4l0.1,0.3
		c-0.1,2-0.5,3.5-1,4.2c-1.4,2-2.9,3.3-4.6,3.9c1.6-2.1,3.1-3.6,4.1-4.4l-1,0.1l-3.2,3.3l-0.7,0.1l2.7-2.7l-0.2-0.1
		C189.3,195.2,188.3,196.1,188,196.8z M189.1,194.7l0.7-0.4l0.5-0.6L189.1,194.7z M174.4,205.7l0.9-1.6c0.1-0.2-0.1-0.3-0.7-0.3
		c-1.8,0.6-3.3,1.3-4.6,2.2c-1.7,1.1-2.6,2.3-2.8,3.8l4.5-3.8v0.4l-4.8,3.9c-0.1,0-0.2,0.2-0.2,0.3l-0.2,0.5l5.3-4.3l0.3,0.3
		l-2.9,2.5c-1.1,1-2.3,1.7-3.2,2v0.2c1.7-0.3,3.3-1.1,4.9-2.2S173.7,207.1,174.4,205.7z M182.9,197.2l0.2-1.5
		c-0.5,1.1-1.3,2.5-2.3,4.1l0.9-0.3l0.7-0.8L182.9,197.2z M185.3,203.5c-0.9,0.6-2.5,1.3-4.8,2.3l0.3-0.5c0.3-0.5,1-1.2,2.3-2.2
		c1.3-1,2.2-1.8,2.5-2.3l-0.7,0.4l-2.8,2.4l0.7-1.8l1.6-2c0.7-0.7,1.4-1.2,2.3-1.6l0.9-0.4c0.2-0.2,0.6-0.3,0.8-0.3l-0.1,2.1
		C187.9,201.1,186.8,202.5,185.3,203.5z M183.9,203.6l2.5-2.5l0.6-1.3l-2.7,3c-1.3,1.3-2.4,2.1-3.3,2.6
		C181.9,205.1,182.9,204.5,183.9,203.6z M168.4,211.8l-0.5,0.4v0.3l3.5-0.4l3.4,0.5l-6.7,0.2c-0.7-0.2-1.1-0.1-1.3,0.5l0.4-0.1
		l0.2-0.2c2.4,0.2,5.1,0.1,8-0.3l0.2,0.3l-3.8,0.5l-4-0.1c1.7,0.8,3.6,1.2,5.7,1.1c2.2-0.2,4.1-0.8,5.6-1.9l-0.4-0.3
		C174.9,210.9,171.6,210.7,168.4,211.8z M166.4,214c1.6,0.2,2.9,0.7,3.7,1.6c-1.5,1.1-3.4,1.5-5.7,1.4c-2.1-0.2-4-0.8-5.6-1.7
		l-7,1.7l-0.6-0.7l7.4-1.7l0.2-0.3c1-2.7,3.8-5.1,8.4-7c0,0.8-0.3,1.7-0.7,2.8c-1.2,2-2.7,3.1-4.5,3.4l3.8-3.2l-0.1-0.1l-4,2.9
		l2.9-2.6l-0.2-0.2l-4.7,3.7l0.7,0.1l0.7-0.5c0.1,0.2,0.2,0.4,0.5,0.4c0.3,0,0.6,0,0.7,0.1L166.4,214z M166.6,215.6l-0.9-0.3
		l-5.2-0.3c0,0.3,0.2,0.6,0.4,0.6C163.2,216,165.1,216,166.6,215.6z M159.7,218.2c-1.7-0.3-3.9-0.3-6.4,0.1l0.9,0.9l2.4-0.5l3.9,0.5
		c1.7,0.6,2.9,1.6,3.6,3.2v0.1c0.3,1,0.2,2-0.3,2.7h0.1c-0.3,0.5-0.8,0.9-1.6,1l-3.019-0.39c-0.092,0.013-0.181,0.103-0.181,0.29
		l0.3,0.5h-0.1c0.8,0.6,1.8,0.8,3,0.7c1.3-0.1,2.2-0.6,2.8-1.6c0.8-2,0.5-3.7-1.1-5.2C162.8,219.3,161.3,218.6,159.7,218.2z
		 M186.4,204.3c-1,0.1-1.8,0.4-2.5,0.8h2.4c1-0.2,1.9-0.2,2.4,0l-0.1,0.2h-0.3l-5.8,0.3l-1.4,0.9l6.5-0.5l-0.3,0.2l-6.8,0.6
		l-0.2,0.2l0.3,0.1l6-0.3l-3.8,0.7l0.2,0.1h0.4c3,0.9,6.2,0.2,9.4-2.2c-0.6-0.4-1.9-0.8-3.7-1.2L186.4,204.3z M179.2,208
		c-2.1,0.2-4.1,1-5.9,2.1l-0.9,0.2l2.9,0.3v-0.4l-1.2-0.2c0.1-0.2,0.2-0.2,0.3-0.2l3.3-0.2l2.7,0.4l-0.1,0.1c-1.4-0.3-2.9-0.3-4.6,0
		l0.5,0.1l4.6,0.4h-5.2c1.7,1.3,4.1,1.3,7.5,0c1.2-0.6,2.1-1.2,2.4-1.6C183.6,208,181.5,207.7,179.2,208z M194.3,197.6
		c-2.3,0.9-4.6,2.5-7,5.2l-0.7,0.5c1,0.1,2-0.2,3.1-0.7l2.8-1.8l0.9-0.7c0.4-0.3,0.7-0.4,0.9-0.3l-1.7,1.4l0.2,0.3
		c-0.6,0.4-1.8,1.1-3.6,2.1c1.7,0,3.4-0.6,5.1-1.9c1.7-1.4,2.6-2.9,2.8-4.6C196.2,197.1,195.2,197.2,194.3,197.6z M150.9,226
		l-0.6-0.5c-0.4-0.2-0.6-0.2-1,0l0.6,1.2l1.2,0.7l-1.3-0.4h-1.1l1.1,0.5c0.5,0.1,0.8,0.3,0.9,0.5l-2.6-0.8l-0.8,0.1l0.8,1.2l2,0.1
		c0.8-0.1,1.4-0.3,1.8-0.7l-0.4-0.9L150.9,226z M138.4,225.2c-0.1,0.1-0.3,0.4-0.4,0.8l-0.3,0.8c0.4,0.5,0.9,1,1.6,1.4l2.1,0.8
		c0.2-0.5,0.2-1.3,0-2.3C140.5,226.6,139.5,226.1,138.4,225.2z M155,223.7c-0.3-0.5-0.7-0.5-1-0.3l-0.2,0.3l-0.6,0.1l0.9,0.7
		c0.5,0.2,0.9,0.4,1.1,0.5l0.1,0.3l-1-0.3l-0.9-0.1l1.2,0.8l-1.1-0.4l-1-0.6L152,225l1.6,0.8l0.6,0.5l-2.8-1.2l-0.6,0.2l1.1,1.4
		c0.4,0.5,0.9,0.5,1.6,0.2l1.6-0.7l-0.3-0.2l1.3-0.3L155,223.7z M137.5,225.2l-1.9,2.8c-0.5-0.3-0.8-0.8-0.9-1.5l-0.1-1.8
		c0.3,0.1,0.5,0.5,0.5,1l0.2,1c0.3,0.1,0.4,0,0.3-0.4c-0.2-0.5-0.2-0.8,0-1c-0.8-1.5-1.5-3.3-1.9-5.3c-0.1-0.1-0.1-0.3,0-0.6
		c0.1-0.2,0-0.4-0.1-0.6c-0.7,0.4-1,1.1-1.3,2l-0.5,2.5c-0.2-0.1-0.3-0.3-0.3-0.8l-0.2-1c0,0,0.1-0.2,0.3-0.4c0.1-0.1,0-0.3-0.2-0.4
		l-0.8,0.1l-0.7,0.4c-0.4-1-0.5-1.9-0.2-2.7l0.6-0.8l0.7-0.6v-0.4l-0.3-0.2c-1.4-0.5-3-0.7-4.6-0.5c-1.7,0.2-3.2,0.7-4.5,1.5
		c-0.8-0.3-1.4-0.5-1.9-0.6c2-1.1,4-1.7,6.1-1.9c2.3-0.3,4.4,0.1,6.2,1l0.3-0.2v-0.2c-0.1-0.4-0.1-0.8-0.1-1.4
		c0.1-0.5,0.2-0.9,0.5-1.2l1.1-1.2c0.5-0.3,0.9-0.6,1.4-0.7l-0.2,0.7c-0.1,0.4-0.1,0.7,0,0.8c1.2-1.3,2.9-1.9,5.3-1.8
		c3.2,0.3,5.2,0.2,6-0.1c0,0.4-0.2,0.9-0.6,1.4c-0.3,0.3-0.6,0.4-1,0.2l-1.1,0.2l0.7,0.2h0.8l-2.8,0.3l1,0.3l1.1,0.1
		c-0.1,0.2-0.2,0.2-0.4,0.2s-0.4,0-0.4,0.1l0.2,0.2c-0.5,0.4-0.8,0.7-1,0.5l-1.5-0.4c-0.6-0.2-1-0.4-1-0.8c-1.9-0.1-3.4,0.6-4.7,2
		c-0.3,0.3-0.4,0.5-0.2,0.7l0.4-0.1l0.3-0.3l3.6-0.1c-0.4-0.3-0.8-0.3-1.4-0.3l-1.5-0.1c0.5-0.4,1.1-0.4,1.9-0.4l2,0.3h0.6
		c-0.5-0.3-1.4-0.6-2.7-0.7l-0.3-0.1h2.1l2,0.5l-1.1,0.7l0.4,0.6l0.1,0.2l-0.5,0.1c-0.4,0-0.6,0.1-0.9,0.3c-0.1,0.3,0,0.5,0.4,0.6
		l0.7,0.1c0.8,0.6,1.4,1.3,1.9,2.3c0.4,0.8,0.6,1.7,0.5,2.5l-0.7-0.2l-0.5-0.5v0.4l-0.1,0.3l-0.8-1.5c-0.1,0.2,0,0.5,0.1,0.9
		c0.2,0.4,0.3,0.7,0.1,0.9c-0.3-0.1-0.6-0.4-0.7-0.9c0-0.6-0.2-0.9-0.4-0.9c-0.1,0.2-0.1,0.5,0,1l0.3,1h-0.4
		c-0.3-0.3-0.5-0.7-0.5-1.3l-0.5-1.4c-0.2,0.4-0.1,0.8,0,1.4c0.3,0.5,0.4,1,0.3,1.3c-0.7-0.3-1.1-1.3-1.2-2.8
		c-0.3,0-0.5,0.3-0.3,0.9l0.2,1.4c-0.3-0.2-0.5-0.5-0.5-0.8l-0.2-1v-0.9c0-0.3-0.1-0.6-0.3-0.8c-0.3,0.4-0.3,1-0.1,1.7
		c0.1,0.8,0.1,1.3,0,1.8C138.1,223,138.1,224.1,137.5,225.2z M132.8,218l-1,0.5c-0.4,0.1-0.6,0.2-0.7,0.5l0.9-0.2l0.8-0.6V218z
		 M132.8,217.2l-0.1-0.2l-0.6,0.5c0-0.2,0-0.3,0.1-0.6l0.2-0.6l-0.3,0.4l-0.3,0.5c-0.5,0.3-0.9,0.5-1.3,0.6c0.7,0.2,1.3,0,2.2-0.5
		L132.8,217.2z M133.7,213.5c-0.8,0.5-0.9,1.5-0.7,2.7l0.3,0.1C133,215.3,133.1,214.4,133.7,213.5z M134.3,213.8
		c-0.2,0.3-0.4,0.8-0.5,1.3c0,0.5,0,1.1,0.1,1.4l0.2-0.7v-0.7l0.2-0.6V213.8z M135.3,214.1c-0.3,0.2-0.5,0.5-0.6,1
		c-0.2,0.4-0.2,0.8,0,1.2l0.1-0.3c-0.1-0.3,0-0.6,0.1-0.9L135.3,214.1z M136.6,218.9c-0.2,0.1-0.2,0.4-0.2,1l0.2,0.1V218.9z
		 M137.4,221l-0.2-2l-0.1,1C137.1,220.5,137.2,220.8,137.4,221z M144.6,225.9c0.3-0.2,0.3-0.4,0.2-0.8c-0.2-0.8-0.7-1.6-1.6-2.4
		l-1.2,0.1c-0.4,0-0.8,0.2-1,0.4l2.3,1.1c0.8,0.7,0.8,0.8,0,0.4l-3.8-1.9l-0.3,0.3c1.2,0.4,2.2,1,3.2,1.6l0.5,0.3l0.2,0.3l-4.3-2.1
		c-0.3,0.3-0.3,0.7-0.1,1.3c1.4,1.3,3.1,1.8,5.1,1.5L144.6,225.9z M146.3,227.4l-1.1-0.2l-1.1-0.4l-1.7-0.1v0.4l2.2,1.6
		c0.8,0.6,1.7,0.8,2.6,0.6c0.1-0.1,0.2-0.4,0.2-0.6l-0.3-0.7C146.9,227.7,146.7,227.5,146.3,227.4z M65.3,222.2l1.7-0.1l2-0.9
		l-1.5,0.2L66,222c0.2-0.3,0.7-0.6,1.5-1c0.8-0.3,1.2-0.7,1.3-1.1C67.6,219,66.5,219.8,65.3,222.2z M71.8,224.7l0.8-0.9
		c-0.1-0.1-0.4-0.3-0.8-0.3l-0.7-0.3l0.6-1.2c0.1-0.3,0-0.5-0.5-0.6l-1.2-0.1l-2,2.7l2.5,0.9L71.8,224.7z M71,214.7l0.5-0.8
		c-1-0.2-2-0.4-3.1-0.8l-0.8-0.3h-0.1l-0.1-0.1c-1.4-0.5-2.3-1-2.9-1.5c-1.2-0.9-1.6-2-1.5-3.2c0-0.8,0.5-1.6,1.3-2.4l0.1-0.1
		c0.7-0.5,1.6-0.8,2.6-0.6h0.1c0.7,0.2,1.1,0.4,1.2,0.9c0.3,0.4,0.2,1.1-0.1,1.8c-0.2,0.5-0.2,0.9-0.2,0.9l0.7-0.2l0.5-0.6
		c0.3-0.7,0.3-1.6-0.2-2.5c-0.4-0.6-1.1-1-2.1-1.2c-1.6,0-2.8,0.3-3.6,1.2c-0.5,0.5-0.8,1.1-1.1,1.9c-0.2,0.9-0.3,1.6-0.1,2.4
		C62.8,211.8,65.8,213.6,71,214.7z M67.3,223.2c0.2,0.3,0.5,0.2,0.9-0.2l0.8-1.2l-2.4,1H67L67.3,223.2z M72.7,218
		c-0.1-0.2,0-0.4,0.3-0.6c0.4-0.2,0.5-0.4,0.5-0.7l-2.1,0.5c0.1-0.2,0.4-0.4,0.9-0.5l0.9-0.4l-1,0.2l-1.1,0.5
		c-0.1-0.3-0.1-0.5,0.4-0.7l1-0.3c-0.3-0.7-0.6-0.9-0.9-0.9l-1.9,1.9C70.5,217.7,71.5,218,72.7,218z M75.8,226.4
		c-0.6-0.4-0.8-0.9-0.6-1.3l0.4-1l-1.3,0.1l-1-0.2c-0.1,0.3-0.4,0.7-1,1c-0.5,0.4-0.8,0.7-0.7,1.2L75.8,226.4z M78.1,215.8l-3.1,0.8
		l0.2,0.2l2.6-0.5c0,0.2,0,0.4,0.4,0.4l0.6,0.1c-0.6,0.2-1.3,0.9-2.1,2.2l-1.8-0.2l-0.9-0.5l-0.4-0.6c1.6,0.1,2.9-0.2,3.9-0.7
		l-3.5,0.3c-0.2-0.3-0.1-0.6,0.3-1l2.2-1.2l0.8-0.2l0.7,0.4c0.1,0.1,0.2,0.2,0.2,0.3L78.1,215.8z M77.3,215.6l-1,0.1
		c-0.5,0.2-0.9,0.4-1,0.6L77.3,215.6z M73.8,218.8l0.1-0.1l-0.6-0.4l-2.6-0.1l-1.1,1.3c-0.4,0.4-0.6,0.8-0.4,1.2l1.6,0.1l1.5,0.4
		l0.5-0.9l1.2-1.2c-1.2,0.4-2.2,0.6-2.9,0.9l-0.6,0.1c0.3-0.3,0.8-0.5,1.5-0.7L73.8,218.8z M69.3,217.4l-1.9,1.8
		c0.4-0.2,0.9-0.2,1.5,0.3l1.3-1.3C70.2,218,69.9,217.7,69.3,217.4z M72.5,215.2l1,0.8c0.3,0,0.8-0.2,1.5-0.6l1.5-0.9
		c-0.3-0.7-0.8-0.9-1.5-0.5l-1.9,0.6c0.1-0.4,0.3-0.5,0.7-0.6l1.2-0.3l0.1-0.1c-0.1-0.1-0.1-0.2-0.3-0.1l-0.5-0.1l0.2-0.4
		c-1,0.2-1.8,0.6-2.4,1.3C71.8,214.6,72,214.8,72.5,215.2z M76.6,219.8c-0.1-0.3-0.3-0.3-0.7-0.4h-1.1L74,220l-1.4,1.8
		c-0.3,0.4-0.3,0.8-0.3,1l2.2,0.6c0.8,0.1,1.5-0.1,2-0.6c-0.3-0.1-0.5-0.3-0.4-0.6l0.1-0.9l-2.5,0.7c0.2-0.3,0.6-0.5,1.3-0.7
		l1.3-0.5l-2.1,0.3l1.1-0.6C76,220.3,76.4,220,76.6,219.8z M48.3,203.5c0.7,0.3,1.6,0.9,2.6,1.7l2.2,1.9l-3.1-3.6l0.4-0.2l2.6,3V206
		l-1.5-1.9l-1.7-1.6c0-0.2,0.1-0.2,0.3-0.2l2.5,2.5l0.1-0.1c-0.4-0.9-1.1-1.8-2.1-2.6c-0.9-0.7-1.9-1.2-3.1-1.5l0.3,1.5
		C47.9,202.7,48,203.1,48.3,203.5z M39,199.5l0.9,0.3c-1.1-1.6-1.9-3-2.3-4.1l0.2,1.5l0.5,1.5L39,199.5z M42.7,200.6
		c0.3,1.1,0.8,1.7,1.7,2l-1.7-3l0.2-0.2L45,203l0.5,0.4l0.2-0.2l-2.4-3.6l0.4-0.3c0.8,1.7,1.7,2.9,2.7,3.6l-2.1-3l0.1-0.1l2.7,3.4
		l0.5,0.1c-0.8-1.7-1.6-3.1-2.3-4c-0.9-1.2-1.9-2-2.9-2.3c-0.4-0.2-0.5,0.1-0.4,0.8L42.7,200.6z M37.6,194.7l-0.1-0.8
		c0.5,0.2,1.1,0.5,1.6,1l1.4,1.4c0.4,0.6,0.7,1.2,0.8,1.7l-2.7-3l-0.1,0.2l2.2,2.8c0.9,1,1.5,2.1,1.6,3.1c-1.1-0.5-2.2-1.6-3.3-3.4
		C38.2,196.4,37.8,195.4,37.6,194.7z M38.4,195.5l2.5,4.4c0.2,0.3,0.5,0.5,0.7,0.4L38.4,195.5z M35.3,197.3c0.8,1.3,1.7,2.2,2.4,2.8
		l-0.1-0.7c-1.2-1.1-2.5-2.8-3.7-4.9l0.1-0.1l0.2,0.1l3.5,4.6c-0.1-0.9-0.6-1.9-1.4-2.9l-2-2.5c0.1-0.1,0.2-0.2,0.2-0.2l2.5,2.8
		v-0.2c-0.2-0.9-0.6-1.8-1.3-2.5c-0.7-0.9-1.5-1.5-2.4-1.8c-0.3,0.4-0.3,0.8-0.3,1.3v1.5C33.6,195.1,34.4,196,35.3,197.3z
		 M53.5,209.8c-0.3-1.5-1.2-2.7-2.9-3.8c-1.2-0.9-2.7-1.6-4.6-2.2c-0.5,0-0.7,0.1-0.7,0.3l0.9,1.6c0.8,1.4,1.9,2.8,3.5,3.9
		c1.6,1.1,3.3,1.9,4.9,2.2v-0.2c-0.9-0.3-2-1-3.1-2l-3-2.5l0.4-0.3l2.5,2.3c1,0.9,1.9,1.5,2.7,2l-0.1-0.5l-0.3-0.3
		c-0.7-0.4-1.6-1-2.4-1.8l-2.3-2.1c-0.1-0.2,0-0.3,0-0.4L53.5,209.8z M54.7,207.2c0.4,0.3,0.8,0.4,1.2,0.4l-2-2.5
		c0.2-0.1,0.5,0,0.7,0.2c0.3,0.4,0.4,0.5,0.6,0.4c0.6,0.4,1.3,1,1.9,1.9c0.7,1,1.3,1.6,1.7,1.9c-1.4-2.9-3.2-4.8-5.4-5.6
		c0,0.6,0.1,1.4,0.5,2.4C54,206.7,54.3,207,54.7,207.2z M54,212.6c0.1,0.5,0.5,0.6,1,0.6l1.4-0.1c-0.4-0.4-0.9-0.6-1.5-0.8l-1.6-0.4
		L54,212.6z M36.2,199.8l1.7,2l0.7,1.8l-2.8-2.4l-0.7-0.4c0.3,0.5,1.1,1.3,2.4,2.3s2.1,1.7,2.4,2.2l0.2,0.5c-2.3-1-3.8-1.7-4.7-2.3
		c-1.6-1-2.6-2.4-3.1-3.9l-0.1-2.1l0.9,0.3l0.9,0.4C34.9,198.6,35.5,199.1,36.2,199.8z M33.6,199.8l0.7,1.3l2.4,2.5
		c1,0.9,2,1.5,2.9,1.8l-3.1-2.6L33.6,199.8z M40.8,204c-0.1,0,0,0.2,0.2,0.6l0.5,0.5l3.1,2.9c-1.4-0.5-2.6-1.4-3.7-2.6
		c-1.1-1.2-1.9-2.4-2.4-3.9l-0.2-0.8c0-0.1,0-0.3,0.1-0.5c1.9,0.7,3.6,1.7,5.2,2.9c0.9,0.5,1.6,1.5,2.2,2.8c0.6,1.5,1.2,2.5,1.7,2.9
		v0.3c-1-0.1-2.2-0.9-3.6-2.1L40.8,204z M41.7,203.3c0.8,1.3,2.3,2.8,4.7,4.7l-4.4-4.8L41.7,203.3z M35.6,198.5L33,195
		C33.4,197,34.3,198.1,35.6,198.5z M69.8,225.3l-0.6-0.2l-2.7,1.2l0.5-0.5l1.7-0.8l-0.5-0.3l-1,0.6l-1.2,0.4l1.2-0.8l-0.9,0.1
		l-1,0.3l0.2-0.3l1.1-0.5l0.9-0.7l-0.6-0.1l-0.2-0.3c-0.4-0.2-0.7-0.2-1,0.3l-1.2,2l1.3,0.3l-0.2,0.2l1.6,0.7
		c0.6,0.3,1.1,0.3,1.6-0.2C69.2,226,69.5,225.5,69.8,225.3z M81.9,223.2c-1.4,0.8-2.9,1.5-4.3,2.1l0.2-0.3l0.5-0.3
		c0.9-0.6,2-1.2,3.2-1.6l-0.3-0.3l-3.9,1.9c-0.8,0.4-0.8,0.3,0-0.4l2.4-1.1c-0.2-0.2-0.6-0.4-1-0.4l-1.2-0.1
		c-0.9,0.8-1.5,1.6-1.6,2.4c-0.2,0.4-0.1,0.6,0.2,0.8l0.8,0.1c2,0.3,3.7-0.2,5.1-1.5C82.2,223.9,82.2,223.5,81.9,223.2z M76.5,226.8
		l-1,0.4l-1.2,0.2c-0.3,0.1-0.6,0.3-0.8,0.6l-0.2,0.7c-0.1,0.2,0,0.5,0.2,0.6c0.8,0.2,1.8,0,2.6-0.6l2.2-1.6l-0.1-0.4L76.5,226.8z
		 M72.6,227.2c-0.3,0-0.6,0.1-1.3,0.5L70,228l0.8-0.5L72,227h-1.2l-1.2,0.4c0.3-0.4,0.7-0.6,1.1-0.7l0.6-1.2c-0.3-0.2-0.6-0.2-0.9,0
		c-0.2,0.1-0.5,0.3-0.6,0.5l-0.6,1c-0.3,0.3-0.4,0.6-0.4,0.9c0.4,0.4,1,0.6,1.7,0.7l2.1-0.1l0.7-1.2L72.6,227.2z M56.6,222.4
		c0.7-1.6,1.9-2.6,3.6-3.2l3.8-0.5l2.5,0.5l0.9-0.9c-2.6-0.4-4.8-0.4-6.4-0.1c-1.7,0.4-3.1,1.1-4.4,2.3c-1.5,1.5-1.8,3.2-1,5.2
		c0.5,1,1.4,1.5,2.8,1.6c1.2,0.1,2.1-0.1,2.9-0.7l0.2-0.5v-0.3l-3.2,0.4c-0.8-0.1-1.3-0.5-1.5-1c-0.5-0.7-0.6-1.7-0.3-2.7
		L56.6,222.4z M82.2,225.2c-1,0.9-2,1.4-3,1.5c-0.2,1-0.1,1.8,0.1,2.3l2-0.8c0.8-0.4,1.3-0.9,1.7-1.4l-0.3-0.8L82.2,225.2z
		 M88,224.4l-0.1,0.2l-0.2,0.1l-0.4-3h-0.2c-0.1,0.7-0.1,1.5,0.1,2.6v0.7l-0.4,0.5l-0.1-2.3c-0.2,0.4-0.4,1-0.3,1.6v1.7
		c0.4-0.3,0.9-0.6,1.2-1.1l0.9-1.4c-0.1-1.3-0.5-2.5-1-3.8L88,224.4z M89.2,220.7l0.8,0.1l0.8,0.4c0.4-1,0.4-1.9,0.2-2.7l-0.6-0.8
		c-0.2-0.4-0.5-0.5-0.7-0.6v-0.4l0.3-0.2l5-0.4c1.8,0.2,3.3,0.9,4.7,1.9c0.3-0.3,1-0.5,1.9-0.7c-1.9-1.2-4-2-6.3-2.3
		c-2.5-0.3-4.7,0.1-6.6,1l-0.3-0.2l-0.1-0.2c0.2-0.4,0.2-0.8,0.2-1.4L88,213l-1.2-1.2c-0.4-0.3-0.8-0.6-1.3-0.7l0.2,0.7v0.8
		c-1.2-1.3-2.9-1.9-5.4-1.8c-3.1,0.3-5.1,0.2-6-0.1c0,0.4,0.2,0.9,0.7,1.4c0.2,0.3,0.5,0.4,1,0.2l1.1,0.2l-0.8,0.2h-0.8
		c0.3,0.3,0.8,0.4,1.5,0.3h1.4l-1.1,0.3l-1,0.1c0,0.2,0.2,0.2,0.4,0.2l0.4,0.1l-0.2,0.2l0.5,0.4l0.4,0.1l1.5-0.4
		c0.7-0.2,1-0.4,1-0.8c1.9-0.1,3.5,0.6,4.8,2c0.3,0.3,0.4,0.5,0.2,0.7l-0.5-0.1l-0.2-0.3l-3.6-0.1c0.3-0.3,0.8-0.3,1.3-0.3l1.6-0.1
		c-0.5-0.4-1.1-0.4-1.9-0.4l-2,0.3h-0.7c0.5-0.3,1.5-0.6,2.7-0.7l0.3-0.1h-2l-2.1,0.5l0.6,0.4c0.2,0.1,0.5,0.2,0.5,0.3l-0.3,0.6
		l-0.1,0.2l0.5,0.1c0.4,0,0.6,0.1,0.8,0.3c0.1,0.3,0,0.5-0.3,0.6l-0.7,0.1c-0.9,0.6-1.5,1.3-1.9,2.3c-0.5,0.8-0.6,1.7-0.5,2.5
		l0.7-0.2l0.5-0.5v0.4v0.3l0.4-0.7c0.1-0.3,0.3-0.6,0.4-0.8v0.9c-0.3,0.4-0.3,0.7-0.1,0.9c0.3-0.1,0.6-0.4,0.6-0.9
		c0.1-0.6,0.2-0.9,0.5-0.9l-0.1,1l-0.2,1h0.4c0.3-0.3,0.4-0.7,0.5-1.3c0.1-0.7,0.3-1.1,0.5-1.4c0.1,0.4,0.1,0.8-0.1,1.4
		c-0.3,0.5-0.3,1-0.2,1.3c0.7-0.3,1.1-1.3,1.2-2.8c0.3,0,0.5,0.3,0.3,0.9l-0.2,1.4l0.4-0.8l0.3-1v-0.9c-0.1-0.3,0.1-0.6,0.3-0.8
		c0.3,0.4,0.3,1,0.1,1.7c-0.2,0.8-0.2,1.3,0,1.8c-0.5,1-0.4,2.1,0.2,3.2c0.3,0.8,0.9,1.7,1.9,2.8c0.5-0.3,0.8-0.8,0.9-1.5v-1.8
		c-0.2,0.1-0.4,0.5-0.5,1c0,0.5,0,0.9-0.2,1c-0.2,0.1-0.3,0-0.2-0.4c0.1-0.5,0.1-0.8-0.1-1c0.9-1.4,1.5-3.1,2-5.3v-0.6
		c-0.1-0.2,0-0.4,0.1-0.6c0.6,0.4,1,1.1,1.2,2l0.5,2.5c0.2-0.1,0.4-0.3,0.4-0.8l0.1-1l-0.2-0.4C89,221,89,220.8,89.2,220.7z
		 M37.9,207.5l-3.8-0.7l6.3,0.3l-0.3-0.3l-6.6-0.6l-0.4-0.2l6.5,0.5c-0.1-0.2-0.3-0.4-0.6-0.5l-0.9-0.4l-5.7-0.3H32l-0.1-0.2
		c0.6-0.2,1.4-0.2,2.5,0h2.4c-0.7-0.4-1.5-0.7-2.5-0.8l-2.7-0.1c-1.9,0.4-3.2,0.8-3.7,1.2c3.2,2.4,6.3,3.1,9.4,2.2L37.9,207.5z
		 M27.9,201.5l0.2-0.3l-1.7-1.4c0.3-0.2,0.9,0.2,1.7,1l2.9,1.8c1,0.5,2.1,0.8,3,0.7l-0.6-0.5c-2.5-2.7-4.8-4.3-7-5.2
		c-1-0.4-1.9-0.5-2.8-0.5c0.1,1.7,1,3.2,2.8,4.6c1.7,1.3,3.4,1.9,5.1,1.9L27.9,201.5z M26.9,193.8c-0.5-0.7-1-2.2-1.1-4.2l0.1-0.3
		h0.4c1.6,0.5,3,1.4,4.1,2.8c1.1,1.4,1.9,2.8,2.3,4.4l-0.1,0.3c-0.2-0.7-1.2-1.6-2.8-2.8l-0.2,0.1l2.7,2.7l-0.7-0.1l-3.2-3.3
		l-1.1-0.1c1.1,0.8,2.5,2.3,4.1,4.4C29.7,197.1,28.2,195.8,26.9,193.8z M30.4,193.7l0.5,0.6l0.7,0.4L30.4,193.7z M48.9,213.5L45,213
		l0.2-0.3c2.9,0.4,5.6,0.5,8.1,0.3l0.2,0.2l0.5,0.1l-0.6-0.5l-7.5-0.2l3.4-0.5l3.5,0.4l-0.1-0.3l-0.5-0.4c-3.1-1.1-6.5-0.9-10.2,0.5
		l-0.5,0.3c1.6,1.1,3.5,1.7,5.6,1.9c2.2,0.1,4-0.3,5.7-1.1L48.9,213.5z M45,210.6h-5.1l4.6-0.4l0.5-0.1c-1.7-0.3-3.2-0.3-4.6,0
		l-0.1-0.1l2.7-0.4l3.2,0.2c0.2,0,0.3,0,0.3,0.2l-1.1,0.2v0.4l2.8-0.3l-0.8-0.2c-1.9-1.1-3.8-1.9-5.9-2.1c-2.3-0.3-4.4,0-6.4,1
		c0.4,0.4,1.3,1,2.5,1.6C40.9,211.9,43.4,212,45,210.6z M50.5,215.6c0.9-0.9,2.1-1.4,3.8-1.6l4.1,0.1L59,214l0.5-0.4l0.8,0.5L61,214
		l-4.7-3.7l-0.2,0.2l2.9,2.6c-1.8-1.4-3.1-2.3-4-2.9l-0.1,0.1l3.7,3.2c-1.8-0.3-3.3-1.4-4.5-3.4c-0.4-1.1-0.6-2-0.6-2.8
		c4.5,1.9,7.4,4.3,8.3,7l0.2,0.3l7.5,1.7l-0.7,0.7l-6.9-1.7c-1.7,1-3.6,1.5-5.7,1.7C54,217.1,52,216.7,50.5,215.6z M54,215.6
		c1.5,0.4,3.5,0.4,5.8,0c0.2,0,0.3-0.3,0.3-0.6l-5.1,0.3L54,215.6z M127.8,226.2h-0.1c-0.6-0.1-1,0-1.1,0.5
		c-0.3,0.3-0.2,0.6,0.1,0.8l0.2,0.1c0.7,0.2,1.2,0.6,1.4,1.1c0.2,0.6,0.1,1.3-0.2,2c-0.8,1.2-2,2-3.9,2.2h-0.1
		c-1.7,0-3.2-0.3-4.5-1.1c-0.9-0.6-2-1.5-3.1-2.8c0.2,1,0.2,1.8,0,2.3l1.5,1.5l2,1.2l3.3,0.4c1.6,0,3-0.3,4.4-1
		c1.1-0.7,1.9-1.4,2.1-2.3V231c0.5-1.2,0.5-2.3,0-3.2C129.4,227.1,128.7,226.5,127.8,226.2z M115.3,228.2c0.5,1.3,0.7,2.3,0.4,3
		l-0.5-0.7c-0.2-0.3-0.5-0.3-0.7-0.3c-0.2,1.4-0.8,2.8-1.7,4.2c-0.3-0.1-0.5-0.4-0.6-0.9c0-0.3-0.3-0.6-0.6-0.6l-0.8,1.9l-0.2,0.1
		c0-1.5-0.1-2.7-0.4-3.7l-0.2,0.5l0.2,4l-0.9,0.7l0.2-2.1c0-0.8-0.1-1.5-0.3-2.1l1.5-3.2c0.4,0.7,0.4,1.6,0.1,2.7v0.8
		c0.4-0.5,0.6-1.2,0.6-2.1c-0.1-0.8-0.2-1.6-0.4-2.4c0.4-1.5,0.7-2.8,0.6-3.7c0.2,0,0.4,0.4,0.5,0.9l-0.5,1.5l0.7-1.2
		c0.2,0.2,0.2,0.7-0.1,1.2l-0.4,1l0.5-0.7l0.4-0.8c0.3,0.6,0,1.5-0.9,2.5l-0.1,0.4c0.6-0.6,1-1.1,1.4-1.9c0,0.3-0.1,0.8-0.4,1.3
		l-0.7,1.2l-0.2,0.3l1.5-1.8v1.4c0,0.6,0.2,0.9,0.4,0.9c0.1-1.3,0.1-2.5-0.3-3.8c-0.3-1.2-0.9-2.2-1.7-3l-0.6-2.4l-1-2.1
		c-2.3-0.1-4.6,0.8-6.8,2.8h-3c-1,0.3-1.8,0.8-2.7,1.4l-0.5,2.1c-0.2,0.8-0.8,1.2-1.6,1c0.1-1.5,0.7-2.5,1.7-2.8
		c-0.4-0.6-0.7-0.8-1-0.7c0.2-1,0.8-1.7,1.6-2.3c0-0.3,0-0.4-0.4-0.4c-0.2-0.1-0.3-0.1-0.1-0.3c1.6-1.1,3.5-1.8,5.5-2.2l0.2-0.3
		c-0.9-0.7-1.7-1.2-2.3-1.5c0.7-0.4,1.4-0.7,2-0.7l1,1.7c0.4,0.7,1,0.8,1.8,0.6l3,1.1h0.5c0.1-0.2,0.1-0.3,0-0.5V218l0.7-1.2
		c0.7-1,1.4-1.7,2.1-2.1c0.7-0.5,1.6-0.6,2.5-0.6l-0.5,0.5c-0.2,0.3-0.2,0.5,0,0.7h4c0.8,0.2,1.2,0.4,1.4,1L118,217l2.6,0.7
		c1.2,0.7,2,1.1,2.1,1.5l-0.9,0.1c-0.3-0.1-0.5,0.1-0.5,0.4c0.7,0.1,1.3,0.5,1.7,1.1l1.1,1.8l0.5,1.4c-0.6-0.2-1.3-0.1-1.8,0.2
		c0.5,0.6,1,1.6,1.3,3.2l-0.9-0.4c-0.3-0.1-0.5,0-0.7,0.3c0.5,0.3,0.8,0.9,0.8,1.7c0,0.9,0.2,1.5,0.5,1.8c-1-0.1-2-0.8-3.3-2.1
		l0.1-1.5h0.9c-0.7-1.5-1.7-3.1-2.9-4.5c-1.5-1.7-2.9-2.7-4.4-3.2l1.6-1c0.7-0.5,1.5-0.7,2.2-0.6c0-0.2-0.2-0.3-0.5-0.4l-0.8,0.1
		l0.3-0.8l0.6-0.7l-0.3-0.1c-0.7,0.7-1.3,1.5-1.8,2.2l1.2-2.4l-0.3-0.1l-1.8,3.1c-0.1-0.6,0.2-1.6,1.1-3.1h-0.1
		c-0.4,0.4-0.8,1-1.2,1.8l-0.9,2h-0.2l1.2-3.8c-0.6,0.5-1.1,1.8-1.6,3.6l-1.1-0.1c-0.4,0-0.7,0-0.9,0.3l3.3,0.5
		c0.5,0.3,0.7,0.7,0.5,1.3v0.9c0.1,0.2,0.1,0.3,0.3,0l0.2-1.5c0.4,0.1,0.5,0.5,0.4,1l-0.4,1.7c0,0.6,0,0.8,0.1,0.8l0.7-3l0.4,0.3
		c-0.2,1.2-0.2,2.2,0,3l0.2,0.2l0.2-3.1c0.5,0.2,0.7,0.8,0.4,1.6c-0.4,1-0.4,1.8,0,2.1l-0.9-0.1l-0.8,0.1
		C114.8,226,114.8,227,115.3,228.2z M122,227.7h-0.3l0.1,1.4l0.1,0.4L122,227.7z M122.3,228.5l0.2,1.4l0.1-1.1L122.3,228.5z
		 M117.1,220.7l3.2-0.4l2,0.5c-0.5-0.6-1.3-0.8-2.5-0.7L117.1,220.7z M112.1,218.7l0.2,0.1c-0.1-0.4,0-1,0.3-1.6l0.5-1.5
		C112.5,216.5,112.1,217.5,112.1,218.7z M111.2,218.9l0.5-1.7v-0.4C111.1,217.7,111,218.5,111.2,218.9z M102.9,217
		c-0.2-0.6-0.6-0.9-1.1-1C102.1,216.3,102.4,216.7,102.9,217z M110.7,217.6c-0.1,0-0.3,0.1-0.4,0.4l-0.1,0.6l0.2,0.2L110.7,217.6z
		 M98.3,223.5l-0.8,5.3c0.3-0.3,0.7-2.1,1.2-5.3l0.5-0.5c0.3-0.2,0.8-0.3,1.4-0.4l-0.9,3.4c0,0.3-0.2,0.6-0.6,0.7
		c0.6-1.7,0.8-2.9,0.9-3.7h-0.2l-1.3,4.3c-0.1,0.5-0.1,0.8,0,0.7l0.4-0.6l0.2-0.5l0.2,0.1l2.7-3.2c1.1-1.2,2.1-2.1,3.2-2.6l0.1,1.3
		c-1.7,1.2-2.8,2.2-3.5,3.2l-0.2,0.4c1.4-1.4,2.6-2.4,3.6-3v0.6l-3.4,3.1c-0.3,0.2-0.5,0.5-0.6,0.9l-0.2,1l-1.2-0.9
		c-0.8,1.5-1.8,2.5-3.3,2.9c0.1-1.1,0.3-2.2,0.5-3.5l0.9-3.5L98.3,223.5z M102.1,224.6l2.7-2.6l-0.1-0.2
		C103.2,223,102.3,223.8,102.1,224.6z M102.1,231.8c0.4-0.3,0.7-0.6,1.2-1c0.4-0.1,0.5-0.3,0.5-0.5l-0.4-0.3c-0.3,0-0.4-0.3-0.4-0.5
		l-2.9,2.5c-1.3,0.7-2.8,0.9-4.4,0.9h-0.1c-1.8-0.2-3.1-1-3.8-2.2c-0.4-0.7-0.5-1.4-0.3-2c0.2-0.5,0.6-0.9,1.3-1.1l0.3-0.1
		c0.3-0.2,0.4-0.5,0.2-0.8c-0.2-0.5-0.6-0.7-1.2-0.5H92c-0.9,0.3-1.6,0.9-2,1.6c-0.5,0.9-0.5,2,0,3.2v0.1c0.3,0.9,1,1.6,2.1,2.2
		c1.2,0.7,2.7,1,4.2,1.1l3.5-0.4l2-1.2C101.6,232.6,101.7,232.2,102.1,231.8z M106.9,227l0.4-1l0.1-1.2c-0.3,0.2-0.5,0.6-0.5,1.1
		V227z M107.9,225.5l0.7-1h-0.5C107.8,224.8,107.8,225.2,107.9,225.5z M106.7,235.8l-0.5,1.2l0.1,0.5l-1.3,0.7l-1.3-0.1
		c-1.3,0.2-2.3,0.1-2.9-0.4l2-1.9l-0.6-0.5c1.2-0.7,1.9-1.6,2-2.6l-0.7,0.2h-0.8c-0.2-0.2-0.1-0.6,0.1-0.8l0.8-0.5l0.7-0.9l0.3-1.2
		h-0.5l-0.4-0.3l0.3-1.3c0.1-0.6,0.1-0.9-0.2-1.2l-0.7-0.4l1.7-1.8l-0.1,0.6c-0.1,0.2-0.1,0.3,0.1,0.1c0.7-0.9,1-2.2,0.8-4.2
		c1.2-0.9,2.6-1.3,4.2-1.3l0.9,2l0.1,0.9l-1.7,1.2l-0.6,0.2l-0.7-0.1l-3.2,2.7l0.5-0.1l0.5-0.3c0.1,1-0.1,2.3-0.7,3.5l0.2,0.1
		c0.5-0.4,0.7-1.1,0.8-1.9l0.2-2.2l0.4-0.2l-0.2,1.7l-0.4,1.8l0.2,0.2l0.4-0.5l0.2-0.7l0.2,0.3l0.3-0.1c0.1-1,0.6-2,1.3-3
		s1.6-1.7,2.5-2.2c0.3,1.7,0.1,3.5-0.7,5.2c-1.2,0.3-2.8,1.3-4.8,2.9c-0.4,0.4-0.6,0.6-0.5,0.9c0,0.2,0.2,0,0.6-0.3l0.7-0.6
		c1.1-0.9,2.3-1.8,3.7-2.4l0.3,0.1c-0.6,1.3-1.5,2.9-2.8,4.6l-1.4,1.4l-0.5,2l0.7-1.1c0.2-0.5,0.5-1,0.7-1.2L106.7,235.8z
		 M104.6,229c0.3-0.5,0.6-1.3,0.6-2.3h-0.1L104.6,229z M103.6,236.2l-1.5,1.5v0.2C102.8,237.7,103.2,237.2,103.6,236.2z
		 M104.2,236.8l0.5-1.3c-0.2,0.2-0.5,0.5-0.7,1l-0.7,1.1v0.2L104.2,236.8z M105.3,236.7l0.4-1.6l-1.2,2.3l-0.3,0.3
		c-0.1,0.1-0.1,0.2-0.1,0.3C104.7,237.7,105,237.3,105.3,236.7z M102.7,222.2c-1-0.2-1.6,0-1.9,0.8l-0.5,2.1l2.5-2.8L102.7,222.2z
		 M55.3,206.2l0.8,1.3c0.4,0.5,0.8,0.8,1.2,1C57,208,56.4,207.2,55.3,206.2z M104.8,217.1l-0.5-1.1c-0.2-0.5-0.6-0.8-1-0.7
		C103.6,216.2,104.1,216.7,104.8,217.1z M108.7,218.5c-0.4-1.2-0.8-1.8-1.4-1.9l0.5,1.1C108,218.1,108.3,218.3,108.7,218.5z
		 M107.3,217.7l-0.5-1.2c-0.2-0.4-0.5-0.7-1-0.7C106.2,217,106.7,217.7,107.3,217.7z M106.1,217.3l-0.6-1.1c-0.2-0.6-0.5-0.8-1-0.7
		l0.5,1C105.3,217,105.6,217.3,106.1,217.3z M117.3,227.8l0.4,1.2c0.2,0.4,0.5,0.7,1,0.7c-0.6-0.5-0.9-1.2-0.9-1.9l-0.6-1.3
		c-0.4-0.5-0.8-0.7-1.4-0.5c-0.2,0.5-0.1,1.1,0.2,1.7l1.3,1.2V227.8z M107.3,236.3c0-0.3,0.2-0.5,0.5-0.5v-2c-0.5,1-0.8,2.1-1,3.2
		C107.1,236.9,107.3,236.7,107.3,236.3z M108.1,236.5l0.1,0.5c0.1,0.2,0.1,0.2,0.3,0.1l0.4-2.4l0.1-2.4l-0.7,0.7L108.1,236.5z
		 M119.8,229.9l0.2-0.9l0.2-1.7c0-0.6-0.1-1.1-0.4-1.5c-0.1,0.4-0.2,0.9-0.2,1.6l-0.1,1.7c-0.2-0.6-0.3-1.3-0.2-2.1l0.3-2.1
		l-0.3-0.5l-0.3,2.1l-0.4,1.2l0.4-3.9l-0.3-0.3l-0.6,3.5l0.6,1.5C118.9,229.2,119.3,229.6,119.8,229.9z M117.8,222.5l-0.3,0.6
		c-0.2,1.6-0.2,2.7,0.4,3.1v-0.9l0.3-1.6C118.3,223.1,118.2,222.7,117.8,222.5z M144.9,226.4l4.2-0.2c0.1-0.5-0.2-0.8-0.8-1.2
		c-0.5-0.3-0.9-0.7-0.9-1l-1,0.2l-1.3-0.1l0.4,1C145.7,225.5,145.5,226,144.9,226.4z M146.6,219.1l1.2,1.2l0.6,0.9l1.4-0.4l1.6-0.1
		c0.2-0.4,0.1-0.8-0.3-1.2l-1.2-1.3l-2.6,0.1l-0.5,0.4v0.1l1.8,0.6c0.7,0.2,1.3,0.4,1.6,0.7l-0.6-0.1L146.6,219.1z M133.8,225.5
		l-0.4-0.5l0.1-0.7c0.2-1.1,0.2-1.9,0.1-2.6h-0.3l-0.4,3l-0.1-0.1l-0.1-0.2l0.4-4.2c-0.5,1.3-0.8,2.5-1,3.8l1,1.4l1.2,1.1v-1.7
		l-0.3-1.6L133.8,225.5z M165.4,205.7c0.2,0.1,0.4,0,0.7-0.4c0.2-0.2,0.4-0.3,0.7-0.2l-2,2.5l1.1-0.4l0.9-0.9l0.5-2.4
		c-2.2,0.8-4,2.7-5.5,5.6l1.8-1.9C164.2,206.7,164.8,206.1,165.4,205.7z M187.7,195l-2.6,3.5C186.4,198.1,187.3,197,187.7,195z
		 M164.3,213.1l1.3,0.1c0.6,0,0.9-0.1,1-0.6l0.8-0.7l-1.6,0.4C165.2,212.5,164.7,212.7,164.3,213.1z M164.5,207.5l0.9-1.3l-2,2.3
		L164.5,207.5z"/>
</g>
</svg>
